<?xml version="1.0" standalone="no"?>
<!DOCTYPE svg PUBLIC "-//W3C//DTD SVG 20010904//EN"
 "http://www.w3.org/TR/2001/REC-SVG-20010904/DTD/svg10.dtd">
<svg version="1.0" xmlns="http://www.w3.org/2000/svg"
 width="1466.000000pt" height="1466.000000pt" viewBox="0 0 1466.000000 1466.000000"
 preserveAspectRatio="xMidYMid meet">
<metadata>
Created by potrace 1.14, written by Peter Selinger 2001-2017
</metadata>
<g transform="translate(0.000000,1466.000000) scale(0.100000,-0.100000)"
fill="#000000" stroke="none">
<path d="M7434 13660 c-3 -3 -9 -5 -12 -5 -24 -2 -62 -17 -62 -25 0 -6 11 -8
26 -4 19 5 25 4 20 -5 -4 -6 -11 -9 -16 -6 -4 3 -11 -1 -13 -7 -4 -10 -8 -10
-16 2 -8 12 -16 9 -50 -18 -22 -18 -46 -32 -54 -32 -18 0 -39 -24 -30 -33 3
-4 1 -7 -5 -7 -7 0 -12 4 -12 9 0 5 -9 7 -20 4 -11 -3 -28 -2 -37 2 -10 4 -34
7 -53 6 -19 -1 -41 3 -49 8 -7 5 -26 5 -42 1 -24 -7 -29 -5 -38 18 l-9 27 -2
-25 -1 -25 -11 25 c-11 25 -11 25 -15 3 -5 -25 -5 -25 -108 -24 -38 1 -88 -3
-110 -8 -29 -7 -42 -7 -47 2 -6 9 -8 9 -8 0 0 -8 -14 -13 -36 -13 -45 0 -155
-57 -315 -164 -41 -27 -76 -51 -79 -55 -3 -3 -30 -25 -60 -47 -61 -45 -200
-179 -200 -192 0 -5 -10 -14 -22 -21 -13 -7 -38 -36 -56 -64 -18 -29 -48 -72
-67 -97 -35 -44 -40 -53 -51 -87 -4 -15 -6 -15 -15 -3 -8 12 -9 10 -4 -6 4
-16 -3 -31 -27 -57 -19 -19 -34 -45 -35 -56 -1 -12 -14 -36 -29 -54 -15 -18
-25 -24 -21 -14 19 47 18 49 -7 18 -14 -19 -29 -44 -32 -55 -4 -12 -10 -23
-13 -26 -15 -11 -72 -141 -66 -150 3 -6 0 -22 -8 -37 -28 -53 -48 -108 -46
-128 1 -11 1 -31 0 -45 -2 -23 -3 -24 -11 -5 l-9 20 -1 -20 c0 -11 -7 -33 -15
-50 l-14 -30 5 35 c3 19 7 45 10 58 2 12 0 22 -5 22 -9 0 -27 -93 -23 -120 1
-8 -5 -77 -15 -153 -11 -93 -21 -141 -30 -144 -7 -3 -13 -10 -13 -17 0 -6 -14
-23 -32 -38 -26 -21 -28 -26 -12 -22 25 7 27 -17 4 -56 -8 -14 -15 -47 -16
-73 -2 -28 -13 -71 -28 -100 -14 -29 -32 -74 -41 -102 -9 -27 -27 -69 -41 -92
-13 -23 -24 -47 -24 -54 0 -16 -56 -124 -91 -175 -34 -50 -37 -65 -9 -39 11
10 20 13 20 7 0 -18 -110 -177 -120 -175 -6 2 -10 -4 -10 -12 0 -27 17 -16 56
35 21 28 42 50 47 50 4 0 6 4 3 8 -2 4 -1 14 5 22 15 25 11 -18 -5 -48 -8 -15
-22 -47 -32 -72 -23 -55 -80 -121 -99 -114 -7 3 -23 -4 -34 -15 -20 -20 -20
-21 -2 -21 27 0 37 -19 14 -26 -10 -3 -35 -15 -55 -25 -21 -11 -43 -17 -49
-13 -14 9 -89 -26 -89 -42 0 -13 80 -23 108 -13 28 11 179 19 213 12 49 -9 56
-44 22 -112 -29 -59 -71 -121 -89 -133 -10 -7 -11 -31 -6 -126 2 -34 28 -55
42 -33 4 7 22 11 41 9 l34 -3 -35 -35 c-73 -73 -146 -177 -109 -154 16 10 2
-46 -17 -67 -22 -24 -17 -37 19 -52 17 -8 38 -21 46 -30 7 -9 28 -19 47 -23
37 -7 54 -28 54 -67 0 -24 2 -25 29 -14 25 9 33 8 49 -6 10 -9 28 -17 40 -17
11 0 27 -6 35 -14 8 -9 24 -12 36 -9 11 3 28 0 36 -7 17 -14 17 -14 33 15 11
19 11 19 13 -5 1 -21 3 -19 13 12 6 20 14 37 19 37 48 5 57 -16 25 -61 -13
-18 -26 -35 -30 -38 -10 -8 -6 -50 5 -50 5 0 7 -9 4 -20 -3 -11 -2 -20 3 -20
4 0 5 -12 2 -27 -3 -16 -7 -22 -10 -15 -3 10 -7 10 -18 1 -8 -6 -14 -17 -14
-23 0 -6 -14 -27 -31 -46 -17 -19 -49 -61 -71 -92 -21 -32 -42 -58 -46 -58 -4
0 -18 -17 -31 -37 -12 -21 -37 -49 -54 -62 -37 -28 -90 -89 -65 -75 29 16 248
226 248 238 0 6 22 36 48 67 26 31 57 69 70 85 13 16 21 24 18 18 -3 -7 1 -17
8 -23 12 -10 15 -6 21 19 4 16 13 30 21 30 17 0 19 47 2 53 -10 3 -10 8 -2 16
15 16 49 -37 61 -94 9 -45 7 -185 -3 -260 -4 -27 -6 -70 -5 -95 2 -46 -15
-127 -30 -145 -5 -5 -9 -15 -9 -22 0 -11 -39 -106 -59 -143 -4 -8 -28 -21 -52
-28 -73 -22 -76 -26 -26 -30 34 -2 47 -7 47 -18 0 -28 -123 -139 -168 -152
-23 -7 -42 -17 -42 -22 0 -14 3 -13 71 16 65 27 83 26 56 -4 -9 -10 -23 -34
-32 -55 -22 -53 -115 -124 -255 -193 -53 -27 -232 -29 -282 -3 -42 22 -48 23
-48 10 0 -5 10 -13 23 -17 30 -9 57 -34 57 -52 0 -12 -11 -14 -59 -9 -32 4
-71 12 -85 18 -14 7 -29 9 -33 6 -13 -13 41 -57 76 -62 20 -4 51 -13 69 -21
42 -18 195 -18 283 0 58 13 155 47 216 78 12 6 20 16 16 21 -3 6 -1 7 4 4 12
-8 64 13 108 43 17 11 36 20 43 20 16 0 16 -82 0 -98 -10 -10 -7 -16 10 -28
12 -8 22 -22 22 -30 0 -8 16 -45 35 -83 30 -57 42 -70 80 -88 33 -15 55 -19
82 -14 47 8 73 4 73 -13 0 -34 -46 -150 -78 -196 -16 -24 -16 -25 2 -10 18 14
19 13 12 -25 -11 -57 -59 -155 -77 -155 -15 0 -11 26 7 40 10 9 14 24 11 47
-6 43 -11 48 -27 28 -7 -8 -19 -15 -26 -15 -8 0 -20 -11 -26 -25 -6 -13 -19
-27 -30 -30 -10 -4 -18 -11 -18 -16 0 -5 -9 -9 -19 -9 -10 0 -21 -7 -25 -15
-3 -9 -12 -12 -23 -8 -17 6 -17 5 1 -15 16 -19 17 -25 6 -52 -7 -16 -16 -30
-20 -30 -18 0 -21 -76 -5 -115 11 -25 15 -52 11 -77 -5 -31 -3 -36 9 -32 8 4
15 1 15 -4 0 -6 10 -14 22 -18 12 -3 44 -20 71 -37 51 -31 89 -36 180 -25 41
5 48 4 45 -10 -2 -10 -8 -17 -15 -17 -6 0 -15 -3 -19 -8 -4 -4 -2 -7 5 -7 7 0
11 -6 8 -14 -3 -8 -1 -16 5 -18 14 -5 27 -83 38 -230 4 -64 11 -126 15 -138 5
-17 -7 -35 -68 -96 -41 -40 -81 -74 -89 -74 -7 0 -32 -22 -55 -49 -27 -31 -54
-52 -73 -56 -29 -6 -90 -68 -90 -91 0 -6 -7 -17 -15 -24 -8 -7 -15 -21 -15
-31 0 -10 -6 -22 -13 -26 -14 -9 -97 -146 -97 -161 0 -5 -13 -27 -28 -48 -16
-22 -39 -73 -51 -114 -13 -41 -33 -95 -45 -120 -27 -53 -44 -117 -56 -212 -7
-62 -13 -75 -47 -112 -91 -96 -183 -227 -183 -257 0 -8 16 11 36 41 66 104
117 163 294 338 166 165 361 332 386 332 8 0 14 -9 14 -20 0 -15 7 -20 24 -20
32 0 44 20 18 27 -11 2 -23 14 -26 26 -8 31 133 167 359 347 50 39 98 78 108
86 10 8 23 12 29 8 6 -4 8 -3 4 4 -3 6 28 38 71 72 43 34 91 73 107 85 15 13
34 21 42 18 8 -3 14 1 14 8 0 13 91 99 105 99 3 0 21 15 40 34 19 19 67 60
107 92 40 32 106 86 146 122 39 35 72 58 72 50 0 -10 3 -9 10 2 8 12 10 11 10
-7 0 -12 6 -23 13 -26 20 -7 -14 -36 -46 -39 -17 -2 -26 -7 -23 -15 3 -7 -4
-19 -15 -27 -20 -13 -10 -34 10 -22 5 3 12 -1 15 -10 6 -14 1 -16 -31 -9 -62
12 -86 11 -91 -4 -3 -10 3 -12 26 -6 30 6 52 -8 32 -20 -5 -3 -10 -17 -10 -31
0 -13 -4 -24 -10 -24 -5 0 -10 -6 -10 -12 -1 -26 -37 -57 -59 -51 -21 5 -26
-3 -15 -31 8 -20 24 -21 24 -1 0 10 10 15 30 15 37 0 38 -7 4 -21 -33 -12 -24
-24 11 -15 14 4 25 13 25 21 0 8 6 15 13 15 7 1 5 6 -5 14 -10 7 -18 16 -18
20 0 12 28 6 40 -9 11 -13 9 -21 -8 -45 -12 -16 -22 -34 -22 -40 0 -20 61 24
66 47 4 13 10 20 15 17 13 -8 121 90 132 120 4 10 10 16 13 13 12 -11 -8 -48
-50 -89 -58 -59 -162 -149 -205 -178 -12 -8 -71 -51 -129 -95 -59 -44 -115
-84 -124 -90 -9 -5 -49 -32 -88 -60 -39 -27 -82 -57 -94 -65 -103 -67 -270
-196 -302 -232 -6 -7 -37 -35 -68 -63 -32 -27 -71 -62 -88 -77 -18 -16 -35
-28 -39 -28 -12 0 -65 -82 -73 -112 -3 -15 -24 -42 -46 -59 -22 -18 -40 -42
-41 -53 0 -12 -3 -15 -6 -8 -7 18 -17 15 -49 -15 -16 -16 -42 -37 -57 -48 -19
-14 -25 -26 -21 -40 4 -15 3 -16 -4 -6 -11 15 -32 7 -32 -13 0 -8 -9 -16 -21
-19 -16 -4 -19 -11 -14 -29 4 -15 3 -19 -3 -10 -7 10 -16 5 -41 -23 -17 -20
-28 -41 -25 -47 4 -7 2 -8 -4 -4 -21 13 -216 -197 -283 -304 -93 -148 -119
-225 -98 -284 13 -36 18 -13 -66 -336 -19 -74 -51 -214 -71 -310 -19 -96 -60
-269 -89 -385 -147 -572 -177 -802 -225 -1740 -10 -198 -22 -366 -40 -580 -5
-60 -19 -231 -31 -380 -20 -253 -24 -274 -50 -331 -16 -34 -29 -72 -29 -85 l1
-24 17 28 c9 15 20 27 24 27 4 0 16 17 27 37 10 21 31 49 46 63 l27 25 -7 -25
c-4 -14 -15 -34 -25 -45 -9 -11 -25 -38 -34 -60 -29 -68 -39 -85 -48 -85 -4 0
-8 -11 -8 -25 0 -44 19 -27 55 48 19 39 40 79 47 87 26 30 144 128 190 157 26
17 45 33 42 36 -8 7 -98 -39 -114 -58 -7 -8 -18 -15 -25 -15 -6 0 -20 -9 -30
-20 -23 -25 -35 -26 -28 -2 14 55 165 163 226 161 12 0 41 4 65 10 47 12 121
9 163 -7 14 -6 56 -29 93 -51 36 -23 70 -41 75 -41 5 0 16 -11 25 -25 10 -14
28 -30 42 -35 13 -5 24 -18 24 -28 0 -16 34 -55 42 -47 1 2 3 -39 3 -91 0 -73
-3 -94 -14 -94 -9 0 -12 8 -9 25 3 14 2 25 -2 25 -9 0 -40 67 -40 87 0 16 -65
95 -84 102 -6 2 -23 14 -37 27 -14 13 -49 30 -77 38 -49 12 -52 12 -52 -5 0
-10 9 -23 20 -29 11 -6 20 -17 20 -26 0 -8 7 -26 16 -39 11 -16 15 -40 12 -74
-2 -42 1 -52 21 -70 13 -12 28 -21 33 -21 4 0 8 -6 8 -13 0 -8 11 -19 25 -25
14 -6 25 -16 25 -22 0 -6 5 -8 10 -5 6 3 13 -1 16 -9 3 -9 12 -16 20 -16 7 0
17 -7 22 -16 12 -21 86 -36 197 -38 80 -2 97 -6 153 -35 34 -18 62 -37 62 -42
0 -5 23 -20 50 -34 28 -14 50 -30 50 -35 0 -6 7 -10 15 -10 8 0 15 -5 15 -10
0 -6 8 -14 18 -17 25 -10 47 -33 66 -70 9 -19 25 -33 38 -35 13 -2 24 -11 26
-23 4 -23 120 -145 138 -145 7 0 27 -18 45 -40 l33 -40 2553 0 c2224 0 2553 2
2553 15 0 7 -4 36 -9 62 -25 128 -40 260 -45 378 -4 72 -17 229 -31 350 -14
121 -32 290 -41 375 -18 194 -79 684 -104 850 -11 69 -33 222 -49 340 -17 118
-38 253 -46 300 -30 155 -35 222 -44 575 -26 933 -67 1653 -132 2350 -29 321
-39 400 -85 683 -30 189 -30 185 -1 177 18 -5 18 -3 -5 10 -19 11 -29 27 -36
62 -6 26 -9 50 -7 53 21 34 34 315 16 350 -5 8 -11 42 -14 75 -6 60 -6 60 9
25 14 -35 14 -35 10 30 -3 36 -19 139 -37 230 -18 91 -33 179 -34 195 -1 17
-8 47 -14 68 -7 21 -14 86 -15 145 -3 88 -7 117 -28 164 -27 62 -97 181 -110
186 -4 2 -8 10 -8 17 0 8 -8 20 -17 27 -38 28 -21 216 24 268 34 40 43 38 44
-12 0 -32 2 -38 8 -23 5 11 6 43 4 71 -4 34 0 69 12 104 13 39 16 70 12 116
-7 73 8 89 42 44 19 -27 35 -80 44 -155 2 -16 5 -1 6 34 1 71 -24 133 -83 206
-18 22 -41 63 -50 90 -9 28 -32 75 -51 105 -19 30 -44 72 -55 92 -11 21 -39
61 -63 90 -24 29 -57 82 -74 118 -17 36 -54 105 -82 153 -28 49 -51 91 -51 94
0 3 -31 58 -69 122 -38 64 -75 128 -82 143 -20 38 -138 279 -152 308 -6 14
-21 37 -33 52 -12 15 -30 51 -39 80 -10 29 -26 71 -36 93 -28 60 -69 186 -69
210 0 12 -3 25 -7 29 -8 7 -8 13 -11 85 -2 37 -4 42 -17 31 -11 -9 -15 -9 -15
-1 0 7 -10 33 -21 59 -23 50 -53 118 -74 167 -22 50 -34 97 -40 157 -5 41 -10
55 -19 52 -8 -3 -21 13 -35 43 -12 26 -32 66 -45 87 -13 22 -22 49 -19 60 2
12 0 15 -3 8 -8 -18 -33 15 -34 46 0 12 -4 22 -10 22 -5 0 -10 8 -10 18 0 10
-7 27 -15 39 -13 19 -19 46 -24 102 0 8 -4 11 -8 8 -10 -11 -30 25 -38 71 -4
23 -11 40 -16 36 -5 -3 -9 3 -9 12 0 10 -6 25 -13 33 -15 17 -38 91 -42 131
-1 14 -6 62 -10 108 -6 62 -5 82 5 82 6 0 10 -6 8 -12 -4 -10 32 -38 48 -38
11 0 1 19 -26 48 -19 21 -30 44 -30 63 0 16 -4 29 -8 29 -5 0 -17 18 -28 40
-10 22 -24 40 -31 40 -15 0 -51 63 -88 150 -40 96 -87 190 -102 202 -7 6 -13
15 -13 20 0 6 -13 27 -29 47 -15 20 -40 59 -55 86 -16 28 -32 54 -36 59 -5 5
-6 15 -3 22 3 8 0 14 -5 14 -6 0 -14 9 -17 21 -32 99 -277 412 -463 590 -120
115 -243 204 -268 195 -8 -3 -14 1 -14 10 0 18 -47 37 -73 30 -13 -3 -21 1
-24 14 -4 13 -17 19 -51 23 -26 3 -60 8 -77 11 -52 11 -166 22 -171 16z m-454
-920 c0 -5 -4 -10 -10 -10 -5 0 -10 5 -10 10 0 6 5 10 10 10 6 0 10 -4 10 -10z
m-10 -65 c-7 -8 -20 -15 -29 -15 -12 1 -11 5 8 21 26 22 41 18 21 -6z m16 -70
c-7 -36 1 -44 22 -23 7 7 12 8 12 4 0 -5 7 -3 16 5 13 10 17 10 24 -1 4 -7 6
-19 3 -27 -3 -7 -1 -13 5 -13 5 0 13 7 16 16 3 8 10 13 15 10 5 -4 12 0 14 6
3 7 6 -3 6 -22 1 -26 4 -31 11 -20 5 8 7 23 5 33 -3 9 -8 26 -11 37 -3 11 -1
20 5 20 5 0 13 -16 17 -35 3 -19 10 -38 15 -40 4 -3 11 -26 15 -50 6 -46 19
-59 27 -27 3 9 6 1 7 -18 3 -34 3 -34 10 10 6 38 8 41 15 23 7 -22 16 -27 41
-24 6 1 14 -12 17 -29 4 -16 16 -39 28 -51 21 -21 23 -21 35 -4 12 17 14 16
23 -6 5 -13 13 -37 17 -54 5 -21 8 -25 11 -12 6 22 23 22 23 0 0 -12 3 -14 11
-6 13 13 64 -39 98 -100 18 -32 19 -38 6 -43 -15 -6 -22 -44 -7 -44 4 0 16
-13 27 -30 14 -20 26 -28 38 -24 11 3 17 0 17 -9 0 -9 6 -17 13 -20 10 -4 10
-7 0 -18 -18 -18 -16 -39 2 -39 8 0 15 -4 15 -10 0 -5 -4 -10 -10 -10 -5 0
-10 -7 -10 -15 0 -13 -32 -21 -63 -16 -4 1 -10 -6 -13 -14 -3 -8 -10 -13 -14
-10 -5 3 -38 8 -75 11 -72 6 -152 -14 -191 -49 -17 -14 -23 -15 -27 -5 -3 9
-11 7 -30 -10 -18 -17 -26 -20 -30 -10 -3 7 -6 -2 -6 -20 -1 -19 -8 -49 -17
-67 -8 -19 -14 -43 -12 -55 2 -19 10 -23 46 -24 31 -2 41 1 38 10 -3 8 0 11 8
8 7 -3 18 5 24 18 12 22 12 22 7 -4 -5 -27 9 -40 17 -16 3 7 18 11 37 10 21
-2 42 6 64 22 41 31 189 91 247 100 41 6 47 4 65 -20 11 -14 26 -40 32 -58 13
-31 13 -30 8 14 l-4 45 11 -35 c7 -19 18 -41 25 -48 15 -15 17 -58 4 -67 -5
-3 -11 0 -14 7 -5 16 1 -30 9 -73 6 -31 6 -31 -27 -26 -19 3 -52 10 -74 16
-35 9 -42 8 -54 -9 -10 -15 -25 -20 -62 -20 -43 0 -49 3 -49 21 0 11 -4 17
-10 14 -6 -4 -8 -15 -5 -26 5 -15 1 -19 -14 -19 -24 0 -27 10 -9 28 9 9 5 12
-19 12 -17 0 -36 -7 -43 -15 -9 -10 -9 -15 -1 -15 18 0 13 -40 -6 -47 -10 -4
-35 -17 -55 -29 l-37 -23 -3 22 c-3 19 -7 16 -40 -26 -28 -37 -37 -58 -36 -83
1 -19 -4 -40 -10 -46 -7 -7 -12 -21 -12 -31 0 -21 1 -21 99 6 59 16 101 9 101
-17 0 -12 7 -11 35 6 35 20 36 20 50 2 13 -18 14 -18 27 -1 17 22 137 34 150
14 6 -8 10 -6 14 9 4 14 16 23 34 26 23 4 31 -1 40 -21 7 -14 16 -33 20 -41 9
-18 76 -26 94 -10 8 5 20 8 29 4 8 -3 18 0 22 6 6 9 9 9 15 0 5 -7 23 -13 41
-14 29 -1 34 -5 51 -51 l18 -50 -6 43 c-3 23 -3 42 1 42 14 0 35 -29 35 -49 0
-11 5 -23 10 -26 6 -4 10 5 10 21 l0 27 24 -24 c35 -36 46 -63 45 -111 -1 -63
-12 -93 -33 -91 -13 1 -15 -2 -7 -10 6 -6 11 -19 11 -29 0 -10 5 -18 11 -18 6
0 9 9 6 19 -3 12 1 22 9 25 20 8 38 -42 26 -69 -5 -11 -8 -43 -6 -71 3 -28 0
-64 -7 -80 -6 -16 -12 -54 -14 -85 -1 -31 -7 -65 -13 -75 -7 -12 -7 -25 -1
-36 7 -12 4 -22 -9 -35 -11 -10 -22 -33 -26 -52 -3 -19 -13 -42 -21 -51 -20
-23 -32 -119 -16 -129 8 -6 9 -15 2 -34 -6 -15 -7 -26 -3 -26 26 4 30 -3 25
-38 -3 -21 -10 -41 -15 -44 -5 -3 -11 -23 -14 -45 -11 -99 -48 -178 -131 -277
-21 -27 -33 -54 -38 -88 -4 -27 -11 -49 -16 -49 -5 0 -9 -10 -9 -23 0 -22 -54
-85 -130 -153 -19 -17 -57 -58 -85 -90 -88 -103 -147 -160 -152 -146 -7 20
-21 14 -57 -23 -19 -19 -38 -35 -43 -35 -5 0 -25 -13 -44 -30 -20 -16 -51 -32
-68 -35 -70 -12 -240 -12 -306 0 -38 7 -77 13 -85 14 -50 3 -84 17 -117 47
-20 19 -41 34 -47 34 -12 0 -95 90 -102 112 -3 9 -13 20 -23 23 -21 6 -64 66
-76 105 -4 14 -21 40 -37 59 -16 18 -27 39 -24 47 3 8 1 14 -5 14 -6 0 -8 4
-5 8 7 12 -45 69 -70 76 -11 3 -27 21 -35 39 -9 20 -22 33 -36 35 -15 2 -23
10 -23 23 0 11 -7 22 -15 25 -8 4 -15 11 -15 18 0 6 -14 31 -30 55 -17 24 -30
51 -30 60 0 9 -9 27 -20 41 -11 14 -20 37 -20 53 0 15 -4 35 -10 45 -5 9 -23
47 -40 84 -17 37 -38 72 -46 79 -30 25 -99 169 -91 190 1 4 -5 15 -14 25 -31
36 -52 135 -55 253 -2 62 -7 118 -12 125 -9 11 -1 124 12 161 3 11 17 28 31
37 19 14 26 15 37 5 21 -20 152 -21 183 -1 13 9 22 20 20 25 -8 12 40 40 58
33 10 -3 21 2 29 15 7 12 17 21 23 21 6 0 27 14 48 31 28 23 44 29 62 25 13
-3 27 -2 30 4 8 12 53 13 91 1 78 -25 79 -25 78 27 -2 186 -276 294 -487 192
-22 -11 -49 -20 -58 -20 -10 0 -21 -4 -24 -10 -4 -6 -11 -5 -19 3 -8 6 -12 15
-9 20 9 15 -8 28 -22 17 -23 -20 -28 8 -6 36 12 15 21 33 21 40 0 8 4 22 9 32
5 9 14 29 22 44 7 16 14 26 17 24 2 -3 16 0 30 5 28 11 150 -5 186 -23 17 -9
43 -12 214 -25 73 -5 74 -5 63 16 -7 12 -8 21 -4 20 28 -5 53 3 53 17 0 18
-47 101 -62 110 -6 4 -8 -2 -3 -17 5 -17 -3 -11 -25 19 -31 42 -50 53 -50 30
0 -6 7 -20 17 -30 26 -29 0 -21 -48 15 l-44 32 -130 0 -130 0 3 25 c1 14 3 34
3 44 0 10 9 37 19 59 11 22 18 43 15 45 -3 3 5 12 16 20 18 13 21 22 17 68 -3
30 -1 54 4 54 5 0 5 11 2 26 -5 18 -1 29 12 39 15 11 16 17 6 23 -7 5 -10 16
-6 25 4 12 1 17 -10 17 -9 0 -16 4 -16 9 0 13 27 21 45 15 14 -6 21 12 16 40
-4 22 12 66 24 66 7 0 18 7 25 15 7 8 21 15 32 15 11 0 22 9 25 20 6 21 13 23
79 20 24 -1 45 4 49 11 6 9 1 10 -19 7 -28 -6 -31 -1 -17 20 6 10 27 13 72 11
35 -1 75 3 89 9 14 6 19 11 13 11 -7 1 -13 5 -13 11 0 11 64 30 100 30 23 -1
24 -2 7 -14 -10 -8 -14 -17 -9 -20 5 -3 20 2 33 12 13 10 43 24 67 32 23 7 42
19 42 25 0 7 8 19 18 26 15 13 16 12 3 -4 -23 -29 -2 -34 22 -5 17 21 67 51
96 57 2 1 0 -15 -3 -34z m-1537 -489 c-9 -8 -10 -7 -5 7 3 10 7 24 7 30 1 7 3
4 6 -7 3 -10 -1 -23 -8 -30z m2118 2 c-3 -8 -6 -5 -6 6 -1 11 2 17 5 13 3 -3
4 -12 1 -19z m-2130 -95 c-3 -10 -5 -4 -5 12 0 17 2 24 5 18 2 -7 2 -21 0 -30z
m50 -65 c-3 -7 -5 -2 -5 12 0 14 2 19 5 13 2 -7 2 -19 0 -25z m3473 -20 c0
-18 -2 -20 -9 -8 -6 8 -7 18 -5 22 9 14 14 9 14 -14z m-1150 -294 c0 -8 -4
-12 -10 -9 -5 3 -10 10 -10 16 0 5 5 9 10 9 6 0 10 -7 10 -16z m-2489 -155
c-12 -19 -21 -30 -21 -26 0 14 31 69 36 64 3 -3 -4 -20 -15 -38z m679 31 c0
-5 -4 -10 -10 -10 -5 0 -10 5 -10 10 0 6 5 10 10 10 6 0 10 -4 10 -10z m1559
-77 c0 -25 -1 -26 -9 -8 -12 27 -12 35 0 35 6 0 10 -12 9 -27z m-268 -26 c-16
-16 -26 0 -10 19 9 11 15 12 17 4 2 -6 -1 -17 -7 -23z m149 16 c0 -10 9 -37
19 -60 23 -50 22 -51 -81 -45 -53 3 -78 1 -78 -7 0 -6 -10 -11 -22 -11 -19 0
-10 12 50 70 72 69 112 88 112 53z m-997 -10 c47 -26 82 -56 127 -108 45 -52
46 -73 2 -34 -60 55 -124 93 -172 103 -14 2 -43 10 -65 16 -22 6 -48 11 -57
11 -26 0 -22 17 5 22 57 11 130 6 160 -10z m1278 -29 c16 -19 1 -49 -25 -49
-18 0 -19 4 -10 40 7 29 16 31 35 9z m-1341 -74 c0 -11 -4 -20 -9 -20 -5 0
-11 9 -14 20 -3 13 0 20 9 20 8 0 14 -9 14 -20z m-134 -57 c11 -27 21 -52 23
-57 2 -5 -9 -6 -25 -2 -16 4 -36 8 -44 9 -47 8 -53 45 -14 76 15 12 30 21 34
21 4 0 16 -21 26 -47z m298 16 c40 -32 34 -49 -18 -49 -51 0 -56 4 -49 43 6
33 30 35 67 6z m-1416 -159 c-18 -34 -34 -58 -35 -53 -4 11 57 126 64 120 2
-3 -11 -33 -29 -67z m3069 -117 c-3 -10 -5 -4 -5 12 0 17 2 24 5 18 2 -7 2
-21 0 -30z m-2986 -94 c-14 -32 -59 -85 -66 -77 -9 8 29 77 52 93 23 17 26 14
14 -16z m-8 -114 c-3 -9 -8 -14 -10 -11 -3 3 -2 9 2 15 9 16 15 13 8 -4z m-55
-32 c-4 -26 -32 -76 -45 -80 -16 -6 -8 77 8 88 23 14 40 10 37 -8z m42 -2 c0
-5 -7 -11 -14 -14 -10 -4 -13 -1 -9 9 6 15 23 19 23 5z m-140 -67 c0 -8 -4
-12 -10 -9 -5 3 -10 10 -10 16 0 5 5 9 10 9 6 0 10 -7 10 -16z m-73 -39 c0
-10 -19 -21 -50 -30 -61 -18 -64 -18 -50 -4 11 11 80 46 94 48 3 1 6 -6 6 -14z
m4483 -359 c0 -6 -7 -2 -15 8 -8 11 -15 25 -15 30 0 6 7 2 15 -8 8 -11 15 -25
15 -30z m-4334 -162 c-3 -9 -6 -22 -6 -30 0 -8 -17 -31 -37 -51 -52 -50 -56
-21 -8 46 35 49 64 69 51 35z m-91 -66 c-24 -52 -69 -108 -86 -108 -23 0 -1
39 67 118 20 23 38 42 40 42 2 0 -8 -24 -21 -52z m289 -6 c-4 -12 -13 -22 -20
-22 -17 0 -17 1 -4 36 13 32 32 20 24 -14z m4290 -84 c9 -17 16 -41 16 -52 0
-16 2 -18 9 -7 7 10 16 0 35 -41 30 -63 32 -76 11 -58 -10 8 -15 9 -15 2 0 -6
15 -23 34 -37 20 -15 40 -43 49 -68 8 -23 18 -50 22 -59 4 -11 3 -18 -3 -18
-6 0 -14 9 -17 20 -3 11 -10 20 -13 20 -4 0 -16 17 -27 38 -11 20 -23 39 -26
42 -15 12 -29 52 -29 82 0 41 -19 77 -20 38 -1 -22 -2 -23 -11 -8 -5 10 -12
34 -14 54 -3 19 -10 44 -15 54 -11 20 -13 30 -6 30 3 0 12 -14 20 -32z m33 0
c-3 -8 -6 -5 -6 6 -1 11 2 17 5 13 3 -3 4 -12 1 -19z m-4250 -19 c-3 -11 -1
-17 3 -14 9 6 55 -83 47 -91 -3 -3 -13 7 -24 22 -10 14 -28 36 -40 49 -26 25
-28 36 -11 53 15 15 31 4 25 -19z m65 -11 c-13 -13 -24 5 -16 27 7 16 8 16 17
0 6 -11 6 -20 -1 -27z m-392 -30 c0 -40 -12 -48 -48 -33 -17 8 -32 16 -32 19
0 6 58 34 73 35 4 1 7 -9 7 -21z m4662 -42 c-5 -19 -6 -20 -13 0 -4 10 -8 28
-8 38 -1 19 -1 19 13 1 7 -10 11 -28 8 -39z m-1702 -6 c-18 -33 -25 -15 -9 22
9 23 15 28 17 16 2 -9 -2 -27 -8 -38z m1751 -42 c17 -34 18 -40 5 -35 -19 7
-20 3 -6 -24 13 -23 32 -26 23 -2 -4 10 -2 14 4 10 6 -4 18 -27 26 -52 9 -24
29 -64 45 -87 16 -24 36 -56 44 -73 9 -16 32 -59 52 -95 19 -36 36 -72 36 -80
0 -8 -35 21 -77 65 -78 82 -110 137 -158 274 -12 37 -26 75 -30 86 -5 16 -5
17 4 5 14 -19 14 0 1 35 -15 40 7 21 31 -27z m-4595 -5 c-10 -10 -19 5 -10 18
6 11 8 11 12 0 2 -7 1 -15 -2 -18z m84 -4 c0 -6 -4 -7 -10 -4 -5 3 -10 11 -10
16 0 6 5 7 10 4 6 -3 10 -11 10 -16z m-45 -10 c10 -15 -1 -23 -20 -15 -9 3
-13 10 -10 16 8 13 22 13 30 -1z m372 -61 c-3 -8 -6 -5 -6 6 -1 11 2 17 5 13
3 -3 4 -12 1 -19z m-277 -10 c0 -13 -32 -6 -37 9 -3 7 3 9 16 6 12 -3 21 -10
21 -15z m4770 -439 c0 -6 -4 -7 -10 -4 -5 3 -10 11 -10 16 0 6 5 7 10 4 6 -3
10 -11 10 -16z m-77 -48 c16 -15 34 -35 39 -46 11 -19 11 -19 -18 -1 -35 23
-84 73 -84 88 0 11 17 0 63 -41z m-222 -10 c24 -26 55 -67 69 -91 14 -24 31
-49 39 -57 7 -8 11 -17 7 -20 -5 -6 -25 14 -100 97 -13 14 -29 37 -36 50 -7
14 -19 31 -27 38 -7 7 -13 18 -13 23 0 19 19 7 61 -40z m-1946 -51 c-6 -9 -9
-9 -16 1 -10 17 0 34 13 21 6 -6 7 -16 3 -22z m-56 -12 c-1 -7 -1 -24 0 -38 1
-18 4 -21 10 -11 6 10 10 10 16 1 10 -17 1 -22 -29 -14 -28 7 -33 24 -14 54
15 23 20 25 17 8z m-59 -5 c0 -5 -5 -15 -10 -23 -8 -12 -10 -11 -10 8 0 12 5
22 10 22 6 0 10 -3 10 -7z m1955 -78 c18 -15 18 -16 2 -11 -10 3 -22 6 -25 6
-4 0 -13 9 -20 21 -12 18 -11 19 5 10 10 -5 27 -17 38 -26z m305 -67 c25 -47
14 -49 -27 -5 -30 30 -53 74 -53 100 0 16 56 -51 80 -95z m-2680 33 c0 -5 -7
-14 -15 -21 -17 -14 -2 -42 18 -34 7 2 25 -12 41 -31 16 -19 33 -35 38 -35 10
0 0 41 -11 50 -7 6 -31 48 -31 55 0 3 14 5 31 5 28 0 31 -2 25 -25 -4 -15 -2
-25 5 -25 6 0 13 9 16 20 10 39 20 19 22 -45 2 -61 7 -85 34 -142 7 -15 7 -27
0 -35 -14 -18 -62 -160 -68 -205 -3 -21 -8 -83 -10 -138 -4 -125 -3 -117 -14
-111 -5 4 -12 -7 -16 -23 -12 -55 -65 -106 -95 -92 -3 2 -48 5 -100 7 -70 4
-106 11 -136 26 -39 20 -43 26 -59 92 -30 121 -35 155 -50 349 -15 192 -13
237 10 237 17 0 72 -84 87 -133 13 -43 31 -56 52 -37 8 6 28 12 44 12 51 2 64
59 40 165 -7 30 -18 53 -25 53 -7 0 -13 6 -13 14 0 14 75 36 125 36 13 0 27 5
30 10 8 12 25 13 25 1z m211 -27 c-5 -16 -15 -58 -22 -93 -13 -62 -14 -63 -26
-35 -19 46 -16 82 8 89 16 5 19 12 15 31 -5 17 -2 24 9 24 8 0 15 5 15 12 0 6
2 9 5 6 3 -2 1 -18 -4 -34z m2139 21 c17 -9 30 -22 30 -30 0 -8 10 -19 22 -26
18 -10 20 -9 15 5 -9 24 5 20 61 -16 35 -23 52 -41 56 -61 3 -16 9 -26 14 -23
10 6 47 -53 38 -61 -3 -3 -11 6 -17 21 -7 14 -16 26 -21 26 -21 0 5 -44 48
-82 20 -18 34 -39 33 -52 0 -13 -3 -16 -6 -7 -11 26 -36 49 -49 44 -8 -3 -17
2 -20 11 -3 9 -10 14 -14 11 -13 -8 -136 113 -186 182 -57 80 -57 86 -4 58z
m-1976 -20 c-25 -19 -40 -19 -24 0 7 8 20 15 28 15 13 0 12 -3 -4 -15z m-754
-5 c0 -5 -4 -10 -10 -10 -5 0 -10 5 -10 10 0 6 5 10 10 10 6 0 10 -4 10 -10z
m710 -5 c0 -5 -22 -33 -57 -73 -13 -14 -23 -21 -23 -17 0 5 10 19 22 32 19 21
20 26 8 34 -13 9 -12 10 2 6 9 -3 19 1 22 9 5 13 26 20 26 9z m115 -5 c3 -5 3
-10 -2 -10 -4 0 -19 -3 -33 -6 -24 -6 -25 -6 -5 9 24 19 32 21 40 7z m5 -50
c0 -6 -10 -21 -22 -34 -13 -12 -47 -48 -75 -79 -50 -53 -75 -64 -50 -21 40 66
54 84 72 86 11 2 20 10 20 18 0 8 9 20 20 27 25 15 35 16 35 3z m2519 -49 c34
-64 36 -71 21 -71 -5 0 -10 7 -10 15 0 8 -4 15 -10 15 -5 0 -10 8 -10 18 0 10
-7 27 -16 38 -15 19 -15 18 -11 -4 3 -13 1 -20 -5 -16 -5 3 -8 15 -5 25 3 11
1 19 -4 19 -5 0 -9 5 -9 10 0 29 31 3 59 -49z m-4646 19 c-6 -24 -23 -37 -23
-18 0 12 18 38 26 38 1 0 0 -9 -3 -20z m4297 -19 c0 -5 15 -19 34 -30 24 -15
39 -35 50 -68 20 -58 22 -153 3 -153 -21 0 -37 22 -37 50 0 27 -29 91 -54 119
-8 9 -17 33 -21 54 -6 30 -4 37 9 37 9 0 16 -4 16 -9z m-4278 -36 c-2 -19 -8
-38 -13 -41 -5 -3 -9 -14 -9 -25 0 -10 -4 -19 -9 -19 -12 0 -8 54 5 71 6 8 14
22 17 32 10 27 13 20 9 -18z m2088 -4 c0 -13 -29 -35 -37 -28 -7 8 15 37 28
37 5 0 9 -4 9 -9z m-2144 -51 c-8 -65 -31 -132 -61 -177 -14 -20 -25 -41 -25
-47 0 -6 -16 -29 -35 -51 -46 -54 -46 -27 1 74 69 148 119 251 123 251 1 0 0
-22 -3 -50z m251 -32 c-3 -8 -6 -5 -6 6 -1 11 2 17 5 13 3 -3 4 -12 1 -19z
m4226 -167 c-2 -3 -8 0 -13 5 -11 11 -15 52 -10 114 3 41 4 38 14 -35 7 -44
11 -82 9 -84z m-2403 129 c0 -5 -4 -10 -10 -10 -5 0 -10 5 -10 10 0 6 5 10 10
10 6 0 10 -4 10 -10z m-1846 -42 c-4 -13 -7 -26 -6 -30 1 -3 -5 -12 -13 -18
-20 -16 -19 -5 3 41 18 40 29 45 16 7z m4506 -29 c7 -27 10 -53 6 -56 -3 -3
-7 0 -10 8 -2 8 -9 29 -15 48 -13 41 -14 64 -2 57 5 -3 14 -29 21 -57z m-2813
29 c-3 -8 -6 -5 -6 6 -1 11 2 17 5 13 3 -3 4 -12 1 -19z m128 3 c3 -5 1 -12
-5 -16 -5 -3 -10 1 -10 9 0 18 6 21 15 7z m-1465 -34 c0 -18 -2 -19 -10 -7
-13 20 -13 43 0 35 6 -3 10 -16 10 -28z m1340 -2 c0 -8 -4 -15 -10 -15 -5 0
-7 7 -4 15 4 8 8 15 10 15 2 0 4 -7 4 -15z m2849 -65 c0 -9 -4 -8 -9 5 -5 11
-9 27 -9 35 0 9 4 8 9 -5 5 -11 9 -27 9 -35z m-4577 -15 c-2 -24 1 -34 10 -33
10 2 13 -16 14 -69 1 -40 -3 -73 -7 -73 -5 0 -9 3 -10 8 -3 47 -14 99 -25 120
-17 33 -18 64 -2 80 17 17 22 7 20 -33z m1699 -22 c-9 -16 -10 -16 -11 4 0 12
3 30 7 40 7 16 8 16 11 -4 2 -12 -1 -30 -7 -40z m473 -15 c7 -5 5 -8 -6 -8
-13 0 -18 7 -17 28 1 21 2 22 6 7 3 -11 10 -23 17 -27z m2372 -25 c-4 -8 -1
-22 5 -30 7 -7 9 -16 5 -20 -11 -11 -18 5 -23 54 -3 39 -2 45 7 30 7 -10 9
-25 6 -34z m-86 -35 c-1 -45 -3 -58 -10 -46 -9 14 -3 108 6 108 2 0 4 -28 4
-62z m-2305 4 c-8 -9 -25 20 -18 31 3 5 10 2 15 -7 6 -10 7 -20 3 -24z m-104
-67 c-3 -5 -7 -2 -9 8 -3 15 -6 16 -20 5 -13 -11 -15 -11 -7 2 22 39 29 43 36
19 3 -13 3 -28 0 -34z m1694 25 c-3 -5 -13 -10 -21 -10 -8 0 -12 5 -9 10 3 6
13 10 21 10 8 0 12 -4 9 -10z m-4335 -45 c0 -8 -61 -37 -67 -32 -2 3 8 12 24
20 30 16 43 20 43 12z m2240 -27 c0 -12 -3 -18 -7 -14 -10 10 -11 46 -1 40 4
-3 8 -15 8 -26z m415 -17 c-3 -12 -15 -21 -26 -21 -10 0 -19 -4 -19 -10 0 -5
-9 -10 -20 -10 -23 0 -24 1 -8 35 9 20 17 25 34 21 13 -4 26 -1 29 5 11 16 18
3 10 -20z m-1441 -26 c-20 -30 -38 -28 -42 4 -3 19 0 22 16 17 13 -5 22 -1 27
11 5 11 9 14 12 6 2 -6 -3 -23 -13 -38z m-310 -5 c-3 -8 -10 -39 -14 -68 -10
-59 -17 -75 -31 -67 -12 8 -12 117 1 150 9 23 12 24 30 13 12 -8 18 -19 14
-28z m3736 -10 c0 -5 -7 -7 -15 -4 -8 4 -15 8 -15 10 0 2 7 4 15 4 8 0 15 -4
15 -10z m-2343 -32 c-3 -7 -5 -2 -5 12 0 14 2 19 5 13 2 -7 2 -19 0 -25z
m-2595 10 c-8 -8 -17 -8 -34 0 -22 10 -21 11 12 11 26 1 31 -2 22 -11z m5077
-20 c14 -39 5 -51 -9 -13 -6 15 -13 32 -16 36 -3 5 -1 9 4 9 6 0 15 -14 21
-32z m-2429 -8 c0 -5 -5 -10 -11 -10 -5 0 -7 5 -4 10 3 6 8 10 11 10 2 0 4 -4
4 -10z m2695 -37 l-7 -28 -24 30 -24 30 23 6 c30 8 41 -4 32 -38z m-175 -31
c3 -3 -1 -7 -7 -9 -18 -7 -16 -23 3 -23 10 0 13 -6 9 -19 -3 -12 0 -21 10 -25
9 -3 13 -10 10 -16 -10 -15 -25 -12 -32 8 -4 9 -17 34 -30 54 -13 21 -23 40
-23 43 0 6 52 -5 60 -13z m-2650 -9 c0 -5 -5 -15 -10 -23 -8 -12 -10 -11 -10
8 0 12 5 22 10 22 6 0 10 -3 10 -7z m128 -28 c0 -28 -22 -52 -33 -36 -5 9 21
61 30 61 1 0 3 -11 3 -25z m-171 -25 c-5 -34 -17 -35 -17 -1 0 19 4 30 10 26
5 -3 8 -15 7 -25z m2753 -16 c0 -8 5 -14 10 -14 6 0 10 5 10 11 0 20 22 -4 41
-45 24 -53 25 -86 1 -86 -26 0 -50 21 -57 51 -6 24 -4 26 19 22 20 -4 26 -1
26 12 0 13 -6 16 -23 12 -31 -8 -46 3 -54 43 -6 32 -5 34 10 21 9 -7 17 -20
17 -27z m-3263 4 c-3 -8 -6 -5 -6 6 -1 11 2 17 5 13 3 -3 4 -12 1 -19z m561
-42 c-7 -8 -15 -12 -17 -11 -5 6 10 25 20 25 5 0 4 -6 -3 -14z m2686 -32 c9
-24 7 -28 -9 -14 -17 14 -20 30 -6 30 5 0 12 -7 15 -16z m-3024 -48 c0 -14
-21 -58 -26 -54 -8 8 7 58 17 58 5 0 9 -2 9 -4z m-58 -41 c-2 -19 -9 -35 -14
-35 -6 0 -7 7 -4 16 3 9 6 24 6 35 0 10 4 19 8 19 4 0 6 -16 4 -35z m3236 0
c7 -14 12 -38 12 -53 0 -15 6 -36 13 -47 22 -31 35 -99 28 -141 l-6 -39 -18
25 c-19 27 -22 50 -8 50 5 0 12 -6 14 -12 3 -7 6 4 6 24 1 29 -2 36 -14 32 -8
-4 -15 -1 -15 6 0 6 5 8 11 4 7 -4 10 -1 7 7 -3 8 -16 13 -32 11 -18 -2 -26 2
-26 13 0 8 6 14 13 13 7 -2 13 10 15 30 2 24 -1 32 -12 32 -19 0 -21 -16 -3
-23 9 -3 9 -7 0 -17 -9 -10 -14 -4 -22 26 -14 49 -14 57 1 72 17 17 23 15 36
-13z m-3311 -87 c-3 -8 -6 -5 -6 6 -1 11 2 17 5 13 3 -3 4 -12 1 -19z m-27
-73 c0 -8 -54 -54 -58 -50 -6 5 40 55 51 55 4 0 7 -2 7 -5z m3509 -55 c0 -9
-4 -8 -9 5 -5 11 -9 27 -9 35 0 9 4 8 9 -5 5 -11 9 -27 9 -35z m-3466 34 c-8
-4 -7 -11 5 -23 9 -10 20 -16 24 -14 16 8 30 -79 31 -195 1 -117 -1 -133 -27
-197 -15 -38 -31 -72 -36 -75 -10 -7 -129 -111 -148 -130 -51 -51 -269 -230
-279 -230 -36 0 6 223 57 300 5 8 37 76 70 150 34 74 73 158 87 187 34 69 121
175 136 167 7 -4 9 -4 5 0 -11 13 52 66 77 65 6 0 5 -3 -2 -5z m65 -49 c-3 -3
-9 2 -12 12 -6 14 -5 15 5 6 7 -7 10 -15 7 -18z m3324 -95 c4 -24 1 -30 -9
-25 -8 3 -17 5 -19 5 -2 0 -4 11 -4 25 0 36 27 32 32 -5z m-3589 -15 c-3 -9
-8 -14 -10 -11 -3 3 -2 9 2 15 9 16 15 13 8 -4z m644 -27 c-3 -7 -5 -2 -5 12
0 14 2 19 5 13 2 -7 2 -19 0 -25z m-66 -68 c5 0 9 -4 9 -9 0 -5 -14 -4 -30 2
-28 11 -29 13 -13 25 15 11 19 11 21 -2 2 -9 8 -16 13 -16z m2009 -30 c0 -5
-5 -10 -11 -10 -5 0 -7 5 -4 10 3 6 8 10 11 10 2 0 4 -4 4 -10z m-2118 -40
c-12 -10 -18 -21 -14 -24 3 -4 -1 -4 -11 0 -11 4 -19 0 -23 -10 -3 -8 -21 -24
-40 -35 -19 -11 -34 -28 -34 -38 0 -10 -10 -25 -21 -33 -12 -8 -27 -21 -35
-28 -7 -7 -17 -13 -21 -14 -26 -5 -63 -24 -63 -33 0 -5 -14 -18 -30 -27 -24
-14 -29 -14 -23 -3 11 18 135 125 146 125 4 0 18 11 30 25 36 41 141 122 151
117 5 -3 0 -13 -12 -22z m2163 0 c-3 -5 -11 -10 -16 -10 -6 0 -7 5 -4 10 3 6
11 10 16 10 6 0 7 -4 4 -10z m-2293 -42 c-7 -7 -12 -8 -12 -2 0 14 12 26 19
19 2 -3 -1 -11 -7 -17z m3372 -77 c-3 -15 1 -27 12 -36 15 -10 16 -18 6 -55
-10 -42 -5 -70 14 -73 5 -1 10 -20 12 -42 7 -101 8 -222 1 -250 l-7 -30 -2 35
c-2 33 -6 69 -13 115 -2 11 -7 28 -12 38 -5 12 -2 32 9 55 10 22 12 32 5 25
-21 -20 -32 -15 -25 11 3 14 1 28 -5 31 -6 4 -7 19 -4 36 4 19 3 29 -5 29 -8
0 -9 10 -5 29 3 16 2 32 -3 35 -6 4 -7 21 -1 43 5 23 4 39 -1 41 -14 5 -12 26
2 40 10 10 14 6 20 -20 4 -18 5 -44 2 -57z m-1164 43 c0 -8 -5 -12 -10 -9 -6
4 -8 11 -5 16 9 14 15 11 15 -7z m-2696 -63 c-10 -23 -21 -41 -26 -41 -12 0
-10 5 13 50 27 52 37 45 13 -9z m3798 9 c5 -34 2 -41 -18 -33 -14 5 -19 44 -7
56 13 14 21 6 25 -23z m-1112 -14 c0 -3 -4 -8 -10 -11 -5 -3 -10 -1 -10 4 0 6
5 11 10 11 6 0 10 -2 10 -4z m-1974 -31 c-20 -15 -36 -19 -36 -10 0 5 38 23
50 24 3 0 -4 -6 -14 -14z m3070 -13 c35 -24 60 -161 32 -178 -8 -5 -9 5 -5 34
4 32 2 42 -9 42 -10 0 -14 12 -14 40 0 22 -4 40 -9 40 -5 0 -11 7 -15 15 -6
16 2 19 20 7z m-3335 -29 c-8 -15 -10 -15 -11 -2 0 17 10 32 18 25 2 -3 -1
-13 -7 -23z m307 15 c-2 -6 -10 -14 -16 -16 -7 -2 -10 2 -6 12 7 18 28 22 22
4z m-328 -18 c0 -4 -11 -7 -24 -7 -19 0 -22 2 -13 12 12 13 37 9 37 -5z m2204
4 c3 -8 2 -12 -4 -9 -6 3 -10 10 -10 16 0 14 7 11 14 -7z m-1979 -4 c-28 -12
-37 -12 -30 0 3 6 16 10 28 9 21 0 21 -1 2 -9z m15 -58 c-52 -45 -70 -56 -70
-44 0 11 103 93 109 86 2 -2 -15 -21 -39 -42z m-738 6 c-7 -7 -12 -8 -12 -2 0
14 12 26 19 19 2 -3 -1 -11 -7 -17z m478 12 c0 -5 -5 -10 -11 -10 -5 0 -7 5
-4 10 3 6 8 10 11 10 2 0 4 -4 4 -10z m-98 -27 c12 3 27 -1 36 -9 13 -14 11
-15 -21 -9 -24 5 -46 2 -68 -9 -46 -23 -47 -20 -8 20 27 28 35 32 37 19 3 -12
10 -15 24 -12z m2277 -27 c-11 -12 -14 -8 -24 24 l-7 25 20 -20 c11 -12 16
-24 11 -29z m-2197 -1 c0 -5 -5 -11 -11 -13 -6 -2 -11 4 -11 13 0 9 5 15 11
13 6 -2 11 -8 11 -13z m-140 -37 c-7 -7 -12 -8 -12 -2 0 14 12 26 19 19 2 -3
-1 -11 -7 -17z m3 -47 c3 -5 1 -12 -5 -16 -5 -3 -10 1 -10 9 0 18 6 21 15 7z
m3604 -58 c1 -13 -3 -23 -9 -23 -13 0 -24 46 -15 67 7 17 8 16 15 -2 5 -11 9
-30 9 -42z m-3662 -19 c-3 -3 -12 -4 -19 -1 -8 3 -5 6 6 6 11 1 17 -2 13 -5z
m2398 -23 c3 -5 1 -12 -5 -16 -5 -3 -10 1 -10 9 0 18 6 21 15 7z m-1863 -88
c7 -9 7 -13 0 -13 -18 0 -34 29 -27 47 7 17 8 16 13 -2 2 -11 9 -26 14 -32z
m58 37 c0 -5 -2 -10 -4 -10 -3 0 -8 5 -11 10 -3 6 -1 10 4 10 6 0 11 -4 11
-10z m3089 -45 c-1 -29 -1 -29 -9 -5 -4 14 -8 34 -9 45 -1 16 1 17 9 5 5 -8 9
-28 9 -45z m-3622 26 c10 9 13 8 13 -4 0 -8 -6 -17 -13 -20 -15 -6 -50 17 -40
27 4 3 11 2 17 -4 6 -6 14 -6 23 1z m-57 -31 c0 -5 -4 -10 -10 -10 -5 0 -10 5
-10 10 0 6 5 10 10 10 6 0 10 -4 10 -10z m368 -29 c3 -8 -1 -12 -9 -9 -7 2
-15 10 -17 17 -3 8 1 12 9 9 7 -2 15 -10 17 -17z m122 -10 c0 -10 -7 -21 -15
-24 -12 -5 -12 -2 -3 18 13 30 18 31 18 6z m-220 -8 c0 -14 -19 -38 -25 -32
-8 8 5 39 16 39 5 0 9 -3 9 -7z m120 -14 c0 -14 -19 -21 -40 -14 -33 10 -24
32 10 27 17 -2 30 -8 30 -13z m140 12 c0 -6 -4 -13 -10 -16 -5 -3 -10 1 -10 9
0 9 5 16 10 16 6 0 10 -4 10 -9z m-221 -61 c0 -33 -17 -89 -18 -62 -1 6 -4 11
-8 10 -19 -5 -53 28 -52 52 0 14 3 19 6 13 3 -8 14 -11 30 -7 24 6 25 5 19
-22 -5 -24 -4 -26 5 -10 6 10 9 34 5 55 -4 25 -2 31 4 21 5 -8 9 -31 9 -50z
m2271 56 c0 -3 -4 -8 -10 -11 -5 -3 -10 -1 -10 4 0 6 5 11 10 11 6 0 10 -2 10
-4z m-2509 -55 c-11 -20 -165 -146 -246 -202 -27 -19 -52 -37 -55 -40 -10 -13
-215 -149 -223 -149 -5 0 46 39 114 87 68 47 136 95 150 107 14 12 41 32 59
46 67 49 177 139 190 154 17 22 23 20 11 -3z m281 -33 c-8 -8 -12 -9 -12 -1 0
6 -3 20 -6 30 -7 17 -6 17 12 1 14 -14 16 -20 6 -30z m2185 -30 c-3 -8 -6 -5
-6 6 -1 11 2 17 5 13 3 -3 4 -12 1 -19z m-2197 -3 c0 -8 -2 -15 -4 -15 -2 0
-6 7 -10 15 -3 8 -1 15 4 15 6 0 10 -7 10 -15z m-58 -72 c-2 -13 -8 -23 -13
-23 -11 0 -11 7 -2 51 5 26 8 29 13 14 4 -10 5 -29 2 -42z m-242 32 c-7 -9
-15 -13 -19 -10 -3 3 1 10 9 15 21 14 24 12 10 -5z m-46 -36 c-10 -11 -37 -33
-59 -48 -90 -61 -85 -50 10 23 67 51 77 56 49 25z m40 -33 c-3 -14 -11 -26
-16 -26 -6 0 -6 -6 1 -14 14 -17 5 -62 -14 -69 -9 -4 -13 10 -14 53 -1 50 2
61 21 74 27 19 31 16 22 -18z m3506 20 c0 -3 -4 -8 -10 -11 -5 -3 -10 -1 -10
4 0 6 5 11 10 11 6 0 10 -2 10 -4z m-3385 -46 c3 -5 1 -10 -4 -10 -6 0 -11 5
-11 10 0 6 2 10 4 10 3 0 8 -4 11 -10z m-325 -65 c-13 -14 -28 -25 -34 -25 -6
0 3 11 19 25 39 31 45 32 15 0z m109 -2 c7 -15 7 -23 1 -23 -6 0 -10 -5 -10
-11 0 -5 6 -7 13 -3 8 5 8 3 -1 -7 -11 -12 -15 -11 -27 5 -8 10 -25 19 -39 20
l-25 1 21 22 c25 27 54 26 67 -4z m3751 -3 c0 -5 -2 -10 -4 -10 -3 0 -8 5 -11
10 -3 6 -1 10 4 10 6 0 11 -4 11 -10z m-3925 -40 c-10 -11 -23 -20 -29 -20 -6
0 0 9 14 20 32 25 38 25 15 0z m34 -56 c-12 -15 -20 -83 -11 -98 3 -5 11 2 18
15 8 14 13 18 13 9 0 -8 -6 -26 -14 -40 -11 -19 -14 -21 -15 -7 0 9 -4 17 -10
17 -5 0 -10 -8 -11 -17 0 -15 -2 -15 -9 2 -12 28 -12 37 2 29 7 -4 8 -3 4 4
-4 6 -2 21 5 33 9 18 9 21 -3 17 -23 -9 -10 60 16 78 19 13 21 13 24 -6 2 -12
-2 -28 -9 -36z m61 52 c0 -2 -7 -9 -15 -16 -13 -11 -14 -10 -9 4 5 14 24 23
24 12z m79 -81 c-7 -7 -13 -5 -19 5 -15 24 -11 31 10 18 13 -9 16 -16 9 -23z
m-73 0 c2 -28 0 -29 -27 -15 -31 17 -25 28 21 39 3 0 6 -10 6 -24z m2536 -24
c-6 -14 -7 -14 -10 2 -2 9 -8 17 -13 17 -5 0 -9 5 -9 10 0 6 7 6 19 -2 12 -7
17 -18 13 -27z m-2881 6 c-10 -9 -11 -8 -5 6 3 10 9 15 12 12 3 -3 0 -11 -7
-18z m178 -11 c6 -7 9 -21 5 -30 -4 -11 -1 -16 11 -16 14 0 15 -3 5 -15 -10
-12 -9 -15 4 -15 10 0 14 -4 11 -10 -8 -12 -65 29 -65 47 0 7 -11 13 -25 13
-29 0 -32 8 -7 26 22 17 47 17 61 0z m227 -6 c9 0 13 -4 9 -10 -9 -14 -35 0
-34 19 0 10 2 11 6 4 2 -7 11 -13 19 -13z m-446 -11 c-14 -11 -47 -35 -75 -53
-27 -18 -49 -38 -48 -44 2 -6 -3 -9 -10 -6 -14 5 -40 -13 -133 -90 -97 -81
-163 -149 -157 -159 3 -6 1 -7 -5 -3 -6 4 -20 -1 -31 -11 -10 -10 -42 -38 -70
-63 -28 -24 -51 -50 -51 -57 0 -7 -4 -13 -10 -13 -5 0 -12 -16 -16 -35 -4 -25
-18 -45 -47 -67 -23 -18 -54 -45 -69 -60 -16 -15 -36 -29 -46 -32 -9 -3 -26
-19 -37 -36 -11 -16 -25 -31 -30 -32 -6 -2 -49 -46 -95 -98 -47 -52 -96 -106
-110 -121 -36 -37 -145 -160 -168 -189 -38 -49 -115 -192 -128 -238 l-14 -47
4 43 c5 46 45 133 104 222 48 72 43 66 222 260 164 177 232 243 319 310 44 35
78 66 76 71 -3 4 -1 10 5 14 5 3 10 15 10 25 0 10 20 40 45 67 24 26 45 53 45
60 0 7 6 10 13 8 7 -3 50 29 97 72 47 42 90 80 95 85 6 4 39 32 75 63 36 30
68 55 72 55 4 0 34 20 67 45 32 25 63 45 69 45 5 0 15 7 22 15 7 8 18 15 24
15 6 0 0 -9 -14 -21z m-950 -29 c0 -16 -33 -80 -42 -80 -12 0 -10 16 6 55 14
32 36 48 36 25z m1320 3 c-1 -5 -8 -19 -16 -33 -8 -14 -13 -17 -10 -7 3 10 6
25 6 33 0 8 5 14 10 14 6 0 10 -3 10 -7z m-285 -20 c-4 -10 -10 -29 -12 -43
-23 -131 -43 -158 -43 -56 0 49 5 69 21 90 23 30 45 35 34 9z m65 10 c-8 -3
-18 -11 -22 -17 -9 -14 -22 -1 -13 13 3 6 16 11 28 10 15 0 17 -2 7 -6z m1727
-35 c-3 -8 -6 -5 -6 6 -1 11 2 17 5 13 3 -3 4 -12 1 -19z m-1707 2 c0 -5 -5
-10 -11 -10 -5 0 -7 5 -4 10 3 6 8 10 11 10 2 0 4 -4 4 -10z m2690 -10 c0 -13
-7 -20 -20 -20 -19 0 -19 1 -2 19 22 25 22 25 22 1z m-2880 5 c0 -2 -10 -9
-22 -15 -22 -11 -22 -10 -4 4 21 17 26 19 26 11z m154 -15 c9 0 13 -28 7 -59
-1 -3 -12 6 -26 19 -28 27 -34 56 -9 46 9 -3 21 -6 28 -6z m86 -32 c0 -14 -18
-9 -24 8 -11 28 -6 39 9 20 8 -11 15 -23 15 -28z m2440 28 c0 -3 -4 -8 -10
-11 -5 -3 -10 -1 -10 4 0 6 5 11 10 11 6 0 10 -2 10 -4z m-2750 -30 c0 -2 -7
-6 -15 -10 -8 -3 -15 -1 -15 4 0 6 7 10 15 10 8 0 15 -2 15 -4z m69 -31 c2
-11 8 -23 14 -27 14 -8 17 -48 4 -48 -16 0 -47 31 -47 47 0 13 -19 18 -50 13
-11 -1 -10 3 5 19 24 27 68 25 74 -4z m231 -2 c0 -20 -34 -12 -38 9 -2 12 2
15 17 11 12 -3 21 -12 21 -20z m3185 7 c3 -5 -1 -10 -9 -10 -9 0 -16 5 -16 10
0 6 4 10 9 10 6 0 13 -4 16 -10z m-3311 -44 c-6 -25 -24 -37 -24 -15 0 15 21
52 26 46 3 -3 2 -16 -2 -31z m-254 14 c0 -5 -5 -10 -11 -10 -5 0 -7 5 -4 10 3
6 8 10 11 10 2 0 4 -4 4 -10z m287 -12 c-3 -8 -6 -5 -6 6 -1 11 2 17 5 13 3
-3 4 -12 1 -19z m-193 -58 c-12 -63 -19 -68 -52 -32 -17 18 -32 32 -34 32 -3
0 -5 -20 -6 -45 0 -25 4 -45 9 -45 5 0 9 5 9 12 0 6 2 9 5 6 3 -3 2 -18 -1
-35 -5 -24 -11 -30 -30 -30 -23 0 -25 3 -23 41 1 22 0 46 -1 51 -7 27 2 57 25
82 23 26 24 26 25 7 0 -12 10 -25 25 -32 35 -16 35 -16 35 13 0 19 -4 23 -17
18 -16 -6 -16 -5 -4 11 14 17 15 17 28 0 8 -12 11 -31 7 -54z m3436 51 c0 -3
-4 -12 -8 -19 -6 -9 -12 -6 -20 12 -9 21 -8 23 9 19 10 -3 19 -8 19 -12z
m-4390 -1 c0 -5 -5 -10 -11 -10 -5 0 -7 5 -4 10 3 6 8 10 11 10 2 0 4 -4 4
-10z m1202 -32 c-18 -18 -30 -5 -20 22 9 23 10 24 20 7 7 -13 7 -22 0 -29z
m1258 32 c0 -5 -5 -10 -11 -10 -5 0 -7 5 -4 10 3 6 8 10 11 10 2 0 4 -4 4 -10z
m1990 -16 c0 -8 -4 -14 -10 -14 -5 0 -10 9 -10 21 0 11 5 17 10 14 6 -3 10
-13 10 -21z m-115 6 c3 -5 1 -10 -4 -10 -6 0 -11 5 -11 10 0 6 2 10 4 10 3 0
8 -4 11 -10z m-3516 -3 c-2 -1 -15 -11 -29 -22 l-25 -20 19 23 c11 12 24 22
29 22 6 0 8 -1 6 -3z m3601 -11 c0 -3 -4 -8 -10 -11 -5 -3 -10 -1 -10 4 0 6 5
11 10 11 6 0 10 -2 10 -4z m-3400 -43 c0 -20 -34 -12 -38 9 -2 12 2 15 17 11
12 -3 21 -12 21 -20z m1467 5 c-3 -8 -6 -5 -6 6 -1 11 2 17 5 13 3 -3 4 -12 1
-19z m-2497 2 c0 -5 -5 -10 -11 -10 -5 0 -7 5 -4 10 3 6 8 10 11 10 2 0 4 -4
4 -10z m740 -25 c-19 -19 -39 -35 -44 -35 -10 0 63 69 73 70 3 0 -10 -16 -29
-35z m3700 9 c0 -8 -4 -12 -10 -9 -5 3 -10 13 -10 21 0 8 5 12 10 9 6 -3 10
-13 10 -21z m-57 -5 c-6 -6 -18 -6 -28 -3 -18 7 -18 8 1 14 23 9 39 1 27 -11z
m-4408 -55 c-17 -34 -20 -18 -4 23 6 15 13 23 15 17 3 -6 -2 -24 -11 -40z
m1019 40 c9 -3 16 -13 16 -21 0 -20 -34 -12 -38 10 -4 19 -1 20 22 11z m-196
-31 c2 -13 8 -23 14 -23 6 0 8 -9 5 -20 -3 -11 0 -20 6 -20 8 0 7 -4 -1 -12
-9 -9 -16 -7 -32 7 -11 10 -20 24 -20 32 0 7 -11 13 -25 13 -28 0 -29 3 -14
31 15 29 63 22 67 -8z m3537 16 c11 -17 -1 -21 -15 -4 -8 9 -8 15 -2 15 6 0
14 -5 17 -11z m975 -30 c0 -6 -4 -7 -10 -4 -5 3 -10 11 -10 16 0 6 5 7 10 4 6
-3 10 -11 10 -16z m-4700 -69 c-41 -38 -76 -67 -79 -65 -2 2 30 35 70 74 41
38 76 67 79 64 3 -3 -29 -36 -70 -73z m315 40 c-4 -17 -9 -29 -12 -26 -3 2 -2
19 2 36 4 17 9 29 12 26 3 -2 2 -19 -2 -36z m54 -23 c-6 -10 -16 -16 -22 -14
-14 5 -10 39 6 49 17 10 27 -13 16 -35z m-253 8 c-31 -29 -32 -35 -7 -35 11 0
22 8 25 18 3 9 3 -5 1 -32 -3 -27 -7 -52 -10 -54 -8 -8 -45 30 -45 45 0 8 -6
13 -12 11 -7 -3 -13 -10 -12 -16 1 -7 2 -25 3 -42 1 -22 5 -28 16 -24 20 8 20
-26 0 -52 -14 -19 -14 -19 -15 1 l-1 20 -8 -20 c-7 -17 -9 -15 -16 15 -15 69
-10 140 14 163 l21 21 0 -24 1 -25 17 28 c9 15 25 27 36 27 17 0 16 -3 -8 -25z
m3054 4 c0 -5 -4 -9 -10 -9 -5 0 -10 7 -10 16 0 8 5 12 10 9 6 -3 10 -10 10
-16z m540 -24 c0 -5 -5 -3 -10 5 -5 8 -10 20 -10 25 0 6 5 3 10 -5 5 -8 10
-19 10 -25z m70 -11 c0 -8 -4 -14 -10 -14 -5 0 -10 9 -10 21 0 11 5 17 10 14
6 -3 10 -13 10 -21z m-3591 -13 c8 -5 11 -16 8 -25 -7 -17 -27 -22 -27 -7 0 5
-3 16 -6 25 -7 18 4 20 25 7z m3226 -1 c3 -5 1 -10 -4 -10 -6 0 -11 5 -11 10
0 6 2 10 4 10 3 0 8 -4 11 -10z m-1919 -27 c-10 -10 -19 5 -10 18 6 11 8 11
12 0 2 -7 1 -15 -2 -18z m3204 6 c0 -11 -4 -17 -10 -14 -5 3 -10 13 -10 21 0
8 5 14 10 14 6 0 10 -9 10 -21z m-4526 -25 c23 -9 20 -34 -4 -34 -13 0 -20 7
-20 20 0 22 1 23 24 14z m-287 -37 c-24 -19 -27 -27 -21 -54 8 -39 19 -42 28
-8 6 24 46 37 46 15 0 -5 -6 -10 -12 -10 -7 0 -18 -11 -25 -25 -12 -28 -2 -33
21 -10 22 22 26 19 26 -22 0 -54 -10 -65 -38 -43 -12 10 -22 23 -22 29 0 5 -5
13 -11 16 -15 10 1 -66 18 -84 8 -7 12 -20 9 -28 -3 -8 -6 -21 -6 -28 0 -23
-39 -29 -61 -9 -10 9 -19 23 -19 30 0 7 -14 16 -32 19 l-32 7 23 19 c33 27 45
24 63 -13 15 -32 16 -31 14 59 -1 72 -4 89 -13 81 -7 -6 -13 -8 -13 -4 0 22
69 100 80 90 2 -3 -8 -15 -23 -27z m103 -1 c5 -13 13 -25 18 -27 12 -5 25 -59
14 -59 -17 0 -62 41 -62 56 0 8 -10 14 -25 14 -27 0 -32 9 -13 28 21 21 58 14
68 -12z m3134 -1 c3 -8 1 -15 -4 -15 -6 0 -10 7 -10 15 0 8 2 15 4 15 2 0 6
-7 10 -15z m653 -7 c-3 -8 -6 -5 -6 6 -1 11 2 17 5 13 3 -3 4 -12 1 -19z
m-3667 -33 c0 -19 -4 -35 -10 -35 -5 0 -8 10 -6 23 3 12 5 28 5 35 2 28 11 9
11 -23z m55 -12 c-4 -16 -8 -30 -10 -31 -8 -8 -25 10 -25 27 0 21 9 31 28 31
10 0 12 -7 7 -27z m-345 -72 c-6 -12 -14 -21 -18 -21 -4 0 -19 -10 -34 -23
-14 -12 -36 -29 -48 -37 -39 -28 -126 -114 -196 -195 -38 -44 -73 -85 -79 -91
-5 -6 -37 -41 -70 -79 -33 -37 -71 -79 -84 -94 -55 -61 -171 -272 -171 -312 0
-10 -4 -20 -9 -23 -4 -3 -5 12 -1 34 9 51 92 213 137 268 20 25 32 49 29 58
-3 9 -1 14 7 12 24 -6 203 194 191 213 -4 8 -3 9 4 5 7 -4 35 18 69 55 101
110 117 124 196 182 42 32 77 63 77 69 0 6 3 9 6 6 3 -4 1 -16 -6 -27z m174
23 c9 -3 16 -13 16 -21 0 -20 -34 -12 -38 10 -4 19 -1 20 22 11z m3343 -26
c-3 -8 -6 -5 -6 6 -1 11 2 17 5 13 3 -3 4 -12 1 -19z m-3341 -32 c15 -12 16
-17 7 -27 -10 -10 -15 -9 -28 1 -16 13 -21 40 -7 40 5 0 17 -6 28 -14z m3049
-36 c3 -5 1 -10 -4 -10 -6 0 -11 5 -11 10 0 6 2 10 4 10 3 0 8 -4 11 -10z
m-3119 -78 c-12 -11 -15 5 -8 44 l7 39 3 -39 c2 -21 1 -41 -2 -44z m3416 56
c-7 -7 -12 -8 -12 -2 0 14 12 26 19 19 2 -3 -1 -11 -7 -17z m-3365 -33 c1 -40
-2 -43 -17 -14 -9 15 -8 24 1 35 15 19 15 19 16 -21z m-176 -4 c9 -22 4 -94
-8 -114 -8 -14 -63 51 -63 75 0 30 24 65 45 65 9 0 21 -12 26 -26z m-77 -3
c-8 -27 -8 -118 1 -126 3 -4 10 0 15 8 7 11 10 7 10 -17 0 -42 -9 -63 -25 -57
-7 3 -16 1 -20 -5 -11 -19 -50 -12 -65 12 -8 12 -13 25 -12 30 1 4 -6 7 -15 7
-45 1 -53 42 -11 56 21 6 47 -19 48 -48 0 -11 6 -15 21 -11 17 5 20 11 15 37
-12 59 -12 81 1 109 17 34 48 38 37 5z m146 -62 c0 -20 -12 -27 -27 -15 -20
18 -16 38 7 32 11 -3 20 -11 20 -17z m-20 -41 c14 -17 5 -36 -15 -28 -16 6
-21 43 -6 43 5 0 14 -7 21 -15z m3094 -20 c-4 -8 -8 -15 -10 -15 -2 0 -4 7 -4
15 0 8 4 15 10 15 5 0 7 -7 4 -15z m396 -5 c0 -5 -4 -10 -10 -10 -5 0 -10 5
-10 10 0 6 5 10 10 10 6 0 10 -4 10 -10z m735 0 c3 -5 1 -10 -4 -10 -6 0 -11
5 -11 10 0 6 2 10 4 10 3 0 8 -4 11 -10z m-4293 -22 c6 -18 -3 -68 -13 -68 -5
0 -9 18 -9 40 0 37 13 55 22 28z m4005 -30 c-3 -7 -5 -2 -5 12 0 14 2 19 5 13
2 -7 2 -19 0 -25z m-4187 6 c0 -8 -4 -12 -10 -9 -5 3 -10 -1 -10 -9 0 -8 5
-18 10 -21 6 -3 10 -1 10 4 0 6 5 11 11 11 5 0 8 -4 5 -9 -3 -4 -1 -23 4 -42
15 -52 -5 -61 -41 -21 -29 32 -55 39 -30 8 8 -9 10 -24 6 -37 -6 -17 -4 -21 8
-16 11 4 19 -3 26 -24 12 -34 22 -39 14 -6 -4 15 -2 19 5 12 6 -5 12 -23 14
-40 2 -25 0 -29 -17 -27 -11 2 -21 8 -23 13 -2 5 -10 9 -17 9 -8 0 -18 7 -23
16 -8 14 -10 14 -21 0 -20 -24 -49 -20 -53 7 -2 16 -11 23 -30 25 -30 4 -33 9
-18 32 8 13 11 13 19 1 5 -7 14 -11 20 -7 5 4 16 -2 23 -14 7 -11 18 -20 25
-20 17 0 27 39 13 55 -16 20 -17 80 -1 99 13 15 15 15 26 0 11 -15 12 -15 18
5 6 24 37 29 37 5z m240 -3 c0 -25 -10 -51 -20 -51 -12 0 -21 31 -15 51 8 25
35 24 35 0z m3928 -49 c2 -7 -2 -10 -12 -6 -9 3 -16 11 -16 16 0 13 23 5 28
-10z m-4092 -47 c2 -47 -2 -56 -21 -49 -20 8 -16 95 5 92 10 -2 15 -16 16 -43z
m3591 13 c-3 -8 -6 -5 -6 6 -1 11 2 17 5 13 3 -3 4 -12 1 -19z m523 -3 c0 -8
-2 -15 -4 -15 -2 0 -6 7 -10 15 -3 8 -1 15 4 15 6 0 10 -7 10 -15z m-543 -27
c-3 -7 -5 -2 -5 12 0 14 2 19 5 13 2 -7 2 -19 0 -25z m-3867 -78 c0 -11 4 -20
9 -20 5 0 11 9 14 20 3 11 12 20 21 20 18 0 21 -15 6 -25 -5 -3 -10 -13 -10
-21 0 -8 5 -14 10 -14 6 0 10 7 10 15 0 20 7 19 37 -5 14 -11 32 -20 39 -20 8
0 14 -3 15 -7 0 -5 2 -27 4 -49 3 -37 1 -41 -16 -37 -18 5 -24 19 -21 56 1 9
-2 17 -7 17 -12 0 -23 -77 -15 -116 7 -36 3 -40 -26 -24 -24 13 -85 -7 -71
-24 5 -6 10 -29 12 -51 3 -42 -13 -51 -38 -19 -7 10 -13 12 -18 5 -4 -8 -11
-6 -21 4 -16 16 -44 20 -44 7 0 -13 40 -43 50 -37 10 6 45 -54 36 -63 -3 -3
-18 0 -32 7 -42 19 -54 1 -36 -54 15 -47 9 -71 -11 -45 -14 17 -76 42 -88 34
-4 -2 -15 8 -22 23 -18 36 -32 80 -22 71 16 -15 34 13 28 44 -6 29 -5 30 18
18 13 -8 29 -20 36 -29 18 -26 28 -3 14 32 -7 18 -15 52 -17 77 -4 41 -3 43
11 26 13 -18 14 -17 20 7 4 14 4 30 1 35 -3 5 1 17 8 28 13 17 16 17 42 4 15
-8 29 -23 32 -32 2 -10 8 -18 13 -18 15 0 21 47 9 69 -6 12 -8 21 -4 21 3 0 1
7 -6 15 -10 12 -10 21 0 45 14 34 30 40 30 10z m292 -39 c-5 -11 -8 -7 -13 14
-4 17 -7 24 -8 16 0 -8 -4 -12 -7 -8 -4 3 -3 14 0 24 7 16 9 15 21 -6 7 -14
10 -32 7 -40z m-122 20 c0 -14 -18 -23 -30 -16 -6 4 -8 11 -5 16 8 12 35 12
35 0z m3667 -63 c-3 -7 -5 -2 -5 12 0 14 2 19 5 13 2 -7 2 -19 0 -25z m563 12
c0 -5 -2 -10 -4 -10 -3 0 -8 5 -11 10 -3 6 -1 10 4 10 6 0 11 -4 11 -10z
m-4250 -130 c0 -16 -4 -30 -10 -30 -5 0 -10 3 -10 8 0 4 -3 17 -6 30 -5 16 -2
22 10 22 11 0 16 -9 16 -30z m3680 1 c0 -11 -4 -23 -10 -26 -6 -4 -9 5 -8 19
3 30 18 35 18 7z m-103 -53 c-3 -7 -5 -2 -5 12 0 14 2 19 5 13 2 -7 2 -19 0
-25z m116 -39 c-6 -6 -15 -4 -23 6 -11 13 -10 14 4 9 11 -4 16 0 17 12 1 19 1
19 6 0 3 -10 1 -22 -4 -27z m-43 -29 c0 -5 -2 -10 -4 -10 -3 0 -8 5 -11 10 -3
6 -1 10 4 10 6 0 11 -4 11 -10z m-3783 -83 c-3 -7 -6 -5 -6 6 -1 9 -5 17 -11
17 -5 0 -10 8 -10 17 0 14 3 13 16 -5 8 -12 13 -28 11 -35z m4425 -37 c21 -19
20 -22 -12 -24 -10 -1 -14 -11 -13 -31 l2 -30 -14 25 c-7 14 -9 27 -4 28 5 2
9 15 9 28 0 29 5 30 32 4z m-2422 -4 c0 -3 -4 -8 -10 -11 -5 -3 -10 -1 -10 4
0 6 5 11 10 11 6 0 10 -2 10 -4z m2060 -41 c0 -14 -4 -25 -9 -25 -10 0 -21 36
-13 44 12 13 22 5 22 -19z m-4379 -35 c5 0 12 6 15 14 3 8 17 13 37 11 18 -2
38 2 45 7 6 6 12 7 12 2 0 -5 4 -3 9 5 10 16 31 6 31 -14 0 -8 -8 -14 -17 -13
-33 2 -63 -2 -63 -10 0 -4 9 -13 21 -20 18 -11 23 -11 34 5 7 10 16 15 19 12
4 -3 -2 -17 -12 -30 -17 -20 -18 -25 -4 -38 13 -13 13 -16 -1 -20 -13 -5 -13
-11 4 -45 10 -22 19 -47 19 -55 0 -9 11 -38 25 -65 26 -52 31 -76 16 -76 -5 0
-3 -13 5 -30 10 -18 13 -39 8 -52 -10 -32 -11 -88 -2 -82 14 9 9 -9 -9 -28 -9
-10 -13 -21 -9 -26 4 -4 15 2 23 13 16 20 16 20 8 0 -4 -11 -10 -30 -12 -42
-3 -13 -9 -23 -14 -23 -5 0 -9 -11 -9 -25 0 -14 -25 -82 -55 -153 -96 -221
-96 -292 -1 -378 30 -27 71 -62 90 -77 19 -15 37 -41 41 -57 4 -17 17 -51 31
-76 13 -25 24 -50 24 -55 0 -12 36 -64 70 -101 45 -48 60 -72 62 -98 1 -14 3
-38 5 -55 1 -16 4 -50 5 -75 2 -25 7 -51 11 -58 5 -7 5 -18 0 -25 -5 -7 -8
-39 -7 -72 0 -33 -3 -68 -8 -78 -6 -11 -6 -23 0 -30 6 -7 9 -46 7 -87 -2 -41
-1 -78 2 -83 10 -16 11 -117 1 -123 -5 -4 -7 -21 -4 -39 4 -19 3 -36 -2 -39
-5 -3 -9 -19 -10 -35 0 -16 -12 -47 -26 -69 -13 -22 -21 -43 -16 -48 9 -10 -4
-123 -20 -169 -7 -20 -7 -31 0 -33 5 -2 10 -8 10 -14 0 -6 -7 -7 -16 -4 -13 5
-15 2 -11 -14 3 -13 -3 -26 -19 -39 -13 -10 -24 -25 -24 -32 0 -7 -6 -20 -14
-28 -20 -22 -31 -71 -17 -71 6 0 11 -4 11 -10 0 -13 -37 -13 -45 0 -10 17 -25
11 -36 -12 -5 -13 -21 -38 -34 -57 -14 -18 -22 -37 -20 -42 3 -4 1 -10 -5 -14
-5 -3 -10 -21 -10 -39 0 -19 -7 -39 -15 -46 -8 -7 -13 -16 -10 -20 8 -13 -6
-40 -21 -40 -8 0 -14 -4 -14 -10 0 -5 7 -10 15 -10 20 0 19 -24 -1 -44 -8 -9
-12 -21 -9 -26 4 -6 2 -16 -3 -23 -9 -10 -13 -32 -26 -122 -2 -11 0 -34 5 -52
4 -18 3 -36 -2 -39 -5 -3 -6 -10 -3 -16 5 -8 1 -9 -12 -3 -35 15 -226 14 -263
-1 -18 -8 -43 -14 -55 -14 -11 0 -56 -18 -99 -40 -43 -22 -79 -40 -81 -40 -10
0 3 103 13 109 7 5 12 11 12 15 -5 34 2 67 19 86 22 26 25 42 10 70 -7 14 -6
23 5 34 8 8 15 30 15 48 0 18 7 44 16 56 10 14 14 32 10 48 -7 25 19 130 34
139 4 3 4 20 0 39 -4 18 -3 41 2 50 6 10 8 27 5 38 -3 11 1 35 10 53 15 31 15
35 0 50 -15 15 -15 18 -1 40 10 15 12 25 5 30 -15 8 -13 46 2 67 13 16 13 47
2 303 -1 44 -9 95 -16 113 -11 26 -11 36 -1 52 15 24 16 47 1 52 -7 2 -7 12 1
32 8 21 8 38 0 59 -7 21 -7 34 1 43 8 10 8 18 1 27 -14 18 -21 116 -9 120 14
4 10 169 -4 178 -6 4 -4 22 5 50 9 24 16 54 16 65 0 12 7 27 15 34 15 13 21
50 8 50 -5 0 -8 54 -8 119 0 66 3 123 8 127 4 4 7 16 7 27 0 12 5 35 12 53 9
27 9 35 -5 49 -10 9 -17 20 -17 25 0 20 13 40 27 40 10 0 13 6 9 15 -3 8 -9
22 -12 30 -4 11 0 15 15 15 26 0 38 25 21 45 -10 12 -10 18 0 30 10 13 15 13
21 3 4 -7 11 -9 16 -4 4 4 0 12 -9 17 -11 6 -15 19 -13 37 2 15 4 35 4 45 1 9
8 17 16 17 8 0 15 8 15 19 0 10 7 32 15 47 18 35 19 56 4 71 -8 8 -7 17 5 34
9 13 13 32 10 45 -3 12 -1 25 5 28 5 4 8 13 5 20 -3 8 -1 17 5 21 6 3 11 26
11 50 0 24 5 56 10 71 8 20 8 29 -1 34 -8 5 -8 10 -1 14 6 4 9 13 5 21 -3 8 0
15 6 15 6 0 11 5 11 11 0 5 -4 8 -9 4 -18 -11 -23 16 -7 40 9 13 16 40 16 59
0 19 5 38 10 41 6 3 10 17 10 30 0 13 5 27 10 30 6 3 10 16 10 28 0 18 -2 20
-11 7 -9 -12 -9 -11 -4 5 8 23 11 34 21 90 7 35 8 37 12 13 2 -16 8 -28 13
-28z m179 -2 c0 -25 -3 -29 -10 -18 -13 20 -13 50 0 50 6 0 10 -15 10 -32z
m3840 22 c0 -5 -5 -10 -11 -10 -5 0 -7 5 -4 10 3 6 8 10 11 10 2 0 4 -4 4 -10z
m-86 -36 c5 -14 4 -15 -9 -4 -17 14 -19 20 -6 20 5 0 12 -7 15 -16z m436 -74
c0 -5 -2 -10 -4 -10 -3 0 -8 5 -11 10 -3 6 -1 10 4 10 6 0 11 -4 11 -10z m-3
-46 c-3 -3 -12 -4 -19 -1 -8 3 -5 6 6 6 11 1 17 -2 13 -5z m-397 -168 c-13
-13 -35 7 -25 24 5 8 11 8 21 -1 10 -8 12 -15 4 -23z m-145 4 c3 -5 2 -10 -4
-10 -5 0 -13 5 -16 10 -3 6 -2 10 4 10 5 0 13 -4 16 -10z m532 -102 c-3 -8 -6
-5 -6 6 -1 11 2 17 5 13 3 -3 4 -12 1 -19z m-50 -190 c-3 -8 -6 -5 -6 6 -1 11
2 17 5 13 3 -3 4 -12 1 -19z m-601 -35 c-10 -10 -19 5 -10 18 6 11 8 11 12 0
2 -7 1 -15 -2 -18z m-3869 -85 c-2 -13 -4 -3 -4 22 0 25 2 35 4 23 2 -13 2
-33 0 -45z m4477 17 c3 -10 -1 -15 -14 -15 -20 0 -33 13 -23 24 11 11 31 6 37
-9z m-660 -20 c3 -8 1 -15 -4 -15 -6 0 -10 7 -10 15 0 8 2 15 4 15 2 0 6 -7
10 -15z m1 -64 c3 -5 1 -12 -5 -16 -5 -3 -10 1 -10 9 0 18 6 21 15 7z m658
-41 c3 -11 1 -18 -4 -14 -5 3 -9 12 -9 20 0 20 7 17 13 -6z m-37 -97 c-10 -10
-19 5 -10 18 6 11 8 11 12 0 2 -7 1 -15 -2 -18z m-741 -43 c3 -5 1 -10 -4 -10
-6 0 -11 5 -11 10 0 6 2 10 4 10 3 0 8 -4 11 -10z m705 -120 c0 -5 -2 -10 -4
-10 -3 0 -8 5 -11 10 -3 6 -1 10 4 10 6 0 11 -4 11 -10z m-1010 -301 c0 -6 -4
-7 -10 -4 -5 3 -10 11 -10 16 0 6 5 7 10 4 6 -3 10 -11 10 -16z m1080 -39 c0
-13 -1 -13 -10 0 -5 8 -10 22 -10 30 0 13 1 13 10 0 5 -8 10 -22 10 -30z
m-1142 -35 c-3 -3 -9 2 -12 12 -6 14 -5 15 5 6 7 -7 10 -15 7 -18z m-78 -85
c0 -5 -5 -10 -11 -10 -5 0 -7 5 -4 10 3 6 8 10 11 10 2 0 4 -4 4 -10z m1172
-32 c-8 -8 -9 -4 -5 13 4 13 8 18 11 10 2 -7 -1 -18 -6 -23z m-252 -38 c0 -5
-2 -10 -4 -10 -3 0 -8 5 -11 10 -3 6 -1 10 4 10 6 0 11 -4 11 -10z m240 -6 c0
-8 -4 -12 -10 -9 -5 3 -10 10 -10 16 0 5 5 9 10 9 6 0 10 -7 10 -16z m38 -88
c-2 -2 -14 3 -28 11 -14 7 -19 13 -12 13 6 0 12 10 13 23 0 18 3 17 15 -12 8
-18 14 -34 12 -35z m-138 -57 c0 -5 -7 -6 -15 -3 -8 4 -15 13 -15 21 0 13 3
13 15 3 8 -7 15 -16 15 -21z m-113 -11 c-3 -8 -6 -5 -6 6 -1 11 2 17 5 13 3
-3 4 -12 1 -19z m93 -12 c0 -3 -4 -8 -10 -11 -5 -3 -10 -1 -10 4 0 6 5 11 10
11 6 0 10 -2 10 -4z m54 -85 c-11 -12 -21 18 -16 49 l6 35 7 -40 c4 -22 5 -42
3 -44z m-24 39 c0 -5 -2 -10 -4 -10 -3 0 -8 5 -11 10 -3 6 -1 10 4 10 6 0 11
-4 11 -10z m-29 -51 c-6 -16 -10 -18 -10 -7 -1 22 12 55 16 42 2 -6 -1 -22 -6
-35z m-1157 15 c3 -8 2 -12 -4 -9 -6 3 -10 10 -10 16 0 14 7 11 14 -7z m1086
-35 c0 -6 -4 -7 -10 -4 -5 3 -10 11 -10 16 0 6 5 7 10 4 6 -3 10 -11 10 -16z
m-20 -106 c0 -8 -8 -5 -20 7 -11 11 -20 22 -20 25 0 3 9 0 20 -7 11 -7 20 -18
20 -25z m150 -28 c0 -8 -4 -15 -10 -15 -5 0 -7 7 -4 15 4 8 8 15 10 15 2 0 4
-7 4 -15z m-250 -35 c0 -5 -2 -10 -4 -10 -3 0 -8 5 -11 10 -3 6 -1 10 4 10 6
0 11 -4 11 -10z m90 -6 c0 -8 -4 -12 -10 -9 -5 3 -10 10 -10 16 0 5 5 9 10 9
6 0 10 -7 10 -16z m-110 -23 c0 -12 -29 -35 -36 -28 -11 10 5 37 21 37 8 0 15
-4 15 -9z m70 -70 c0 -6 -4 -13 -10 -16 -5 -3 -10 1 -10 9 0 9 5 16 10 16 6 0
10 -4 10 -9z m-83 -38 c-3 -10 -5 -4 -5 12 0 17 2 24 5 18 2 -7 2 -21 0 -30z
m318 -22 c3 -5 1 -12 -5 -16 -5 -3 -10 1 -10 9 0 18 6 21 15 7z m-338 -45
c-15 -31 -22 -25 -13 9 4 14 11 23 15 20 5 -3 4 -16 -2 -29z m-127 -53 c0 -19
-3 -24 -10 -17 -6 6 -8 18 -4 27 9 24 14 21 14 -10z m407 -55 c-3 -7 -5 -2 -5
12 0 14 2 19 5 13 2 -7 2 -19 0 -25z m-464 -25 c-7 -3 -13 -12 -13 -20 0 -9
-3 -14 -6 -10 -4 3 -3 18 0 33 6 21 10 24 19 14 9 -10 9 -14 0 -17z m267 -224
c0 -5 -4 -9 -10 -9 -5 0 -10 7 -10 16 0 8 5 12 10 9 6 -3 10 -10 10 -16z
m-1049 -386 c-10 -17 -10 -16 -11 3 0 23 13 41 18 25 2 -6 -1 -18 -7 -28z
m-2403 -71 c-13 -20 -30 -50 -38 -67 -8 -16 -19 -37 -26 -45 -6 -8 -17 -36
-24 -63 -13 -49 -30 -72 -30 -41 0 10 23 65 51 122 28 57 48 110 45 118 -3 8
-2 13 3 10 5 -3 15 1 22 10 24 29 22 -5 -3 -44z m-192 15 c14 5 15 3 4 -18 -7
-13 -21 -33 -31 -45 -20 -22 -45 -165 -36 -210 2 -13 0 -24 -6 -24 -10 0 -4
159 9 199 6 22 5 23 -19 19 -15 -3 -27 -1 -27 4 0 19 31 67 52 82 19 14 23 14
30 1 5 -8 15 -11 24 -8z m888 -34 c5 -18 9 -139 7 -203 l-1 -35 -19 41 c-16
34 -30 165 -22 207 2 14 30 7 35 -10z m-830 -8 c-4 -8 -8 -15 -10 -15 -2 0 -4
7 -4 15 0 8 4 15 10 15 5 0 7 -7 4 -15z m906 -61 c0 -36 -10 -43 -29 -20 -8
10 -8 21 -1 40 13 35 30 24 30 -20z m-160 12 c0 -24 -51 -79 -63 -67 -7 7 -2
19 16 37 15 15 27 31 27 35 0 5 5 9 10 9 6 0 10 -6 10 -14z m2290 -17 c0 -11
-4 -17 -10 -14 -5 3 -10 13 -10 21 0 8 5 14 10 14 6 0 10 -9 10 -21z m-2451
-76 c-18 -20 -34 0 -20 25 6 11 11 31 12 44 1 15 4 9 10 -16 6 -27 6 -43 -2
-53z m81 73 c0 -3 -4 -8 -10 -11 -5 -3 -10 -1 -10 4 0 6 5 11 10 11 6 0 10 -2
10 -4z m-395 -25 c-3 -6 -11 -11 -17 -11 -6 0 -6 6 2 15 14 17 26 13 15 -4z
m147 -18 c-9 -17 -28 -120 -24 -135 8 -36 16 -352 12 -498 -2 -77 -3 -81 -11
-40 -4 25 -8 70 -10 100 -1 30 -4 45 -6 33 -2 -13 -9 -23 -14 -23 -5 0 -9 -6
-9 -14 0 -8 -5 -27 -10 -42 -10 -26 -12 -26 -28 -11 -16 16 -15 20 5 60 12 23
24 52 28 65 4 13 11 19 17 16 8 -5 9 -1 5 10 -4 10 -7 24 -7 32 0 8 -4 14 -10
14 -5 0 -10 -14 -10 -31 0 -22 -5 -32 -20 -36 -15 -4 -20 -14 -20 -39 0 -36
-25 -48 -37 -18 -8 22 10 70 26 66 8 -2 10 4 7 16 -4 11 2 29 13 43 10 13 22
39 25 57 4 17 11 32 15 32 5 0 11 55 14 123 3 68 10 134 15 147 6 14 16 45 23
69 7 24 15 39 17 33 2 -6 -1 -19 -6 -29z m350 20 c6 -24 -17 -79 -36 -86 -24
-9 -29 10 -9 33 10 11 18 26 19 33 3 31 5 37 13 37 5 0 11 -8 13 -17z m1515
-5 c-3 -8 -6 -5 -6 6 -1 11 2 17 5 13 3 -3 4 -12 1 -19z m-1757 -39 c14 -33 6
-59 -20 -67 -9 -3 -11 3 -8 22 4 22 3 24 -9 14 -11 -9 -17 -8 -30 4 -18 18 -8
42 13 34 8 -3 17 1 20 9 9 23 20 18 34 -16z m128 -15 c-2 -15 -8 -29 -14 -31
-16 -5 -23 28 -12 57 11 31 31 13 26 -26z m-298 8 c0 -10 -22 -32 -32 -32 -5
0 -3 9 4 20 13 20 28 27 28 12z m-140 -6 c0 -2 -8 -10 -17 -17 -16 -13 -17
-12 -4 4 13 16 21 21 21 13z m70 0 c0 -2 -7 -7 -16 -10 -8 -3 -12 -2 -9 4 6
10 25 14 25 6z m408 -37 c10 -16 11 -24 1 -35 -15 -18 -29 -2 -29 34 0 28 11
28 28 1z m-118 -5 c0 -10 6 -14 15 -10 17 6 40 -24 50 -65 5 -19 0 -33 -19
-55 -17 -21 -22 -34 -15 -45 15 -24 10 -63 -16 -117 -14 -29 -28 -52 -31 -52
-4 0 -4 21 0 48 4 37 4 42 -4 23 -22 -51 -19 -10 3 58 19 55 21 71 11 71 -9 0
-14 12 -14 35 0 19 -5 44 -12 55 -10 15 -9 24 2 44 15 29 30 34 30 10z m195
-13 c-3 -12 -14 -28 -22 -37 -13 -13 -14 -20 -5 -35 19 -30 15 -41 -9 -28 -18
9 -20 17 -16 46 4 20 16 46 28 59 25 27 34 25 24 -5z m-289 -5 c26 -26 7 -86
-28 -86 -39 0 -49 44 -18 78 24 26 27 26 46 8z m-469 -38 c-3 -7 -5 -2 -5 12
0 14 2 19 5 13 2 -7 2 -19 0 -25z m287 17 c-7 -17 -20 -20 -28 -6 -4 5 0 12 6
14 23 9 28 7 22 -8z m53 -7 c-3 -8 -6 -5 -6 6 -1 11 2 17 5 13 3 -3 4 -12 1
-19z m2508 -49 c4 -17 5 -33 2 -36 -9 -8 -39 45 -32 57 11 18 23 11 30 -21z
m-2858 -1 c-3 -8 -6 -5 -6 6 -1 11 2 17 5 13 3 -3 4 -12 1 -19z m244 -25 c-10
-17 -10 -16 -11 3 0 23 13 41 18 25 2 -6 -1 -18 -7 -28z m83 4 c-3 -9 -10 -17
-15 -17 -11 0 -12 34 -2 44 11 11 24 -9 17 -27z m181 -4 c-4 -16 -3 -25 1 -21
12 13 34 -13 34 -38 0 -30 -50 -124 -65 -124 -12 0 -35 42 -35 63 0 7 9 23 20
37 28 35 25 48 -5 20 -27 -25 -29 -25 -39 5 -7 25 3 41 40 65 43 28 58 25 49
-7z m2305 -4 c0 -5 -4 -9 -10 -9 -5 0 -10 7 -10 16 0 8 5 12 10 9 6 -3 10 -10
10 -16z m95 11 c3 -5 1 -10 -4 -10 -6 0 -11 5 -11 10 0 6 2 10 4 10 3 0 8 -4
11 -10z m-2198 -42 c-3 -7 -5 -2 -5 12 0 14 2 19 5 13 2 -7 2 -19 0 -25z
m-357 -19 c0 -35 -2 -40 -14 -30 -11 10 -12 19 -4 42 14 39 18 37 18 -12z
m315 -25 c-3 -19 -10 -34 -15 -34 -13 0 -12 2 2 58 13 52 24 33 13 -24z m-455
21 c0 -8 -4 -17 -10 -20 -6 -4 -10 5 -10 20 0 15 4 24 10 20 6 -3 10 -12 10
-20z m75 15 c9 -14 -4 -52 -16 -45 -12 8 -12 55 0 55 6 0 13 -5 16 -10z m-34
-98 c-33 -75 -42 -91 -50 -96 -13 -9 -18 15 -10 49 4 17 7 24 8 18 3 -30 21
-10 19 20 -3 45 11 66 28 43 7 -10 9 -25 5 -34z m81 30 c6 -22 -8 -62 -21 -62
-13 0 -25 45 -17 65 8 21 33 19 38 -3z m2418 -3 c0 -5 -4 -7 -10 -4 -6 3 -10
-4 -10 -17 0 -13 -9 -29 -20 -36 -17 -10 -20 -10 -20 4 0 8 5 12 10 9 6 -3 10
4 10 18 0 13 3 27 7 30 10 11 33 8 33 -4z m-2580 -15 c0 -8 -5 -12 -10 -9 -6
4 -8 11 -5 16 9 14 15 11 15 -7z m128 -74 c-4 -30 -34 -39 -42 -12 -4 11 -1
32 6 47 11 25 13 26 25 8 8 -10 13 -29 11 -43z m-166 -12 c-7 -7 -12 -8 -12
-2 0 14 12 26 19 19 2 -3 -1 -11 -7 -17z m127 -37 c8 -14 6 -25 -9 -43 -10
-14 -22 -37 -26 -52 -3 -15 -13 -30 -20 -33 -8 -3 -14 -13 -14 -23 0 -23 -18
-36 -32 -22 -16 16 -1 63 17 56 11 -4 13 -2 9 9 -8 22 15 60 32 53 12 -4 14
-1 9 14 -7 23 2 60 15 60 5 0 14 -9 19 -19z m-79 -15 c0 -29 -19 -44 -30 -25
-9 14 5 49 20 49 6 0 10 -11 10 -24z m282 -10 c-2 -9 4 -19 12 -22 13 -5 14
-18 7 -63 -1 -3 -12 6 -26 19 -25 24 -30 44 -19 75 8 20 30 13 26 -9z m-582
-50 c0 -7 -3 -16 -7 -19 -10 -11 -33 13 -33 35 0 16 3 17 20 8 11 -6 20 -17
20 -24z m270 -9 c0 -7 -7 -22 -15 -33 -14 -18 -14 -17 -15 14 0 22 5 32 15 32
8 0 15 -6 15 -13z m120 -62 c0 -12 -8 -33 -18 -46 -11 -13 -22 -36 -26 -51 -3
-16 -11 -28 -16 -28 -6 0 -10 -8 -10 -19 0 -10 -6 -24 -14 -30 -12 -10 -17 -8
-26 8 -13 25 4 65 24 58 8 -3 12 7 12 31 0 20 5 37 12 40 7 2 12 12 12 23 0
11 5 28 12 39 15 24 38 9 38 -25z m38 -59 c2 -15 -2 -34 -9 -42 -19 -23 -41
21 -26 53 13 30 31 24 35 -11z m62 5 c0 -22 -16 -36 -24 -22 -8 12 3 41 15 41
5 0 9 -9 9 -19z m-210 -30 c0 -18 -18 -41 -32 -41 -9 0 -11 54 -2 63 11 10 34
-5 34 -22z m110 -26 c15 -18 4 -71 -16 -79 -8 -3 -14 -16 -14 -30 0 -33 -16
-42 -30 -16 -11 20 -4 70 10 70 4 0 11 16 14 35 7 38 17 43 36 20z m79 -12
c14 -25 -5 -59 -25 -42 -12 10 -13 5 -8 -35 7 -46 -1 -57 -24 -34 -18 18 -15
44 11 88 25 44 32 48 46 23z m-229 -27 c0 -8 -4 -18 -10 -21 -5 -3 -10 3 -10
14 0 12 5 21 10 21 6 0 10 -6 10 -14z m38 -72 c-4 -24 -24 -29 -32 -8 -8 20
13 49 27 35 5 -5 7 -17 5 -27z m52 -48 c0 -29 -19 -44 -30 -25 -9 14 5 49 20
49 6 0 10 -11 10 -24z m73 12 c2 -7 0 -21 -5 -32 -12 -23 -28 -4 -21 25 6 22
19 25 26 7z"/>
<path d="M7143 12520 c-1 -18 2 -28 7 -25 12 7 14 55 3 55 -5 0 -9 -14 -10
-30z"/>
<path d="M7120 11750 l-3 -45 -7 40 -7 40 -1 -50 c-2 -55 12 -92 23 -64 3 9 4
41 2 70 l-3 54 -4 -45z"/>
<path d="M7053 11720 c6 -22 15 -40 19 -40 11 0 10 5 -6 45 -20 47 -26 44 -13
-5z"/>
<path d="M6740 11731 c0 -19 23 -35 34 -24 14 15 5 43 -14 43 -13 0 -20 -7
-20 -19z"/>
<path d="M6638 11610 c-3 -16 -1 -30 4 -30 4 0 8 14 8 30 0 17 -2 30 -4 30 -2
0 -6 -13 -8 -30z"/>
<path d="M7530 11580 c0 -5 4 -10 9 -10 6 0 13 5 16 10 3 6 -1 10 -9 10 -9 0
-16 -4 -16 -10z"/>
<path d="M7577 11579 c7 -7 15 -10 18 -7 3 3 -2 9 -12 12 -14 6 -15 5 -6 -5z"/>
<path d="M6661 11554 c0 -11 3 -14 6 -6 3 7 2 16 -1 19 -3 4 -6 -2 -5 -13z"/>
<path d="M7340 11529 c0 -5 5 -7 10 -4 6 3 10 8 10 11 0 2 -4 4 -10 4 -5 0
-10 -5 -10 -11z"/>
<path d="M6604 11405 c-7 -18 14 -75 27 -75 5 0 12 -18 15 -39 4 -22 13 -42
20 -45 10 -4 14 -25 15 -68 l1 -63 14 34 c21 47 29 151 15 193 -6 19 -21 44
-32 56 -23 25 -67 29 -75 7z"/>
<path d="M8110 10933 c0 -5 7 -18 15 -29 12 -16 14 -16 15 -3 0 9 -7 22 -15
29 -8 7 -15 8 -15 3z"/>
<path d="M6638 10730 c-19 -62 -17 -73 7 -37 9 15 15 40 13 59 -3 32 -4 31
-20 -22z"/>
<path d="M7160 10493 c0 -5 4 -14 9 -22 7 -11 15 -10 45 4 20 10 36 19 36 21
0 2 -20 4 -45 4 -25 0 -45 -3 -45 -7z"/>
<path d="M6964 10436 c-38 -36 -54 -44 -74 -40 -45 10 -85 27 -117 51 -40 29
-58 31 -43 3 14 -27 104 -77 152 -85 56 -10 108 19 125 69 7 22 11 41 9 43 -2
2 -25 -17 -52 -41z"/>
<path d="M6597 10439 c-10 -6 -25 -8 -33 -5 -8 3 -14 2 -14 -2 1 -18 19 -33
51 -42 45 -13 149 -13 149 0 0 13 -43 30 -77 30 -18 0 -24 4 -19 15 6 18 -29
20 -57 4z"/>
<path d="M7264 10223 c-18 -2 -40 -13 -50 -24 -11 -12 -30 -19 -55 -19 -21 0
-40 -4 -44 -10 -9 -14 -168 -6 -173 9 -3 8 -8 7 -16 -5 -19 -25 -126 -31 -165
-8 -28 17 -32 17 -103 -4 -87 -26 -125 -28 -149 -6 -17 16 -19 15 -29 -10 -8
-21 -8 -111 -1 -145 1 -2 8 2 16 9 19 15 16 18 48 -52 14 -32 41 -73 59 -93
18 -19 44 -46 56 -60 13 -13 43 -30 65 -36 23 -6 47 -14 52 -17 12 -8 30 -12
75 -19 l35 -5 -42 40 c-24 22 -43 48 -43 57 0 24 25 45 51 43 12 -2 24 3 26
10 3 7 -3 12 -14 12 -10 0 -30 8 -43 18 -14 9 -49 24 -79 32 -44 12 -57 21
-75 53 -18 32 -19 39 -6 47 8 6 25 8 37 5 12 -3 33 -1 48 5 18 7 33 7 47 -1
15 -8 22 -8 28 1 10 17 97 32 142 25 24 -4 44 -2 60 9 35 22 92 29 133 16 32
-10 42 -10 70 6 28 15 37 16 64 4 28 -11 34 -10 51 5 17 16 26 17 56 7 29 -8
40 -7 64 6 16 9 32 14 36 10 10 -11 -5 -76 -23 -93 -14 -15 -17 -14 -34 1 -17
16 -19 16 -26 -2 -4 -11 -15 -25 -25 -32 -22 -16 -23 -32 -3 -32 8 0 15 -4 15
-10 0 -12 -37 -13 -44 -1 -8 12 -56 20 -56 9 0 -5 -12 -13 -27 -19 -15 -6 -41
-16 -58 -24 -16 -7 -39 -16 -49 -19 -10 -4 -17 -9 -14 -11 2 -3 38 4 79 15 93
25 88 25 99 -5 12 -32 50 -49 66 -29 6 8 17 14 24 14 19 0 200 192 200 211 0
22 -65 79 -91 79 -11 0 -33 7 -50 15 -30 16 -159 27 -215 18z m-164 -93 c0 -5
-9 -10 -19 -10 -11 0 -23 5 -26 10 -4 6 5 10 19 10 14 0 26 -4 26 -10z m430
-15 c0 -8 -4 -15 -10 -15 -5 0 -10 7 -10 15 0 8 5 15 10 15 6 0 10 -7 10 -15z"/>
<path d="M7270 9845 c0 -8 5 -15 10 -15 6 0 10 7 10 15 0 8 -4 15 -10 15 -5 0
-10 -7 -10 -15z"/>
<path d="M6550 9646 c0 -15 7 -26 20 -29 23 -6 28 21 8 41 -18 18 -28 14 -28
-12z"/>
<path d="M7227 9023 c-14 -13 -6 -24 15 -21 27 4 36 28 11 28 -11 0 -23 -3
-26 -7z"/>
<path d="M7416 8915 c4 -8 10 -12 15 -9 11 6 2 24 -11 24 -5 0 -7 -7 -4 -15z"/>
<path d="M7482 8955 c0 -16 2 -22 5 -12 2 9 2 23 0 30 -3 6 -5 -1 -5 -18z"/>
<path d="M5640 5551 c0 -12 5 -21 10 -21 6 0 10 6 10 14 0 8 -4 18 -10 21 -5
3 -10 -3 -10 -14z"/>
<path d="M5530 5380 c0 -5 6 -10 14 -10 8 0 18 5 21 10 3 6 -3 10 -14 10 -12
0 -21 -4 -21 -10z"/>
<path d="M5250 5132 c0 -19 26 -62 38 -62 6 0 12 -4 12 -10 0 -5 7 -10 15 -10
22 0 18 31 -4 37 -10 2 -24 16 -30 29 -10 23 -31 33 -31 16z"/>
<path d="M5157 5021 c3 -12 12 -21 20 -21 20 0 12 34 -9 38 -12 2 -15 -2 -11
-17z"/>
<path d="M5240 5010 c0 -5 5 -10 10 -10 6 0 10 5 10 10 0 6 -4 10 -10 10 -5 0
-10 -4 -10 -10z"/>
<path d="M5200 4941 c0 -12 6 -21 15 -21 8 0 15 4 15 9 0 5 -7 14 -15 21 -13
10 -15 9 -15 -9z"/>
<path d="M5071 4844 c0 -11 3 -14 6 -6 3 7 2 16 -1 19 -3 4 -6 -2 -5 -13z"/>
<path d="M5116 4834 c-3 -8 -10 -12 -16 -9 -5 3 -10 2 -10 -4 0 -27 48 -7 50
22 0 13 -18 7 -24 -9z"/>
<path d="M5110 4766 c0 -8 5 -18 10 -21 6 -3 10 3 10 14 0 12 -4 21 -10 21 -5
0 -10 -6 -10 -14z"/>
<path d="M5030 4364 c0 -17 17 -36 24 -26 3 5 -1 15 -9 22 -8 7 -15 9 -15 4z"/>
<path d="M4650 1660 c0 -5 5 -10 10 -10 6 0 10 5 10 10 0 6 -4 10 -10 10 -5 0
-10 -4 -10 -10z"/>
<path d="M6890 13580 c0 -5 5 -10 11 -10 5 0 7 5 4 10 -3 6 -8 10 -11 10 -2 0
-4 -4 -4 -10z"/>
<path d="M9080 11865 c0 -15 18 -40 24 -34 3 3 -1 14 -9 25 -8 10 -14 15 -15
9z"/>
<path d="M9141 11780 c-1 -18 16 -46 23 -40 2 3 -2 16 -9 30 -8 15 -14 19 -14
10z"/>
<path d="M9235 11514 c2 -48 8 -91 13 -96 6 -6 8 8 6 39 l-4 48 15 -40 c15
-42 14 -28 -5 67 -17 87 -28 78 -25 -18z"/>
<path d="M5141 11414 c0 -11 3 -14 6 -6 3 7 2 16 -1 19 -3 4 -6 -2 -5 -13z"/>
<path d="M9231 11354 c0 -11 3 -14 6 -6 3 7 2 16 -1 19 -3 4 -6 -2 -5 -13z"/>
<path d="M9287 11259 c3 -24 7 -46 9 -48 9 -10 3 65 -5 78 -6 10 -8 -1 -4 -30z"/>
<path d="M5025 11000 c-3 -5 -1 -10 4 -10 6 0 11 5 11 10 0 6 -2 10 -4 10 -3
0 -8 -4 -11 -10z"/>
<path d="M9367 10940 c6 -38 10 -46 19 -38 3 3 -2 21 -10 39 l-15 34 6 -35z"/>
<path d="M4920 10818 c-12 -22 -12 -22 6 -6 10 10 15 20 12 24 -4 3 -12 -5
-18 -18z"/>
<path d="M4862 10755 c-17 -22 -29 -41 -26 -44 8 -8 66 58 62 71 -2 6 -18 -6
-36 -27z"/>
<path d="M4835 10690 c-3 -5 -1 -10 4 -10 6 0 11 5 11 10 0 6 -2 10 -4 10 -3
0 -8 -4 -11 -10z"/>
<path d="M4790 10660 c0 -5 5 -10 11 -10 5 0 7 5 4 10 -3 6 -8 10 -11 10 -2 0
-4 -4 -4 -10z"/>
<path d="M5380 9730 c0 -5 5 -10 10 -10 6 0 10 5 10 10 0 6 -4 10 -10 10 -5 0
-10 -4 -10 -10z"/>
<path d="M5170 9700 c0 -5 5 -10 11 -10 5 0 7 5 4 10 -3 6 -8 10 -11 10 -2 0
-4 -4 -4 -10z"/>
<path d="M5340 9660 c-9 -6 -10 -10 -3 -10 6 0 15 5 18 10 8 12 4 12 -15 0z"/>
<path d="M5009 9093 c-13 -16 -12 -17 4 -4 9 7 17 15 17 17 0 8 -8 3 -21 -13z"/>
<path d="M4975 9039 c-4 -6 -5 -12 -2 -15 2 -3 7 2 10 11 7 17 1 20 -8 4z"/>
<path d="M5050 8857 c8 -9 29 -18 45 -22 29 -5 29 -5 5 6 -14 6 -34 16 -45 21
-18 9 -18 9 -5 -5z"/>
<path d="M10520 7493 c0 -12 49 -73 50 -62 0 3 -11 20 -25 39 -14 19 -25 29
-25 23z"/>
<path d="M10651 7264 c0 -11 3 -14 6 -6 3 7 2 16 -1 19 -3 4 -6 -2 -5 -13z"/>
<path d="M10660 7231 c0 -6 4 -13 10 -16 6 -3 7 1 4 9 -7 18 -14 21 -14 7z"/>
<path d="M6570 6905 c-6 -8 -10 -19 -8 -26 2 -6 9 0 16 15 13 29 10 33 -8 11z"/>
<path d="M6660 6901 c-7 -13 -7 -22 0 -26 5 -3 10 1 10 9 0 9 5 16 10 16 6 0
10 5 10 10 0 17 -19 11 -30 -9z"/>
<path d="M6527 6853 c-4 -3 -7 -11 -7 -17 0 -6 5 -5 12 2 6 6 9 14 7 17 -3 3
-9 2 -12 -2z"/>
<path d="M6575 6850 c-3 -5 1 -10 10 -10 9 0 13 5 10 10 -3 6 -8 10 -10 10 -2
0 -7 -4 -10 -10z"/>
<path d="M6495 6840 c-3 -5 -1 -10 4 -10 6 0 11 5 11 10 0 6 -2 10 -4 10 -3 0
-8 -4 -11 -10z"/>
<path d="M6480 6800 c-8 -5 -12 -12 -9 -15 8 -8 39 5 39 16 0 11 -11 11 -30
-1z"/>
<path d="M6557 6779 c-15 -17 -27 -32 -27 -33 0 0 11 -1 24 -1 19 0 26 7 30
29 8 40 4 40 -27 5z"/>
<path d="M6442 6750 c1 -25 5 -30 25 -30 26 0 26 0 13 -34 -9 -26 -9 -26 15
-10 14 9 25 21 25 26 0 5 5 6 10 3 6 -3 20 -3 33 1 21 7 21 7 2 14 -11 4 -27
4 -35 0 -20 -10 -40 -2 -40 16 0 8 -9 14 -20 14 -13 0 -18 5 -14 15 4 8 1 15
-4 15 -6 0 -10 -13 -10 -30z"/>
<path d="M6405 6751 c-3 -5 -1 -12 5 -16 5 -3 10 1 10 9 0 18 -6 21 -15 7z"/>
<path d="M6600 6730 c0 -5 7 -10 15 -10 8 0 15 5 15 10 0 6 -7 10 -15 10 -8 0
-15 -4 -15 -10z"/>
<path d="M6633 6703 c-15 -3 -20 -9 -16 -20 5 -13 0 -15 -39 -9 -46 7 -46 7
-58 -29 -6 -19 -16 -35 -21 -35 -5 0 -9 -7 -9 -15 0 -8 -3 -15 -8 -15 -4 0
-13 -9 -20 -20 -7 -11 -8 -20 -4 -20 9 0 94 61 151 107 18 16 42 32 52 37 11
5 19 13 19 18 0 8 -9 8 -47 1z"/>
<path d="M6385 6690 c-4 -6 -4 -10 -1 -10 2 0 11 -3 20 -6 9 -3 16 -2 16 4 0
14 -28 23 -35 12z"/>
<path d="M6343 6656 c4 -14 57 -21 57 -8 0 5 -14 12 -30 14 -19 3 -29 1 -27
-6z"/>
<path d="M6427 6644 c-12 -14 -22 -29 -22 -32 0 -4 -4 -12 -8 -19 -5 -7 -1 -9
13 -6 11 3 18 8 16 12 -3 4 -1 13 4 21 7 12 12 12 22 2 15 -15 28 -16 28 -2 0
6 -6 10 -14 10 -8 0 -18 5 -22 12 -5 7 -2 9 9 5 11 -4 14 -2 10 9 -7 19 -10
18 -36 -12z"/>
<path d="M6240 6640 c0 -5 5 -10 11 -10 5 0 7 5 4 10 -3 6 -8 10 -11 10 -2 0
-4 -4 -4 -10z"/>
<path d="M6283 6633 c9 -2 23 -2 30 0 6 3 -1 5 -18 5 -16 0 -22 -2 -12 -5z"/>
<path d="M6312 6604 c-7 -13 -20 -15 -65 -11 -43 4 -57 2 -57 -8 0 -18 26 -25
81 -21 48 4 103 31 93 47 -9 15 -42 10 -52 -7z"/>
<path d="M6340 6540 c0 -27 -2 -30 -25 -24 -17 4 -25 2 -26 -7 0 -8 -1 -31 -3
-51 -2 -21 -1 -38 1 -38 10 0 113 74 113 81 0 5 9 9 20 9 24 0 26 15 4 24 -9
4 -17 5 -18 4 -17 -43 -44 -59 -45 -26 -1 42 -4 58 -13 58 -4 0 -8 -14 -8 -30z"/>
<path d="M6225 6520 c-3 -5 3 -10 14 -10 12 0 21 5 21 10 0 6 -6 10 -14 10 -8
0 -18 -4 -21 -10z"/>
<path d="M6166 6485 c-18 -14 -18 -15 9 -25 22 -8 25 -13 16 -24 -9 -11 -5
-19 19 -36 33 -23 47 -21 36 5 -3 9 -12 13 -18 10 -7 -4 -3 2 9 13 12 11 19
22 16 26 -3 3 0 12 7 21 19 23 5 30 -22 11 -28 -20 -46 -20 -50 -2 -3 13 -6
13 -22 1z"/>
<path d="M6100 6480 c0 -5 5 -10 10 -10 6 0 10 5 10 10 0 6 -4 10 -10 10 -5 0
-10 -4 -10 -10z"/>
<path d="M6025 6450 c-4 -6 6 -10 23 -10 34 0 45 -9 32 -25 -7 -9 -1 -12 25
-13 41 -2 39 15 -4 41 -32 19 -67 22 -76 7z"/>
<path d="M6008 6391 c-10 -10 -15 -20 -12 -24 5 -5 44 28 44 38 0 10 -15 3
-32 -14z"/>
<path d="M6045 6371 c-6 -11 29 -33 39 -24 7 7 -12 33 -25 33 -4 0 -10 -4 -14
-9z"/>
<path d="M6105 6370 c3 -5 8 -10 11 -10 2 0 4 5 4 10 0 6 -5 10 -11 10 -5 0
-7 -4 -4 -10z"/>
<path d="M6150 6365 c0 -8 -5 -15 -12 -15 -6 0 -8 -3 -5 -7 4 -3 -3 -17 -15
-30 -12 -13 -16 -23 -9 -23 6 0 14 7 17 15 4 8 12 15 20 15 8 0 14 5 14 10 0
6 12 15 28 21 25 10 26 12 7 19 -31 13 -45 11 -45 -5z"/>
<path d="M5930 6339 c0 -5 5 -7 10 -4 6 3 10 8 10 11 0 2 -4 4 -10 4 -5 0 -10
-5 -10 -11z"/>
<path d="M5860 6330 c-13 -8 -13 -10 2 -10 9 0 20 5 23 10 8 13 -5 13 -25 0z"/>
<path d="M6005 6320 c-3 -5 -17 -10 -31 -10 -27 0 -28 -3 -14 -31 13 -23 52
-25 70 -4 11 13 8 13 -19 4 -18 -6 -35 -8 -39 -5 -9 10 19 26 45 26 16 0 21 4
17 15 -7 17 -20 20 -29 5z"/>
<path d="M5915 6290 c-3 -5 -1 -10 4 -10 6 0 11 5 11 10 0 6 -2 10 -4 10 -3 0
-8 -4 -11 -10z"/>
<path d="M6045 6260 c-10 -11 -15 -20 -11 -20 14 0 46 21 46 30 0 16 -16 11
-35 -10z"/>
<path d="M5800 6260 c0 -5 7 -7 15 -4 8 4 15 8 15 10 0 2 -7 4 -15 4 -8 0 -15
-4 -15 -10z"/>
<path d="M5898 6253 c7 -3 16 -2 19 1 4 3 -2 6 -13 5 -11 0 -14 -3 -6 -6z"/>
<path d="M5765 6241 c-3 -5 -1 -12 5 -16 5 -3 10 1 10 9 0 18 -6 21 -15 7z"/>
<path d="M5804 6225 c-18 -14 -18 -14 9 -15 17 0 27 5 27 15 0 19 -11 19 -36
0z"/>
<path d="M5930 6230 c0 -5 7 -10 16 -10 8 0 12 5 9 10 -3 6 -10 10 -16 10 -5
0 -9 -4 -9 -10z"/>
<path d="M5870 6210 c0 -5 7 -10 15 -10 8 0 15 5 15 10 0 6 -7 10 -15 10 -8 0
-15 -4 -15 -10z"/>
<path d="M5956 6201 c-14 -5 -16 -10 -7 -15 15 -9 41 -1 41 14 0 11 -7 12 -34
1z"/>
<path d="M5694 6175 c-3 -14 -11 -25 -18 -26 -19 -1 27 -18 52 -18 12 -1 22 4
22 9 0 6 -10 10 -21 10 -17 0 -20 5 -17 25 3 14 1 25 -3 25 -5 0 -11 -11 -15
-25z"/>
<path d="M5830 6180 c0 -5 5 -10 10 -10 6 0 10 5 10 10 0 6 -4 10 -10 10 -5 0
-10 -4 -10 -10z"/>
<path d="M5872 6158 c-18 -9 -22 -17 -17 -35 4 -16 1 -23 -10 -23 -8 0 -15 -7
-15 -15 0 -21 6 -19 35 12 14 15 25 25 25 21 0 -4 11 4 25 18 14 14 25 27 25
29 0 9 -45 4 -68 -7z"/>
<path d="M5794 6124 c3 -9 6 -18 6 -20 0 -2 4 -4 9 -4 5 0 7 9 4 20 -3 11 -10
20 -15 20 -6 0 -7 -7 -4 -16z"/>
<path d="M5687 6079 c-5 -20 -5 -20 14 -3 23 20 23 24 5 24 -7 0 -16 -9 -19
-21z"/>
<path d="M5694 6025 c5 -21 3 -25 -16 -26 -14 -1 -17 -3 -7 -6 10 -2 14 -14
13 -34 l-2 -31 26 24 c15 12 29 25 32 27 3 2 -5 1 -17 -2 -19 -4 -21 -2 -13
12 10 20 2 61 -12 61 -6 0 -7 -11 -4 -25z"/>
<path d="M5745 6010 c3 -5 10 -10 16 -10 5 0 9 5 9 10 0 6 -7 10 -16 10 -8 0
-12 -4 -9 -10z"/>
<path d="M5628 5983 c7 -3 16 -2 19 1 4 3 -2 6 -13 5 -11 0 -14 -3 -6 -6z"/>
<path d="M5500 5950 c0 -5 5 -10 10 -10 6 0 10 5 10 10 0 6 -4 10 -10 10 -5 0
-10 -4 -10 -10z"/>
<path d="M5578 5953 c-16 -2 -28 -8 -28 -13 0 -13 53 -5 58 9 2 6 2 10 0 10
-1 -1 -15 -4 -30 -6z"/>
<path d="M5640 5950 c0 -5 5 -10 10 -10 6 0 10 5 10 10 0 6 -4 10 -10 10 -5 0
-10 -4 -10 -10z"/>
<path d="M5425 5920 c-19 -8 -19 -9 2 -9 12 -1 25 4 28 9 7 12 -2 12 -30 0z"/>
<path d="M5475 5910 c3 -5 14 -10 23 -10 15 0 15 2 2 10 -20 13 -33 13 -25 0z"/>
<path d="M5515 5880 c3 -5 8 -10 11 -10 2 0 4 5 4 10 0 6 -5 10 -11 10 -5 0
-7 -4 -4 -10z"/>
<path d="M5646 5861 c-4 -7 -5 -15 -2 -18 9 -9 19 4 14 18 -4 11 -6 11 -12 0z"/>
<path d="M5571 5821 c12 -19 43 -18 55 1 4 6 -2 8 -15 3 -12 -4 -21 -2 -21 4
0 6 -7 11 -15 11 -12 0 -13 -4 -4 -19z"/>
<path d="M5440 5820 c0 -5 5 -10 10 -10 6 0 10 5 10 10 0 6 -4 10 -10 10 -5 0
-10 -4 -10 -10z"/>
<path d="M5370 5750 c0 -11 4 -20 9 -20 11 0 22 26 14 34 -12 12 -23 5 -23
-14z"/>
<path d="M5255 5750 c-3 -6 1 -7 9 -4 18 7 21 14 7 14 -6 0 -13 -4 -16 -10z"/>
<path d="M5330 5745 c0 -8 2 -15 4 -15 2 0 6 7 10 15 3 8 1 15 -4 15 -6 0 -10
-7 -10 -15z"/>
<path d="M5440 5742 c0 -7 -10 -13 -22 -13 -19 -1 -20 -2 -4 -6 20 -5 44 12
33 24 -4 3 -7 1 -7 -5z"/>
<path d="M5215 5720 c3 -5 8 -10 11 -10 2 0 4 5 4 10 0 6 -5 10 -11 10 -5 0
-7 -4 -4 -10z"/>
<path d="M5477 5723 c-12 -12 -7 -22 8 -17 8 4 15 10 15 15 0 11 -14 12 -23 2z"/>
<path d="M5300 5710 c-18 -12 -2 -12 25 0 13 6 15 9 5 9 -8 0 -22 -4 -30 -9z"/>
<path d="M5185 5700 c-3 -5 -1 -10 4 -10 6 0 11 5 11 10 0 6 -2 10 -4 10 -3 0
-8 -4 -11 -10z"/>
<path d="M5221 5684 c-12 -14 -11 -15 8 -12 12 1 22 7 22 13 1 16 -15 15 -30
-1z"/>
<path d="M5355 5680 c-3 -5 -1 -10 4 -10 6 0 11 5 11 10 0 6 -2 10 -4 10 -3 0
-8 -4 -11 -10z"/>
<path d="M5290 5666 c0 -9 30 -14 35 -6 4 6 -3 10 -14 10 -12 0 -21 -2 -21 -4z"/>
<path d="M5381 5641 c-11 -11 -32 -21 -47 -23 -29 -3 -47 -28 -20 -28 9 0 16
-5 16 -10 0 -6 8 -5 20 2 11 7 20 19 20 26 0 7 12 17 26 22 14 6 22 14 19 20
-9 14 -12 13 -34 -9z"/>
<path d="M5260 5640 c0 -5 5 -10 10 -10 6 0 10 5 10 10 0 6 -4 10 -10 10 -5 0
-10 -4 -10 -10z"/>
<path d="M5140 5600 c0 -5 10 -10 23 -10 18 0 19 2 7 10 -19 13 -30 13 -30 0z"/>
<path d="M5123 5553 c-20 -7 -15 -23 7 -23 11 0 20 4 20 9 0 13 -12 19 -27 14z"/>
<path d="M5287 5553 c-4 -3 -7 -11 -7 -17 0 -6 5 -5 12 2 6 6 9 14 7 17 -3 3
-9 2 -12 -2z"/>
<path d="M5020 5520 c0 -5 5 -10 11 -10 5 0 7 5 4 10 -3 6 -8 10 -11 10 -2 0
-4 -4 -4 -10z"/>
<path d="M5058 5508 c9 -9 15 -9 24 0 9 9 7 12 -12 12 -19 0 -21 -3 -12 -12z"/>
<path d="M5210 5449 c0 -5 5 -7 10 -4 6 3 10 8 10 11 0 2 -4 4 -10 4 -5 0 -10
-5 -10 -11z"/>
<path d="M5170 5420 c-19 -4 -21 -7 -9 -12 9 -3 22 -2 30 2 19 13 8 18 -21 10z"/>
<path d="M4990 5410 c0 -5 5 -10 10 -10 6 0 10 5 10 10 0 6 -4 10 -10 10 -5 0
-10 -4 -10 -10z"/>
<path d="M4846 5335 c-9 -26 -7 -32 5 -12 6 10 9 21 6 23 -2 3 -7 -2 -11 -11z"/>
<path d="M4930 5180 c0 -5 5 -10 10 -10 6 0 10 5 10 10 0 6 -4 10 -10 10 -5 0
-10 -4 -10 -10z"/>
<path d="M4931 5104 c-1 -7 -11 -14 -23 -18 -18 -4 -20 -8 -10 -18 10 -10 15
-9 28 4 9 9 14 22 11 30 -3 7 -6 8 -6 2z"/>
<path d="M4515 751 c-66 -64 -89 -92 -105 -133 -8 -18 -24 -53 -37 -77 -23
-44 -34 -103 -13 -71 7 10 10 -10 10 -67 0 -51 -4 -84 -12 -89 -8 -5 -10 11
-5 64 4 56 3 71 -9 76 -10 4 -14 -2 -14 -19 0 -13 -5 -36 -11 -52 -13 -34 2
-95 41 -168 15 -28 30 -66 32 -85 3 -19 11 -51 18 -70 7 -19 14 -41 16 -47 3
-10 37 -13 131 -12 91 0 121 3 104 10 -18 7 -21 12 -12 23 8 9 8 16 2 20 -5 4
-12 2 -16 -4 -11 -19 -20 -10 -45 43 -14 28 -33 59 -43 67 -16 14 -31 58 -60
185 -6 28 -11 83 -11 123 -1 68 -7 87 -20 60 -3 -7 -3 -2 0 12 4 14 13 29 20
33 8 4 14 18 14 31 0 13 7 29 15 36 8 7 13 16 10 20 -8 13 6 40 20 40 8 0 11
8 8 20 -3 12 1 28 9 38 50 58 26 54 -37 -7z"/>
<path d="M4306 589 c-20 -49 -34 -215 -16 -187 6 9 15 43 21 75 6 32 15 63 19
68 13 16 16 78 4 82 -6 2 -19 -15 -28 -38z"/>
</g>
</svg>
