<?xml version="1.0" standalone="no"?>
<!DOCTYPE svg PUBLIC "-//W3C//DTD SVG 20010904//EN"
 "http://www.w3.org/TR/2001/REC-SVG-20010904/DTD/svg10.dtd">
<svg version="1.0" xmlns="http://www.w3.org/2000/svg"
 width="821.000000pt" height="821.000000pt" viewBox="0 0 821.000000 821.000000"
 preserveAspectRatio="xMidYMid meet">
<metadata>
Created by potrace 1.14, written by Peter Selinger 2001-2017
</metadata>
<g transform="translate(0.000000,821.000000) scale(0.100000,-0.100000)"
fill="#000000" stroke="none">
<path d="M100 8000 c0 -5 7 -10 16 -10 8 0 12 5 9 10 -3 6 -10 10 -16 10 -5 0
-9 -4 -9 -10z"/>
<path d="M210 7939 c0 -5 5 -7 10 -4 6 3 10 8 10 11 0 2 -4 4 -10 4 -5 0 -10
-5 -10 -11z"/>
<path d="M117 7903 c-10 -9 -9 -33 1 -33 4 0 8 9 9 20 2 21 0 24 -10 13z"/>
<path d="M18 7893 c-22 -5 -24 -33 -3 -33 8 0 19 9 25 20 11 20 9 21 -22 13z"/>
<path d="M26 7774 c-9 -22 -8 -24 9 -24 8 0 15 9 15 20 0 24 -15 27 -24 4z"/>
<path d="M80 7771 c0 -12 5 -21 10 -21 6 0 10 6 10 14 0 8 -4 18 -10 21 -5 3
-10 -3 -10 -14z"/>
<path d="M481 7728 c-1 -10 -5 -18 -11 -18 -5 0 -10 -7 -10 -15 0 -8 -7 -15
-15 -15 -8 0 -15 -5 -15 -11 0 -7 7 -8 18 -4 9 4 25 10 35 12 19 6 20 17 7 48
-7 17 -9 17 -9 3z"/>
<path d="M80 7720 c-12 -7 -12 -12 -2 -22 9 -9 15 -9 24 0 16 16 -2 34 -22 22z"/>
<path d="M0 7670 c0 -5 5 -10 11 -10 5 0 7 5 4 10 -3 6 -8 10 -11 10 -2 0 -4
-4 -4 -10z"/>
<path d="M47 7673 c-4 -3 -7 -15 -7 -26 0 -16 -2 -17 -15 -7 -17 14 -31 8 -20
-9 3 -6 24 -11 47 -11 32 0 39 3 34 16 -3 9 -6 22 -6 30 0 14 -21 19 -33 7z"/>
<path d="M481 7634 c0 -11 3 -14 6 -6 3 7 2 16 -1 19 -3 4 -6 -2 -5 -13z"/>
<path d="M110 7626 c-16 -15 -12 -30 11 -44 19 -12 20 -11 14 7 -4 15 -2 21 8
21 8 0 17 -9 20 -20 3 -11 11 -20 17 -20 10 0 10 3 0 15 -7 8 -10 24 -7 34 4
17 0 20 -25 18 -16 -1 -33 -6 -38 -11z"/>
<path d="M430 7621 c0 -6 5 -13 10 -16 6 -3 10 1 10 9 0 9 -4 16 -10 16 -5 0
-10 -4 -10 -9z"/>
<path d="M206 7601 c-4 -7 -5 -15 -2 -18 9 -9 19 4 14 18 -4 11 -6 11 -12 0z"/>
<path d="M304 7596 c-10 -8 -16 -18 -11 -22 4 -4 0 -19 -9 -32 -16 -24 -16
-26 6 -44 31 -25 110 -25 110 0 0 19 -24 23 -47 9 -20 -12 -36 21 -30 63 3 22
4 40 3 40 -1 0 -11 -6 -22 -14z"/>
<path d="M495 7570 c-8 -13 5 -13 25 0 13 8 13 10 -2 10 -9 0 -20 -4 -23 -10z"/>
<path d="M427 7533 c-4 -3 -7 -19 -7 -35 0 -15 -4 -28 -10 -28 -5 0 -10 -7
-10 -15 0 -9 9 -15 24 -15 14 0 32 -7 40 -16 15 -14 16 -14 16 0 0 9 -4 16 -8
16 -12 0 -31 58 -25 80 5 19 -7 27 -20 13z"/>
<path d="M485 7530 c3 -5 11 -10 16 -10 6 0 7 5 4 10 -3 6 -11 10 -16 10 -6 0
-7 -4 -4 -10z"/>
<path d="M650 7524 c0 -8 5 -12 10 -9 6 3 10 10 10 16 0 5 -4 9 -10 9 -5 0
-10 -7 -10 -16z"/>
<path d="M481 7474 c0 -11 3 -14 6 -6 3 7 2 16 -1 19 -3 4 -6 -2 -5 -13z"/>
<path d="M706 7451 c-10 -15 19 -60 33 -52 10 6 9 10 -4 15 -11 4 -15 13 -12
26 5 20 -7 28 -17 11z"/>
<path d="M760 7451 c0 -6 9 -9 20 -8 11 1 20 5 20 9 0 4 -9 8 -20 8 -11 0 -20
-4 -20 -9z"/>
<path d="M501 7428 c-12 -31 3 -44 57 -51 35 -4 42 -2 42 12 0 24 -38 45 -56
30 -11 -9 -14 -8 -14 4 0 26 -20 30 -29 5z"/>
<path d="M969 7430 c-5 -29 -4 -50 3 -50 15 0 21 31 9 43 -6 6 -11 9 -12 7z"/>
<path d="M44 7395 c27 -14 51 -24 53 -21 7 7 -39 33 -72 40 -23 5 -19 1 19
-19z"/>
<path d="M626 7412 c-3 -6 -1 -14 5 -17 15 -10 25 3 12 16 -7 7 -13 7 -17 1z"/>
<path d="M660 7366 c-14 -14 -12 -36 3 -36 8 0 19 -11 25 -24 7 -16 19 -23 38
-23 15 0 33 -8 39 -17 15 -20 35 -21 35 -1 0 8 -6 14 -12 13 -8 -2 -14 9 -16
25 -3 25 -22 40 -22 16 0 -5 -4 -7 -10 -4 -5 3 -10 18 -10 33 0 23 -4 27 -30
27 -17 0 -35 -4 -40 -9z m57 -53 c-3 -10 -5 -4 -5 12 0 17 2 24 5 18 2 -7 2
-21 0 -30z"/>
<path d="M110 7366 c0 -8 71 -48 76 -43 3 2 -11 14 -31 26 -36 21 -45 24 -45
17z"/>
<path d="M608 7353 c7 -3 16 -2 19 1 4 3 -2 6 -13 5 -11 0 -14 -3 -6 -6z"/>
<path d="M970 7321 c0 -6 5 -13 10 -16 6 -3 10 1 10 9 0 9 -4 16 -10 16 -5 0
-10 -4 -10 -9z"/>
<path d="M262 7290 c2 -7 19 -18 38 -26 32 -13 33 -13 15 2 -35 27 -58 37 -53
24z"/>
<path d="M5540 7228 c-18 -35 -46 -73 -61 -86 -16 -13 -29 -32 -29 -42 0 -10
-13 -45 -29 -77 -67 -135 -76 -168 -38 -133 12 12 30 26 40 32 16 8 18 7 12
-11 -6 -19 -2 -21 32 -21 48 0 58 8 61 44 1 16 6 34 11 40 17 21 42 131 44
191 1 33 6 66 10 72 5 8 2 22 -6 33 -13 19 -16 17 -47 -42z"/>
<path d="M718 7253 c7 -3 16 -2 19 1 4 3 -2 6 -13 5 -11 0 -14 -3 -6 -6z"/>
<path d="M990 7250 c0 -5 5 -10 11 -10 5 0 7 5 4 10 -3 6 -8 10 -11 10 -2 0
-4 -4 -4 -10z"/>
<path d="M1275 7251 c-3 -5 -1 -12 4 -15 5 -3 11 1 15 9 6 16 -9 21 -19 6z"/>
<path d="M830 7229 c0 -5 5 -7 10 -4 6 3 10 8 10 11 0 2 -4 4 -10 4 -5 0 -10
-5 -10 -11z"/>
<path d="M913 7225 c-13 -9 -20 -22 -17 -30 8 -19 24 -20 24 -1 0 8 8 13 17
12 10 0 19 7 21 17 4 21 -16 22 -45 2z"/>
<path d="M1108 7233 c-19 -5 -23 -20 -10 -40 5 -8 12 -3 19 17 6 17 11 29 10
29 -1 -1 -10 -3 -19 -6z"/>
<path d="M0 6969 c0 -204 3 -260 13 -257 6 3 18 17 25 31 17 35 34 34 66 -4
41 -48 29 -71 -23 -44 -17 8 -32 15 -35 15 -2 0 -13 -16 -25 -36 -24 -40 -26
-71 -9 -110 10 -22 10 -28 0 -32 -9 -3 -12 -40 -12 -137 0 -109 3 -134 15
-139 21 -8 21 -76 0 -76 -12 0 -15 -18 -15 -105 0 -100 1 -105 25 -121 15 -10
34 -14 49 -10 14 3 28 2 31 -4 3 -5 -3 -10 -14 -10 -11 0 -35 -10 -55 -22
l-35 -23 -1 -177 c0 -166 1 -178 18 -178 10 0 22 -3 25 -7 11 -10 -13 -32 -29
-26 -12 4 -14 -29 -14 -217 0 -206 1 -221 18 -218 9 2 22 18 28 37 l11 33 12
-30 c28 -66 143 -47 182 31 11 21 17 47 14 57 -8 27 -53 60 -71 53 -23 -9 -17
-50 9 -57 21 -6 21 -7 3 -18 -28 -16 -60 25 -52 67 9 42 33 58 81 50 56 -8 85
-45 85 -109 0 -43 -4 -53 -38 -86 -58 -58 -130 -71 -188 -33 -20 12 -22 11
-34 -16 -7 -17 -22 -32 -36 -35 l-24 -6 0 -151 0 -151 40 7 c36 6 41 4 49 -17
11 -30 6 -38 -29 -38 -15 0 -35 -3 -44 -6 -21 -8 -21 -67 -1 -84 20 -16 19
-50 0 -50 -13 0 -15 -16 -13 -101 l3 -101 50 -28 c86 -48 90 -87 6 -57 -27 9
-51 17 -55 17 -13 0 -4 -21 38 -90 49 -79 89 -195 84 -243 l-3 -32 -23 35 -23
35 6 -65 c8 -83 -15 -191 -56 -254 l-29 -47 0 -161 0 -162 28 45 c30 45 104
119 122 119 13 0 13 -17 1 -25 -21 -12 -71 -114 -71 -144 0 -34 37 -81 65 -81
8 0 15 -4 15 -8 0 -14 -23 -32 -41 -32 -37 0 -31 -24 14 -67 25 -23 50 -43 55
-43 5 0 14 12 21 26 14 32 6 101 -20 162 -22 50 -22 52 -10 52 6 0 21 -18 34
-40 28 -48 38 -43 31 14 -4 23 -1 69 6 102 10 48 20 66 54 100 53 51 120 71
245 73 114 2 188 16 213 38 28 25 16 26 -53 2 -128 -43 -285 -25 -414 48 -60
33 -159 128 -150 143 5 8 17 3 38 -15 73 -59 166 -116 222 -136 90 -31 258
-27 328 8 38 19 34 33 -10 33 -76 0 -133 42 -133 97 0 40 67 75 90 48 11 -14
10 -17 -8 -22 -28 -7 -28 -37 -2 -63 27 -27 83 -27 111 1 11 11 22 19 24 17 9
-10 21 -100 17 -126 -9 -62 -119 -110 -276 -119 -93 -6 -103 -9 -128 -34 -37
-37 -39 -105 -5 -137 13 -12 31 -22 40 -22 20 0 22 -11 5 -28 -15 -15 -63 -16
-90 -1 -29 15 -48 69 -41 114 8 48 -10 40 -28 -12 -13 -42 -6 -158 13 -213 36
-100 113 -192 199 -237 47 -24 65 -28 142 -28 85 0 90 1 113 28 45 53 24 147
-34 147 -25 0 -25 1 -9 17 9 9 29 17 44 18 33 0 33 21 1 74 -37 60 -163 94
-202 55 -29 -29 -14 -114 20 -114 12 0 14 7 9 30 -6 27 -4 30 17 30 54 0 83
-55 47 -89 -37 -34 -94 -28 -135 13 -30 30 -34 40 -34 86 0 45 4 56 30 80 36
33 96 50 147 40 120 -22 177 -108 178 -270 0 -83 -3 -99 -22 -126 -23 -32 -89
-69 -139 -78 -74 -14 -204 40 -287 119 -54 51 -59 53 -88 43 -36 -12 -44 -7
-30 20 16 29 14 64 -6 108 l-17 39 -7 -57 c-10 -86 -50 -162 -64 -120 -3 11
-22 27 -43 36 -39 18 -99 69 -126 107 -15 22 -16 12 -16 -162 l0 -185 53 -17
c28 -9 74 -19 100 -22 31 -4 47 -11 44 -18 -4 -12 -114 -14 -169 -3 -42 8 -34
-6 19 -34 120 -63 156 -200 90 -344 -14 -29 -40 -71 -59 -92 -45 -49 -71 -101
-65 -125 3 -11 1 -22 -4 -25 -5 -3 -9 -93 -9 -200 l0 -194 30 0 c16 0 44 -9
62 -20 18 -11 44 -20 56 -20 33 0 22 -24 -12 -28 -26 -3 -27 -5 -21 -46 6 -37
3 -47 -20 -74 -20 -24 -35 -32 -61 -32 -31 0 -34 -3 -34 -29 0 -27 5 -31 70
-56 69 -26 120 -58 110 -69 -3 -2 -39 6 -80 20 -86 28 -100 29 -100 10 0 -9
17 -16 48 -20 26 -4 71 -16 100 -28 49 -19 54 -19 71 -4 23 20 31 12 31 -33 1
-20 7 -49 14 -66 l13 -30 13 28 c9 17 19 26 28 22 7 -3 19 -5 26 -5 26 0 103
-61 123 -97 58 -103 42 -213 -43 -293 -53 -50 -72 -41 -30 15 15 19 29 47 32
63 7 34 -19 97 -44 107 -14 5 -14 7 -2 15 8 6 26 10 39 10 20 0 22 3 17 27 -8
34 -78 103 -104 103 -16 0 -18 -10 -18 -112 0 -126 -15 -203 -50 -264 -33 -59
-120 -134 -197 -173 l-67 -32 0 -157 0 -157 113 0 c133 1 152 6 166 47 17 48
13 74 -15 107 -22 26 -33 31 -70 31 -38 0 -46 -4 -56 -25 -10 -21 -9 -29 5
-42 13 -13 19 -14 29 -5 19 19 30 14 26 -10 -5 -33 -59 -46 -94 -23 -24 15
-26 22 -21 62 3 27 12 50 23 58 29 23 91 36 129 29 21 -4 35 -2 35 4 0 15 -80
23 -134 13 -55 -10 -76 -6 -76 15 0 20 27 29 43 15 8 -6 33 -8 64 -5 55 7 125
-10 121 -29 -1 -7 6 -25 17 -42 15 -22 20 -46 20 -98 0 -67 -1 -69 -39 -104
l-39 -36 -123 6 c-106 6 -124 4 -124 -8 0 -10 11 -15 33 -15 73 0 185 -42 237
-89 19 -17 38 -31 41 -31 3 0 15 -18 28 -40 l22 -40 105 0 c103 0 119 5 88 31
-23 19 -64 104 -64 134 0 20 -5 25 -26 25 -23 0 -25 3 -19 23 4 12 10 45 14
72 9 61 22 86 62 118 l31 24 -36 21 c-35 21 -43 41 -30 76 9 22 20 20 62 -12
20 -16 60 -37 87 -47 170 -60 308 -157 334 -234 15 -46 14 -106 -4 -165 -8
-27 -15 -53 -15 -58 0 -4 22 -8 48 -8 36 0 54 5 67 20 48 52 173 92 228 71 33
-13 67 -50 67 -73 0 -13 8 -18 26 -18 20 0 24 3 16 13 -14 17 -3 32 29 40 15
4 33 20 44 41 16 30 17 39 6 76 -13 44 -13 43 -125 85 -42 15 -102 64 -144
119 -12 15 -16 13 -46 -19 -35 -37 -89 -49 -99 -22 -8 22 8 40 31 33 35 -11
58 22 65 94 4 35 13 73 20 84 8 12 19 49 26 83 8 33 22 74 33 90 20 28 20 28
14 3 -3 -14 -8 -51 -12 -83 -11 -90 27 -161 93 -173 43 -8 66 10 61 48 -4 22
-1 28 13 28 27 0 31 -15 16 -52 -19 -45 -39 -60 -92 -66 -49 -5 -54 -11 -27
-34 73 -65 218 -84 300 -40 131 69 249 266 240 399 -3 43 -5 48 -25 46 -29 -3
-29 11 -2 31 19 13 25 13 50 0 20 -10 29 -22 29 -39 0 -14 5 -25 10 -25 16 0
12 57 -5 74 -8 8 -18 29 -21 46 -15 75 -125 110 -182 57 -15 -14 -22 -30 -20
-47 2 -19 -1 -25 -17 -25 -31 0 -22 52 14 89 25 25 40 30 93 34 69 5 56 20
-18 21 -129 2 -268 -152 -240 -265 6 -23 11 -26 37 -20 25 5 30 3 27 -12 -2
-9 -16 -23 -31 -30 -15 -7 -27 -19 -27 -27 0 -18 51 -45 83 -45 27 0 82 54 98
98 13 33 3 72 -17 72 -20 0 -29 -27 -15 -44 8 -10 8 -16 -4 -26 -45 -37 -63
43 -20 86 56 56 117 6 95 -77 -17 -63 -93 -139 -146 -146 -55 -7 -98 16 -125
69 -41 80 -6 193 90 289 80 80 128 103 221 105 44 1 76 6 78 13 8 23 22 10 22
-20 0 -37 17 -72 31 -63 6 3 8 12 5 20 -11 28 30 170 59 208 27 36 115 103
115 88 0 -5 -18 -26 -40 -47 -26 -26 -46 -58 -57 -91 -15 -48 -15 -54 1 -85
16 -32 16 -34 -1 -47 -15 -11 -20 -10 -29 3 -6 8 -17 15 -24 15 -14 0 -9 -120
8 -214 9 -47 8 -48 -19 -58 -24 -8 -31 -21 -55 -96 -35 -109 -108 -219 -188
-284 -92 -74 -117 -83 -228 -83 -98 0 -109 -7 -31 -20 53 -8 101 -40 126 -83
19 -32 19 -37 4 -110 -8 -42 -14 -79 -12 -81 11 -11 38 14 57 54 22 45 38 58
38 30 0 -19 29 -19 54 0 11 8 27 15 35 15 9 -1 -6 -12 -33 -26 -27 -14 -61
-37 -75 -50 l-26 -24 183 0 182 0 -16 37 c-56 127 -66 167 -60 235 3 36 9 74
13 83 5 15 8 14 19 -6 7 -13 13 -34 14 -46 0 -38 30 -88 67 -113 l35 -24 20
24 c15 19 23 22 36 13 25 -15 26 -39 3 -62 -26 -26 -66 -27 -114 -1 -47 25
-49 9 -4 -41 54 -61 119 -99 170 -99 37 0 46 4 50 22 3 12 2 29 -3 39 -14 25
-2 49 24 49 12 0 45 -6 72 -14 27 -8 72 -17 99 -21 82 -11 250 -54 253 -65 4
-11 182 -15 182 -4 0 3 -8 18 -18 32 -10 15 -22 34 -26 42 -26 56 -31 60 -55
43 -21 -14 -34 -14 -110 -4 -83 12 -105 16 -201 42 -25 6 -63 12 -85 14 -22 1
-51 5 -64 10 -27 8 -70 53 -71 73 0 9 -13 12 -38 11 -55 -4 -67 7 -42 38 11
14 20 38 20 54 0 37 17 79 43 108 12 13 18 25 12 28 -42 15 -60 31 -63 54 -3
28 25 61 36 42 9 -14 95 -43 127 -43 34 0 33 -35 -2 -73 -23 -24 -24 -27 -6
-16 18 11 26 11 48 -1 23 -12 29 -12 54 3 38 22 77 21 181 -3 121 -28 164 -42
173 -57 4 -7 13 -13 20 -13 7 0 39 -13 72 -29 107 -52 192 -91 198 -91 7 0 76
-31 227 -102 130 -61 144 -66 361 -122 l175 -46 952 0 c802 0 958 2 989 14 50
19 157 35 263 38 105 4 424 -9 585 -23 66 -6 131 -11 144 -12 21 -2 26 4 33
36 15 69 1 78 -152 93 -30 3 -74 9 -96 14 -73 16 -313 31 -489 29 -174 -1
-256 -8 -357 -30 -37 -8 -61 -10 -67 -4 -5 6 -11 40 -15 77 l-6 66 77 26 c167
55 453 68 783 37 58 -6 153 -13 211 -17 106 -7 106 -7 112 17 11 39 8 76 -6
88 -16 12 -115 28 -242 36 -49 4 -109 10 -132 14 -23 5 -84 9 -135 10 -50 1
-95 4 -99 7 -4 2 -66 5 -138 5 -125 1 -156 -3 -318 -38 l-73 -16 -2 -41 c-1
-23 -2 -53 -1 -68 1 -25 -1 -26 -31 -16 -42 15 -40 12 -46 80 l-5 60 -175 4
c-96 1 -227 -2 -291 -8 -99 -9 -126 -8 -190 6 -52 12 -111 17 -204 15 -332 -5
-415 1 -715 52 -36 7 -87 15 -115 20 -27 5 -74 11 -104 14 -30 3 -81 9 -115
14 -34 6 -135 13 -226 16 -227 8 -272 16 -368 64 -44 22 -99 44 -122 47 -23 4
-47 15 -54 26 -12 17 -37 21 -197 33 -101 8 -215 20 -253 26 -61 10 -70 9 -78
-5 -5 -9 -15 -16 -23 -16 -8 0 -51 -12 -96 -26 -70 -22 -90 -34 -133 -77 -54
-54 -96 -123 -96 -157 0 -11 9 -29 20 -40 19 -19 19 -20 -2 -31 -18 -10 -24
-8 -35 7 -17 24 -17 40 6 99 31 81 50 112 85 143 41 35 127 78 179 87 20 4 40
11 43 16 10 17 -41 9 -123 -19 -45 -15 -78 -23 -72 -16 24 29 219 77 219 54 0
-6 7 -10 15 -10 33 0 12 28 -37 48 -72 31 -107 64 -129 123 -29 77 -25 131 12
174 26 29 38 35 63 33 21 -2 32 -9 34 -22 3 -14 0 -17 -13 -12 -46 17 -85 -25
-85 -91 0 -43 57 -113 114 -139 62 -29 73 -30 81 -4 8 24 12 24 84 6 59 -15
215 -37 291 -41 111 -6 148 -16 185 -51 20 -19 46 -34 59 -34 12 0 60 -14 106
-31 79 -29 91 -30 219 -29 128 2 145 0 291 -38 319 -81 401 -94 564 -87 80 3
161 1 196 -5 47 -9 72 -7 132 6 111 25 204 28 294 10 91 -18 523 -26 666 -13
l87 9 7 -62 c5 -44 12 -63 25 -71 17 -9 19 -5 19 39 0 27 3 63 6 79 5 25 2 31
-14 35 -17 5 -21 15 -24 54 l-3 49 -95 -1 c-187 -2 -428 -1 -590 3 -91 2 -212
4 -270 5 -58 1 -193 -4 -300 -11 -107 -7 -226 -11 -265 -10 -76 3 -113 3 -250
-2 -76 -3 -106 1 -190 25 -55 16 -105 33 -112 38 -22 18 -227 60 -303 62 -57
2 -84 8 -112 25 -21 13 -38 27 -38 32 0 5 18 21 40 35 49 33 88 33 174 3 64
-22 118 -34 226 -49 36 -6 72 -12 80 -16 20 -7 494 -29 600 -27 47 1 131 11
188 23 117 23 188 25 317 9 52 -7 269 -12 507 -13 l418 -1 9 27 c15 42 68 68
196 97 57 13 564 7 755 -9 219 -19 210 -19 217 8 3 14 2 41 -3 61 -8 32 -13
37 -49 42 -22 3 -58 10 -80 16 -22 5 -141 10 -265 12 -124 1 -241 6 -260 9
-59 11 -262 6 -330 -7 -95 -18 -113 -27 -142 -72 -14 -22 -29 -36 -32 -30 -4
6 -15 7 -30 1 -30 -11 -313 -16 -646 -10 -396 6 -452 5 -605 -10 -77 -7 -196
-12 -265 -10 -218 6 -581 5 -690 -2 -84 -5 -123 -2 -195 13 -66 15 -107 18
-155 13 -98 -10 -172 -10 -320 -2 -131 7 -274 18 -276 21 -1 1 -5 16 -8 32 -5
24 -1 39 17 65 13 19 30 33 38 31 63 -16 143 -30 150 -25 17 10 163 -16 181
-33 17 -15 21 -15 60 3 32 14 63 19 128 17 331 -6 987 -2 1095 6 72 6 423 11
780 12 358 1 667 6 688 11 26 6 37 14 37 27 0 10 7 24 15 31 8 7 15 18 15 25
0 21 59 51 127 65 70 14 835 19 940 5 60 -7 62 -7 67 16 3 13 2 40 -2 59 -6
29 -13 35 -37 38 -17 2 -52 10 -78 18 -40 13 -89 15 -315 10 -475 -11 -685
-29 -711 -59 -5 -7 -11 -28 -13 -47 -2 -28 -7 -35 -23 -33 -11 1 -37 -3 -59
-8 -23 -6 -272 -12 -630 -14 -325 -3 -679 -9 -786 -15 -358 -21 -563 -26 -832
-23 -230 2 -283 0 -384 -17 -147 -25 -174 -26 -181 -1 -3 14 -17 20 -56 25
-114 13 -177 3 -177 -29 0 -24 -50 -55 -91 -55 -70 0 -87 72 -27 114 27 19 59
21 76 4 9 -9 12 -8 12 5 0 9 -10 26 -22 38 -20 18 -31 20 -78 16 -63 -7 -50 7
29 29 l46 12 -50 1 c-36 1 -62 -6 -95 -25 l-45 -26 24 26 c14 15 71 48 127 75
55 27 110 61 122 75 11 14 24 26 30 26 5 0 13 16 16 35 7 33 36 51 36 23 1
-32 16 -39 61 -29 41 9 233 27 379 36 36 2 94 7 130 10 78 6 147 11 385 25 99
6 248 20 330 30 235 29 276 31 510 29 121 -2 443 -3 715 -4 l495 0 15 69 c15
67 16 70 57 87 24 10 60 21 80 24 57 10 103 26 103 35 0 5 7 7 15 4 9 -4 34
-1 58 4 37 10 135 18 437 37 47 3 117 9 155 13 44 5 96 3 140 -5 98 -18 95
-19 95 31 0 49 -4 53 -73 77 -72 24 -549 16 -657 -11 -19 -5 -100 -21 -180
-35 -80 -15 -157 -29 -171 -32 -26 -5 -26 -5 -22 54 6 95 9 100 55 117 24 9
129 34 233 56 158 32 218 40 355 45 91 3 201 10 245 15 62 8 92 6 135 -5 30
-8 56 -15 58 -15 6 0 1 51 -8 74 -18 48 -53 56 -272 62 -117 3 -228 1 -267 -5
-36 -6 -97 -13 -136 -16 -38 -4 -73 -9 -78 -12 -4 -2 -54 -13 -111 -23 -56
-10 -122 -27 -146 -39 -24 -11 -57 -23 -74 -27 -29 -5 -32 -3 -45 33 -18 52
-26 60 -66 67 -35 7 -65 38 -65 67 0 13 -12 18 -52 22 -29 3 -109 10 -178 16
-69 6 -135 16 -147 22 -11 6 -26 9 -31 5 -5 -3 -29 1 -53 10 -73 25 -221 35
-330 22 -76 -9 -117 -9 -197 2 l-100 13 -48 -31 c-69 -46 -96 -42 -75 12 7 17
34 36 170 117 l55 33 220 -23 c285 -29 285 -29 524 -39 188 -7 205 -9 220 -28
9 -12 31 -27 49 -33 18 -7 38 -20 45 -28 7 -8 22 -19 35 -24 16 -6 23 -17 23
-34 0 -17 7 -28 23 -34 30 -12 52 -6 119 29 41 22 89 36 170 49 62 11 133 26
158 34 47 15 143 26 295 33 50 2 110 6 135 8 25 2 82 -1 127 -7 46 -6 85 -8
89 -4 3 3 3 24 -1 47 -9 56 -18 59 -214 75 -105 9 -217 7 -238 -4 -10 -5 -65
-14 -123 -19 -114 -11 -310 -45 -350 -60 -92 -34 -98 -24 -43 70 52 89 61 98
100 98 19 0 62 11 96 24 70 27 160 48 292 69 68 11 133 13 265 8 96 -4 179 -3
184 0 12 10 0 52 -22 79 -15 19 -34 24 -113 33 -107 11 -245 10 -304 -3 -22
-5 -74 -10 -115 -10 -47 0 -83 -5 -95 -14 -11 -7 -38 -19 -60 -26 -39 -12 -61
-32 -117 -104 -21 -27 -37 -36 -65 -38 -33 -3 -38 -7 -51 -45 -17 -52 -83
-113 -122 -113 -15 0 -35 9 -45 20 -10 11 -27 22 -38 26 -11 4 -39 20 -61 36
-37 27 -46 29 -97 24 -31 -4 -76 -13 -100 -22 -51 -18 -131 -14 -414 18 -165
19 -279 16 -340 -9 -69 -29 -153 -39 -161 -18 -6 15 30 95 49 107 6 3 38 9 71
13 64 7 183 40 203 57 11 9 129 5 253 -8 19 -2 106 -8 193 -13 136 -9 163 -9
200 5 96 36 167 33 167 -7 0 -20 55 -49 92 -49 11 0 35 -7 54 -16 19 -9 40
-14 47 -11 19 7 58 111 43 116 -37 12 -138 59 -179 84 -59 36 -110 33 -159 -8
-31 -26 -35 -27 -128 -22 -52 3 -158 10 -235 17 -109 10 -156 10 -215 1 -74
-12 -314 -10 -327 3 -10 9 27 45 92 89 l60 40 165 8 c91 4 175 5 188 2 24 -6
221 -13 342 -13 66 0 77 3 96 24 47 53 116 58 151 11 13 -17 41 -30 97 -45
120 -32 146 -45 146 -74 0 -13 -4 -26 -9 -28 -14 -5 -24 -48 -11 -48 33 0 140
67 185 118 44 48 55 55 85 54 19 -1 74 12 121 28 89 31 196 39 359 29 l65 -4
-4 35 c-6 70 -13 73 -161 89 -41 4 -93 4 -114 -1 -22 -5 -52 -6 -67 -3 -15 3
-30 1 -34 -4 -10 -18 -147 -81 -175 -81 -14 0 -50 -15 -79 -34 l-54 -33 -79
28 c-44 15 -85 32 -91 37 -7 5 -28 15 -47 22 -19 8 -52 24 -72 37 -54 33 -87
30 -129 -13 -47 -50 -108 -77 -145 -64 -16 5 -63 12 -104 14 -41 2 -102 9
-135 16 -33 6 -107 13 -165 15 -91 3 -116 0 -185 -23 -44 -14 -87 -30 -95 -36
-8 -6 0 7 19 29 34 40 89 73 125 74 11 1 55 22 99 48 91 53 100 54 317 27 151
-18 228 -20 243 -5 6 6 19 11 28 11 14 0 59 55 59 71 0 2 -46 3 -102 1 -59 -2
-122 2 -148 9 -25 6 -59 12 -76 14 -17 1 -36 5 -42 9 -12 7 -94 -18 -139 -44
-34 -20 -175 -31 -180 -14 -1 5 10 32 25 59 l27 50 70 1 c117 2 190 20 236 60
24 21 141 35 154 18 17 -24 180 -19 210 6 8 7 18 9 23 6 10 -6 104 38 141 66
27 20 77 16 96 -7 5 -7 35 -23 65 -35 30 -12 73 -29 95 -38 22 -9 50 -25 63
-36 12 -11 22 -16 22 -12 0 4 12 -2 26 -13 15 -12 33 -21 40 -21 8 0 15 -7 15
-15 1 -8 2 -21 3 -27 2 -19 32 -21 59 -4 13 9 26 13 29 10 3 -3 29 1 56 9 36
11 61 13 89 6 42 -9 123 -12 123 -4 0 3 -10 19 -22 35 -14 20 -31 30 -47 30
-20 0 -38 15 -76 63 -109 137 -236 227 -371 262 -74 19 -242 20 -314 1 -30 -8
-77 -16 -105 -19 -27 -3 -57 -7 -65 -10 -53 -20 -476 -25 -494 -7 -5 5 -6 19
-2 33 5 21 14 26 73 35 143 24 197 34 363 68 14 3 35 10 47 16 12 6 32 8 44 5
13 -3 29 -2 35 4 8 7 20 7 31 1 10 -5 66 -10 125 -11 94 -2 107 0 102 13 -5
12 -22 15 -82 14 -43 -1 -126 4 -187 11 -60 7 -193 13 -295 13 -205 -1 -211 9
-19 29 145 15 208 16 344 6 235 -17 235 -17 235 -2 0 8 -16 26 -35 41 -19 14
-35 30 -35 36 0 5 -20 39 -45 77 -25 38 -45 72 -45 76 0 5 -10 22 -23 39 -12
17 -28 42 -35 56 -6 14 -16 32 -21 40 -19 31 -43 92 -48 126 -3 20 -12 38 -19
41 -8 3 -14 13 -14 22 0 20 -25 92 -49 139 -9 21 -25 66 -35 102 -10 36 -23
74 -29 85 -10 19 -23 69 -33 130 -3 17 -9 39 -14 50 -16 39 -30 88 -30 109 0
12 -7 34 -15 50 -8 15 -15 39 -15 52 0 13 -8 47 -19 76 -10 29 -26 85 -36 123
-9 39 -35 107 -56 152 -22 45 -39 91 -39 101 0 20 -81 205 -110 252 -5 8 -26
58 -46 110 -20 52 -43 102 -50 111 -8 8 -14 20 -14 26 0 6 -20 44 -45 85 -25
42 -45 80 -45 86 0 5 -6 12 -12 15 -7 3 -28 30 -47 62 -30 49 -178 208 -237
255 -26 21 -72 41 -114 51 -19 4 -55 14 -80 20 -25 7 -81 13 -125 14 -44 1
-93 7 -110 14 -20 8 -61 10 -135 7 -170 -10 -365 -8 -394 4 -15 5 -57 10 -92
10 -81 0 -153 -29 -208 -82 -22 -21 -44 -38 -50 -38 -5 0 -1 -6 9 -14 14 -10
24 -11 35 -3 12 7 23 6 36 -1 17 -9 16 -11 -11 -17 -17 -3 -38 -10 -47 -16
-10 -5 -25 -9 -34 -9 -21 0 -114 -50 -114 -62 0 -4 -7 -8 -15 -8 -9 0 -18 -7
-21 -15 -6 -16 -80 -46 -161 -65 -29 -6 -57 -18 -64 -26 -6 -8 -19 -14 -28
-15 -9 0 -28 -8 -42 -17 -69 -45 -107 -73 -137 -101 -18 -17 -37 -31 -41 -31
-8 0 -98 -95 -134 -142 -32 -40 -55 -92 -65 -146 -5 -29 -5 -52 -1 -52 5 0 9
8 9 19 0 22 25 45 39 37 6 -4 8 -13 4 -21 -3 -9 0 -22 7 -30 6 -7 10 -24 8
-37 -3 -23 -10 -25 -53 -15 -11 2 -41 7 -66 11 -45 7 -47 5 -97 -42 -57 -53
-63 -75 -31 -117 18 -22 20 -29 8 -36 -8 -5 -24 -8 -36 -6 -13 2 -23 0 -23 -4
0 -5 -5 -9 -11 -9 -8 0 -9 15 -4 45 6 45 6 46 -19 39 -28 -7 -76 2 -76 14 0 4
13 13 30 19 16 6 35 24 42 40 17 37 56 96 71 105 8 5 8 10 2 17 -6 5 -143 77
-305 159 -162 82 -434 220 -605 307 -828 420 -1273 645 -1279 645 -3 0 -6
-117 -6 -261z m174 -58 c10 -11 15 -27 12 -38 -5 -16 -1 -18 38 -15 44 4 86
-10 86 -28 0 -6 -19 -11 -42 -11 -24 -1 -34 -4 -23 -6 11 -3 25 -10 32 -15 34
-27 130 -24 159 5 13 12 44 7 44 -7 0 -21 -41 -43 -93 -51 l-47 -7 0 -64 c0
-72 -16 -106 -61 -130 -39 -19 -65 -18 -89 6 -26 26 -18 41 18 34 22 -4 30 0
45 24 9 17 17 47 17 68 0 34 -7 45 -66 101 -56 54 -65 67 -60 88 5 21 2 27
-19 35 -14 5 -25 14 -25 20 0 18 56 11 74 -9z m361 -185 c22 -8 40 -21 40 -29
0 -8 7 -22 15 -32 12 -15 12 -18 -3 -26 -24 -14 -21 -54 5 -71 14 -9 19 -20
15 -31 -9 -23 -29 -21 -61 4 -34 27 -38 99 -6 127 21 17 20 17 -17 22 -30 4
-39 10 -41 28 -4 26 0 26 53 8z m181 -21 c-3 -9 0 -15 10 -15 8 0 26 -8 40
-17 l26 -17 -32 -26 c-26 -21 -33 -34 -32 -59 0 -18 6 -39 12 -46 18 -21 1
-38 -30 -31 -27 5 -29 3 -50 -62 -12 -37 -28 -71 -37 -75 -13 -8 -13 -11 0
-25 17 -20 30 -119 16 -127 -5 -4 -18 -3 -29 0 -20 6 -20 7 2 24 l22 18 -30
31 c-17 17 -51 35 -75 42 -24 6 -58 16 -75 21 -17 5 -38 9 -47 9 -24 0 -21 17
4 25 16 6 18 9 8 15 -22 14 -38 -6 -55 -74 -5 -21 -3 -23 22 -18 30 5 30 9 3
-105 -15 -61 -8 -92 53 -228 22 -49 46 -108 52 -129 12 -44 89 -134 142 -166
34 -22 61 -57 50 -67 -15 -15 -176 119 -176 147 0 14 -98 167 -134 210 -7 8
-25 51 -40 94 -33 96 -39 236 -13 299 9 20 13 37 9 37 -17 0 -48 -56 -58 -103
-11 -57 -40 -78 -51 -38 -4 17 -10 20 -27 14 -50 -17 -156 6 -156 33 0 17 43
18 69 2 29 -18 95 6 139 51 32 33 86 126 108 186 6 17 8 15 14 -14 9 -36 -1
-83 -22 -109 -11 -13 -10 -14 9 -4 31 17 186 15 228 -2 29 -12 35 -13 35 -2 0
19 -32 26 -122 26 -43 0 -78 4 -78 10 0 15 70 30 142 30 60 0 67 2 73 23 4 12
18 36 31 54 22 29 32 63 19 63 -3 0 -16 -7 -29 -15 -13 -9 -31 -13 -40 -9 -25
10 -19 38 13 57 15 9 34 30 41 47 8 19 20 30 32 30 14 0 18 -5 14 -15z m-606
-115 c0 -6 -5 -10 -11 -10 -14 0 -7 -42 8 -47 6 -2 13 4 16 14 3 13 5 11 6 -7
1 -42 -13 -55 -51 -44 -30 9 -33 13 -36 54 -3 33 1 48 14 57 18 13 54 2 54
-17z m800 -81 c0 -38 -24 -35 -28 4 -2 19 1 27 12 27 11 0 16 -10 16 -31z
m260 -29 c0 -29 -49 -39 -67 -15 -15 22 -8 32 27 37 33 5 40 1 40 -22z m2054
-14 c-3 -8 -15 -11 -30 -8 -30 6 -31 19 -1 24 29 5 37 1 31 -16z m-2244 -36
c68 -25 92 -48 95 -93 l2 -35 -49 0 c-27 -1 -56 -6 -64 -13 -16 -13 -19 -79
-3 -79 5 0 8 4 5 9 -8 12 13 28 46 36 21 5 33 1 59 -24 17 -17 33 -31 35 -31
2 0 -2 14 -8 31 -6 16 -8 32 -6 34 5 5 93 -79 133 -127 33 -38 58 -132 51
-186 -7 -55 -42 -135 -69 -161 -12 -11 -44 -30 -70 -41 -43 -19 -55 -20 -117
-11 -102 16 -105 15 -66 -20 19 -16 38 -40 41 -52 4 -12 9 -30 11 -39 13 -45
-88 -78 -128 -41 -22 20 -24 59 -2 67 30 12 44 6 41 -16 -3 -31 27 -30 31 0 4
27 -64 121 -112 154 -17 12 -57 44 -88 70 -48 41 -60 47 -75 38 -15 -10 -28
-6 -73 20 -75 43 -123 107 -124 165 -1 57 25 86 85 91 62 7 88 -16 91 -80 4
-61 -17 -80 -60 -56 -37 21 -42 50 -8 50 31 0 34 15 6 30 -27 14 -60 -4 -60
-33 0 -35 31 -76 87 -115 36 -26 53 -28 53 -7 0 24 8 19 73 -47 52 -53 75 -68
147 -96 50 -19 113 -35 153 -39 59 -5 70 -4 83 13 28 36 54 93 54 119 0 35
-26 85 -58 111 -17 14 -23 27 -19 37 9 24 29 21 75 -13 45 -32 57 -24 19 13
-13 12 -39 44 -57 70 -36 51 -36 51 -53 -5 -8 -25 -60 -32 -96 -13 -37 19 -39
14 -7 -28 33 -44 40 -77 22 -102 -15 -20 -17 -19 -55 22 -45 49 -60 86 -63
158 -3 41 -7 50 -23 53 -57 9 -85 44 -45 57 19 6 80 112 80 139 0 9 19 36 25
36 0 0 25 -9 55 -20z m376 -22 c3 -18 13 -42 21 -54 7 -12 17 -41 21 -65 6
-38 11 -44 35 -47 27 -3 34 10 28 56 -2 17 14 15 33 -4 36 -36 0 -94 -59 -94
-92 0 -32 -58 120 -116 66 -25 130 -48 141 -51 13 -3 46 8 82 28 60 32 61 33
74 93 12 55 16 61 38 61 35 0 30 -31 -17 -107 -49 -79 -104 -113 -173 -105
-27 3 -63 13 -80 22 -38 19 -61 9 -28 -13 115 -76 152 -185 109 -318 -11 -32
-19 -60 -18 -61 9 -8 106 97 111 120 7 32 26 36 33 7 3 -11 12 -20 20 -20 8 0
12 4 8 9 -11 18 16 23 66 11 27 -7 61 -9 74 -6 35 9 33 58 -3 111 -22 31 -34
40 -57 40 -25 0 -30 -4 -30 -25 0 -21 4 -25 28 -22 25 3 28 0 25 -20 -2 -16
-11 -24 -29 -26 -22 -3 -28 3 -42 40 -21 55 -21 67 0 90 15 17 15 18 -11 18
-45 0 -24 25 24 28 62 5 94 -12 119 -63 17 -35 41 -129 41 -167 0 -22 -36 -38
-86 -38 -55 0 -72 -14 -31 -25 58 -16 98 -41 121 -74 38 -54 47 -87 53 -187
13 -213 -51 -272 -167 -154 -39 40 -50 58 -56 96 -7 50 13 107 43 118 41 16
93 -33 93 -88 0 -32 -34 -53 -56 -35 -18 15 -18 39 1 39 17 0 18 2 9 24 -8 22
-31 20 -44 -3 -19 -36 33 -127 90 -156 46 -23 67 7 35 49 -22 29 -19 48 8 44
20 -3 22 2 25 48 5 86 -52 214 -95 214 -10 0 -8 -8 7 -28 17 -23 19 -33 11
-55 -14 -37 -54 -39 -45 -2 5 21 -1 32 -31 61 -67 63 -95 65 -174 12 -45 -30
-64 -31 -40 -1 8 9 9 14 2 10 -26 -16 -57 -108 -35 -107 4 0 16 7 26 15 28 21
78 19 104 -5 37 -35 26 -70 -14 -43 -67 44 -117 -46 -83 -148 17 -50 112 -190
156 -230 60 -54 136 -115 160 -128 33 -17 77 -13 107 10 30 24 34 43 7 34 -11
-3 -25 1 -35 10 -17 18 -31 77 -22 100 8 23 28 18 21 -5 -17 -54 30 -80 73
-40 29 28 34 52 30 154 -2 47 0 86 3 86 14 0 32 -61 37 -125 2 -38 9 -76 15
-83 5 -7 7 -35 3 -66 -7 -63 7 -113 35 -121 31 -10 19 -40 -16 -40 -28 0 -42
15 -58 60 -2 6 -22 -7 -45 -27 -22 -20 -60 -42 -84 -48 -62 -17 -68 -25 -68
-91 0 -55 15 -89 41 -89 6 0 5 -8 -1 -20 -21 -38 -58 -22 -88 39 -22 47 -7
-107 18 -179 46 -132 88 -190 139 -190 25 0 36 7 51 33 22 35 27 116 9 134 -8
8 -5 15 11 26 18 12 20 21 15 51 -8 40 -37 66 -73 66 -29 0 -37 -20 -24 -67 7
-27 10 -31 11 -15 1 17 6 22 18 20 42 -8 12 -92 -30 -86 -32 5 -48 45 -44 110
4 68 26 98 71 98 42 0 69 -20 91 -70 17 -37 17 -48 6 -115 -15 -91 -44 -171
-72 -202 -42 -43 -105 -24 -141 43 -19 36 -28 44 -51 44 -26 0 -27 1 -21 43
10 65 -1 41 -24 -51 -32 -126 -99 -214 -213 -279 -46 -26 -83 -34 -154 -34
l-57 0 50 -53 c71 -75 88 -150 57 -252 -8 -27 -15 -50 -15 -52 0 -15 62 63 74
92 15 35 36 42 36 10 0 -9 11 -14 33 -14 51 -1 98 -30 112 -70 7 -19 25 -69
40 -110 35 -98 43 -176 21 -218 -39 -75 -169 -90 -225 -26 -20 24 -23 35 -18
80 7 67 41 116 77 112 19 -2 26 -10 28 -31 4 -29 -21 -77 -39 -77 -19 0 -21
31 -3 45 14 10 16 17 8 25 -16 16 -44 -25 -44 -63 0 -41 17 -67 53 -82 38 -16
80 -10 103 16 15 17 15 18 -10 25 -28 7 -46 31 -39 51 3 10 10 10 24 2 15 -8
24 -7 36 3 12 10 14 26 9 80 -13 138 -50 208 -110 208 -32 0 -88 -20 -106 -37
-13 -13 -12 -14 10 -8 14 4 29 11 35 16 12 12 62 11 85 -1 24 -13 34 -57 19
-92 -16 -40 -26 -35 -25 14 1 36 -3 44 -27 57 -26 15 -30 14 -84 -14 -50 -26
-103 -80 -103 -106 0 -4 16 -2 35 3 37 12 65 -1 65 -29 0 -10 -8 -12 -33 -8
-24 5 -37 2 -49 -12 -36 -40 -49 -164 -25 -233 67 -194 349 -281 495 -154 l37
32 -40 -5 c-22 -2 -52 0 -67 6 -55 21 -74 92 -28 106 29 9 42 -2 28 -25 -9
-14 -9 -22 1 -34 30 -36 108 -8 135 48 20 43 20 72 0 148 -8 33 -13 62 -11 64
11 11 58 -58 68 -101 7 -27 19 -57 26 -66 7 -8 13 -34 13 -58 0 -23 7 -58 15
-78 14 -33 17 -35 50 -30 29 5 35 3 35 -12 0 -44 -68 -56 -114 -20 l-27 21
-43 -40 c-52 -48 -99 -73 -178 -96 -64 -18 -88 -44 -88 -94 0 -45 39 -85 75
-76 19 5 25 2 25 -10 0 -20 -30 -36 -67 -36 -33 0 -41 5 -72 45 l-24 30 7 -45
c21 -137 181 -270 337 -278 101 -6 159 30 159 99 0 34 -38 79 -67 79 -21 0
-24 2 -13 15 7 8 18 15 24 15 6 0 17 4 25 9 13 8 13 12 0 27 -40 49 -157 70
-199 36 -18 -15 -21 -24 -15 -50 7 -35 39 -60 51 -41 3 6 1 15 -6 19 -18 11
-3 30 24 30 53 0 62 -65 13 -88 -89 -43 -186 67 -131 147 21 30 89 60 135 61
56 0 135 -45 171 -98 29 -43 32 -54 33 -122 0 -93 -26 -141 -92 -166 -68 -26
-186 -16 -265 24 -40 20 -66 28 -72 22 -20 -20 -34 -9 -46 35 -7 25 -16 47
-20 50 -3 2 -6 -38 -6 -89 1 -84 -2 -98 -31 -157 -43 -85 -114 -159 -195 -198
-56 -28 -76 -32 -144 -33 -75 0 -77 -1 -49 -14 17 -7 35 -13 41 -14 15 0 94
-81 112 -115 9 -17 17 -65 20 -112 2 -46 8 -80 13 -77 15 9 49 82 49 104 0 24
27 27 44 5 9 -12 22 -13 83 -3 189 30 327 -60 326 -212 -1 -69 -25 -156 -53
-189 -27 -31 -87 -52 -118 -40 -44 17 -82 50 -102 89 -28 55 -25 86 9 121 53
52 131 31 131 -36 0 -38 -16 -55 -52 -55 -30 0 -40 26 -13 36 19 8 19 33 0 40
-26 11 -47 -16 -39 -50 19 -86 115 -136 164 -84 25 27 25 31 -2 43 -13 6 -25
21 -26 34 -3 21 -1 23 22 17 34 -8 50 22 44 85 -7 67 -47 125 -106 152 -54 24
-158 31 -212 15 -41 -13 -98 -48 -104 -65 -3 -6 11 -1 31 13 93 63 258 58 279
-9 11 -33 -4 -67 -29 -67 -20 0 -23 4 -19 30 4 27 0 32 -32 45 -47 20 -114 19
-152 -3 -58 -32 -111 -86 -119 -120 -7 -36 6 -43 35 -17 33 30 120 19 120 -16
0 -17 -5 -18 -37 -14 -53 8 -68 -5 -66 -56 4 -85 32 -138 118 -224 130 -130
150 -145 195 -145 27 0 48 8 71 27 30 25 31 26 20 5 -17 -31 -70 -62 -106 -62
-36 0 -78 25 -178 105 -109 88 -168 185 -197 324 l-18 86 -1 -56 c-1 -65 -8
-75 -32 -53 -17 16 -21 15 -51 -8 -50 -38 -94 -58 -128 -58 -35 0 -37 -10 -11
-48 10 -15 39 -59 64 -98 49 -76 92 -118 114 -110 21 9 15 -12 -8 -25 -12 -6
-35 -8 -51 -5 -26 5 -29 3 -23 -12 45 -107 30 -199 -51 -313 -21 -30 -46 -76
-57 -104 -21 -56 -37 -77 -44 -57 -7 18 -15 16 -86 -32 -89 -59 -159 -80 -273
-80 -85 1 -97 3 -165 37 -80 38 -108 61 -153 121 -69 92 -86 218 -42 313 57
122 159 169 509 234 35 6 65 19 75 30 20 23 38 24 46 4 9 -25 -14 -63 -48 -76
-43 -17 -43 -16 -12 -48 22 -23 29 -41 33 -92 3 -38 12 -72 22 -82 15 -17 14
-20 -4 -34 -12 -8 -31 -12 -47 -9 -23 5 -30 1 -43 -23 -22 -43 -136 -131 -170
-131 -34 0 -13 43 55 109 72 71 101 119 99 168 -1 27 -2 26 -11 -7 -24 -84
-57 -114 -136 -126 -52 -8 -82 13 -82 57 0 30 51 89 76 89 48 0 79 -41 52 -68
-18 -18 -28 -15 -28 9 0 15 -5 20 -22 17 -45 -6 -29 -68 17 -68 39 0 66 30 67
76 0 47 -17 80 -47 88 -70 19 -178 -7 -265 -63 -30 -20 -61 -40 -67 -44 -9 -5
-11 -3 -7 7 3 8 27 28 52 45 139 89 299 112 365 54 9 -9 17 -12 17 -6 0 5 -14
20 -32 33 -46 34 -113 38 -201 10 -133 -42 -198 -86 -229 -157 -21 -48 -16
-73 10 -51 65 54 182 46 182 -11 0 -25 -31 -37 -42 -16 -19 33 -103 3 -114
-41 -25 -97 49 -217 173 -279 53 -27 67 -30 158 -30 96 0 103 2 163 35 80 45
233 196 267 263 20 40 25 65 24 116 l-1 66 -10 -45 c-25 -124 -113 -224 -193
-218 -32 2 -41 7 -43 24 -2 12 5 30 15 40 16 16 18 16 21 1 5 -26 41 -31 71
-10 54 41 82 95 91 177 5 42 12 80 15 85 13 22 -7 39 -40 34 -39 -6 -54 11
-31 36 21 24 20 36 -9 101 -38 82 -144 180 -221 204 -98 31 -104 35 -57 35 33
1 41 4 37 16 -10 24 55 19 111 -10 27 -13 51 -23 53 -20 2 2 -3 26 -12 53 -37
110 -13 271 43 289 41 14 67 5 103 -35 30 -34 37 -36 63 -28 17 5 35 10 42 12
22 6 25 49 5 95 -17 40 -28 49 -95 82 -77 38 -113 67 -159 127 l-27 35 -21
-23 c-27 -29 -44 -28 -58 3 -11 23 -9 27 14 35 25 10 26 12 20 83 -18 241 -18
254 -8 261 7 4 13 -8 17 -31 22 -142 57 -221 111 -245 34 -16 54 3 35 33 -9
16 -10 24 -1 33 14 13 50 -26 50 -55 0 -25 -39 -59 -67 -59 -31 0 -29 -10 10
-47 56 -53 94 -67 182 -67 113 0 180 40 252 153 31 47 37 67 40 126 4 67 3 72
-25 102 -26 28 -35 32 -63 26 -40 -8 -37 15 6 36 24 12 32 11 63 -3 49 -24 51
-13 6 31 -111 107 -166 131 -240 103 -23 -9 -26 -15 -20 -40 4 -25 2 -30 -13
-30 -10 0 -22 7 -25 16 -21 55 15 93 88 95 44 1 47 2 21 9 -113 29 -206 -21
-221 -116 -12 -82 13 -132 61 -120 20 5 25 3 25 -13 0 -12 -11 -26 -26 -34
l-27 -14 21 -21 c11 -11 39 -26 61 -33 34 -10 44 -9 66 5 40 26 49 55 30 99
-8 20 -22 37 -30 37 -20 0 -19 -27 1 -38 20 -11 10 -32 -16 -32 -53 0 -69 86
-19 104 38 13 71 1 98 -35 60 -81 -16 -202 -116 -186 -115 19 -173 93 -173
222 0 94 33 150 111 189 55 27 96 31 182 17 38 -6 52 -5 64 7 13 13 16 13 24
1 5 -8 9 -19 9 -24 0 -16 57 -81 64 -74 4 4 2 27 -4 51 -24 95 24 175 125 207
l60 20 -68 0 c-50 1 -88 9 -146 31 -93 36 -149 81 -191 155 -26 46 -31 64 -31
122 0 91 17 207 37 245 8 16 13 32 11 35 -11 10 -49 -44 -60 -85 -8 -30 -16
-42 -27 -39 -8 2 -14 9 -12 15 3 18 -13 15 -70 -14 -42 -22 -61 -25 -119 -22
-38 2 -69 -1 -69 -5 0 -5 8 -21 19 -35 10 -15 30 -63 45 -107 29 -89 50 -125
72 -125 19 0 18 -16 -2 -24 -27 -11 -54 -7 -60 9 -15 37 -21 5 -27 -127 -3
-79 -13 -168 -21 -198 -9 -30 -16 -76 -16 -102 0 -35 -4 -48 -14 -48 -8 0 -18
5 -22 11 -4 7 -16 2 -33 -14 -49 -46 -109 -70 -159 -62 -41 6 -59 19 -99 68
-15 19 -81 13 -178 -15 -100 -29 -151 -58 -225 -128 -68 -64 -95 -80 -135 -80
-34 0 -75 21 -75 37 0 12 9 13 39 8 47 -8 63 0 150 72 114 94 258 150 366 141
34 -3 56 -1 58 6 2 6 16 -3 31 -21 54 -64 130 -65 195 -1 74 72 101 172 101
364 -1 112 -3 136 -13 123 -15 -20 -49 -31 -71 -23 -20 8 -21 34 -1 34 17 0
35 30 35 60 0 39 -49 118 -106 168 -31 28 -96 72 -145 98 -49 26 -89 51 -89
56 0 6 6 8 13 5 43 -16 59 -18 53 -8 -4 6 -14 11 -23 11 -9 0 -13 3 -10 6 18
18 224 -47 242 -77 4 -5 12 -9 20 -9 11 0 10 9 -5 43 -65 141 47 316 202 317
39 0 54 -6 80 -29 29 -25 32 -34 32 -84 1 -50 -3 -60 -30 -87 -45 -45 -124
-41 -124 7 0 20 48 65 61 57 8 -4 8 -9 0 -17 -17 -17 -13 -37 9 -37 42 0 54
74 18 107 -47 42 -124 34 -168 -19 -26 -32 -25 -38 10 -38 17 0 30 -2 30 -4 0
-2 3 -11 6 -20 5 -12 0 -16 -18 -16 -62 0 -86 -97 -38 -157 14 -18 44 -40 67
-49 36 -14 50 -15 89 -5 63 16 125 53 168 101 47 53 66 91 73 153 l6 52 -30
-32 c-36 -38 -66 -42 -87 -11 -23 32 -20 38 14 38 45 0 57 33 36 98 -12 36
-28 58 -54 78 -60 44 -137 129 -157 173 -19 43 -32 51 -41 27 -3 -8 -19 -20
-35 -26 -24 -10 -33 -10 -54 4 -14 9 -25 26 -25 37 0 19 4 20 39 14 49 -8 54
-1 62 95 9 96 40 240 52 240 5 0 7 -15 4 -35 -17 -106 54 -298 96 -256 9 9 9
16 -1 31 -10 17 -10 21 4 27 18 7 34 -12 34 -42 0 -26 -27 -65 -45 -65 -28 0
-26 -21 5 -61 56 -70 158 -104 236 -79 133 43 248 200 229 312 -8 48 -28 68
-67 68 -30 0 -31 0 -13 20 22 25 72 26 98 3 20 -18 20 -17 14 15 -10 48 -100
137 -155 151 -77 21 -150 -8 -124 -49 14 -23 1 -34 -28 -25 -31 10 -27 68 6
94 15 12 35 21 45 21 28 0 32 17 5 24 -65 16 -153 -28 -176 -89 -27 -70 -8
-145 35 -145 33 0 32 -23 -1 -49 l-26 -20 29 -30 c17 -17 46 -33 67 -37 32 -6
41 -3 67 22 16 16 32 38 35 50 8 32 -12 64 -41 64 -30 0 -33 -20 -5 -27 25 -7
26 -19 1 -33 -54 -28 -99 59 -49 94 23 17 85 21 104 8 23 -16 44 -58 44 -90 0
-55 -26 -91 -85 -118 -49 -23 -58 -24 -95 -13 -83 25 -130 108 -130 228 1 143
67 208 219 213 39 2 71 6 71 9 0 3 -31 13 -68 23 -95 25 -123 49 -129 113 -9
84 23 129 102 146 12 3 7 5 -13 6 -19 1 -31 5 -27 11 8 14 81 13 108 -1 12 -7
34 -12 49 -11 34 1 37 -20 7 -42 -13 -9 -19 -21 -16 -30 20 -51 -29 -114 -78
-102 -20 5 -25 13 -25 36 0 20 5 30 15 30 8 0 15 -4 15 -10 0 -5 5 -10 10 -10
16 0 12 37 -6 54 -19 19 -68 21 -81 4 -16 -20 -22 -58 -16 -90 7 -34 36 -51
120 -73 81 -21 125 -46 119 -67 -5 -22 12 -34 27 -19 18 18 37 13 37 -11 0
-24 30 -98 41 -98 3 0 9 30 13 66 11 109 56 174 121 174 27 0 115 33 115 43 0
3 -17 -1 -37 -9 -72 -25 -102 -16 -208 65 -186 142 -266 256 -285 405 -5 43
-8 88 -6 100 3 11 7 37 10 56 l6 35 -20 -24 c-12 -14 -20 -38 -20 -62 0 -45
-18 -61 -37 -32 -13 20 -14 20 -60 -3 -34 -18 -63 -24 -111 -24 l-64 0 5 -27
c4 -25 3 -26 -7 -9 -55 92 -74 112 -136 146 -36 19 -69 45 -75 58 -5 12 -14
22 -18 22 -5 0 -21 10 -35 22 -15 11 -20 19 -12 16 8 -3 55 -15 103 -28 116
-29 157 -52 157 -91 0 -43 31 -69 83 -69 133 0 226 91 247 240 9 67 -1 96 -19
52 -13 -31 -55 -57 -74 -46 -27 15 -56 48 -51 56 3 5 19 6 34 3 35 -8 50 14
50 71 0 55 -36 96 -108 122 -72 27 -102 51 -102 84 0 14 -12 46 -26 72 -21 37
-30 45 -46 41 -10 -4 -25 -1 -33 5 -20 16 -19 50 0 50 18 0 17 -2 19 98 1 76
10 107 26 97 5 -3 12 -20 16 -37z m1901 -57 c3 -11 11 -22 19 -25 22 -8 4 -36
-23 -36 -19 0 -24 4 -19 16 4 9 1 23 -5 30 -12 14 -4 34 13 34 5 0 12 -9 15
-19z m-1672 -11 c10 -16 85 -51 95 -45 6 4 20 3 32 -1 l22 -7 -23 -18 c-13
-11 -31 -19 -41 -19 -21 0 -140 77 -140 91 0 12 47 12 55 -1z m1495 0 c0 -5
-4 -10 -9 -10 -6 0 -13 5 -16 10 -3 6 1 10 9 10 9 0 16 -4 16 -10z m-39 -42
c0 -10 2 -10 6 0 2 6 9 12 14 12 12 0 1 -89 -12 -106 -11 -14 -1 -24 22 -24
10 0 26 -13 36 -30 9 -16 20 -30 24 -30 8 0 61 41 70 53 3 5 15 -3 27 -17 11
-14 29 -26 41 -26 12 0 21 -4 21 -10 0 -5 8 -10 19 -10 11 0 23 -12 31 -29 6
-16 18 -32 26 -35 8 -3 14 -16 14 -30 0 -14 5 -28 10 -31 6 -4 9 -19 8 -35 -1
-18 6 -38 19 -52 23 -26 38 -64 34 -90 -1 -10 5 -28 13 -40 l16 -22 0 21 c0
12 -6 23 -12 26 -25 8 -1 17 30 11 20 -4 32 -13 32 -23 1 -21 47 -54 66 -47 8
3 14 -1 14 -9 0 -8 5 -15 10 -15 13 0 53 -45 62 -70 11 -29 -5 -32 -34 -5 -17
15 -36 23 -55 22 -22 -2 -29 3 -31 21 -5 34 -28 20 -24 -14 2 -18 15 -39 34
-55 18 -15 28 -31 24 -37 -4 -7 -1 -12 9 -12 10 0 25 -20 38 -50 12 -27 25
-50 30 -50 4 0 11 0 17 0 17 0 79 -72 73 -86 -3 -8 0 -14 6 -14 6 0 20 -8 30
-17 11 -10 31 -26 45 -36 45 -31 33 -38 -51 -28 -7 0 -13 8 -13 17 0 9 -9 18
-20 21 -10 3 -26 16 -35 29 -8 13 -20 24 -26 24 -6 0 -33 23 -59 50 -54 57
-78 51 -34 -8 36 -48 136 -142 151 -142 7 0 40 -27 74 -61 l62 -61 -6 -71 c-5
-67 -28 -175 -42 -197 -4 -6 -10 -8 -15 -5 -5 3 -11 1 -15 -5 -4 -6 -11 -8
-16 -5 -10 7 -12 -6 -9 -42 1 -17 -3 -21 -14 -17 -9 3 -16 1 -16 -4 0 -6 -9
-14 -20 -17 -11 -3 -20 -13 -20 -21 0 -8 -7 -14 -16 -14 -9 0 -18 -9 -21 -21
-4 -12 -17 -22 -35 -26 -20 -4 -25 -8 -17 -14 17 -10 -16 -84 -57 -125 -16
-17 -28 -37 -26 -44 6 -17 -20 -32 -30 -17 -5 8 -8 4 -8 -10 0 -18 -6 -23 -25
-23 -13 0 -28 -6 -32 -13 -4 -8 -42 -29 -83 -47 -41 -19 -79 -38 -85 -44 -13
-14 -84 -20 -98 -8 -13 11 -60 16 -114 13 -29 -1 -33 -4 -33 -28 0 -16 6 -48
14 -73 17 -58 12 -70 -29 -70 -47 0 -55 20 -67 153 -8 96 -7 117 8 157 25 66
35 76 54 54 9 -11 25 -24 35 -30 15 -8 21 -25 25 -64 6 -61 30 -83 30 -27 0
22 11 49 30 75 35 49 37 67 10 82 -11 6 -20 17 -20 26 0 8 -11 19 -25 24 -14
5 -25 15 -25 21 0 14 -41 48 -57 49 -7 0 -13 4 -13 10 0 14 22 60 29 60 4 0 5
19 3 43 -3 23 -1 39 4 34 4 -4 18 2 30 14 16 15 30 20 45 16 14 -4 27 0 34 10
7 9 17 13 23 9 18 -11 14 -22 -13 -34 -14 -6 -25 -18 -25 -27 0 -21 13 -19 35
5 10 11 22 20 27 20 4 0 24 10 43 23 33 21 45 53 28 71 -5 4 -9 32 -9 62 -1
58 -5 63 -90 124 -23 16 -44 36 -47 45 -4 8 -13 15 -20 15 -8 0 -27 10 -43 23
l-29 22 24 -40 c14 -22 33 -48 43 -58 10 -10 18 -21 18 -26 0 -4 16 -25 36
-47 47 -52 68 -83 60 -91 -3 -3 -61 -7 -128 -7 -78 -1 -131 -6 -145 -14 -33
-18 -29 -5 22 73 51 79 60 122 23 110 -13 -4 -68 -11 -122 -16 -72 -6 -102
-13 -108 -24 -5 -8 -16 -15 -25 -15 -9 0 -13 -6 -10 -14 3 -7 1 -18 -5 -24 -8
-8 -6 -13 8 -17 90 -30 166 -90 135 -110 -6 -3 -11 -28 -11 -55 0 -27 -4 -51
-9 -54 -4 -3 -11 -35 -14 -72 -7 -70 -19 -97 -64 -139 -35 -32 -103 -36 -103
-6 0 25 22 41 47 35 27 -7 63 42 70 95 5 38 -13 151 -24 151 -4 0 -15 -8 -26
-17 -20 -17 -20 -17 -13 2 19 47 18 52 -13 63 -29 10 -91 90 -91 117 0 19 -73
83 -103 91 -39 9 -28 15 33 19 43 2 53 -1 62 -19 7 -11 11 -24 10 -28 -3 -11
10 -10 41 5 20 9 27 19 27 40 0 31 32 101 60 132 25 27 75 128 95 193 20 62
15 124 -15 187 -20 42 -25 80 -14 109 10 26 24 18 24 -14 0 -36 34 -70 71 -70
22 0 30 -7 43 -39 9 -24 24 -42 38 -46 37 -11 58 -36 58 -66 0 -16 7 -32 17
-37 13 -8 30 3 80 54 35 35 63 69 63 75 0 18 31 49 48 49 7 0 26 9 40 19 15
10 30 19 35 20 12 1 67 67 67 80 0 6 -6 11 -14 11 -8 0 -29 17 -47 37 -18 21
-37 38 -43 39 -6 0 -19 2 -29 2 -15 2 -17 8 -12 36 9 47 -1 73 -30 80 -14 4
-25 12 -25 19 0 10 -15 13 -56 10 -43 -3 -77 -14 -150 -53 -105 -54 -125 -73
-143 -136 -7 -24 -18 -41 -23 -38 -10 6 -4 54 13 109 5 17 17 59 28 95 28 96
100 225 131 235 10 3 22 15 25 26 7 21 25 26 26 7z m247 -33 c8 -7 14 -76 8
-92 -6 -14 -12 -8 -32 32 -30 64 -31 78 -1 69 12 -3 23 -8 25 -9z m-818 -61
c-10 -43 -17 -51 -31 -37 -8 8 -6 20 5 42 22 42 36 39 26 -5z m-1704 -40 c10
-37 -26 -72 -58 -57 -25 11 -55 59 -45 70 4 4 13 1 19 -5 17 -17 48 -15 54 3
9 23 23 18 30 -11z m2338 -191 c4 -5 11 -8 15 -8 17 0 61 -45 61 -63 0 -11 7
-25 15 -32 13 -10 12 -15 -3 -36 -9 -13 -24 -24 -32 -24 -10 -1 -8 -4 5 -10
21 -8 51 -38 44 -43 -49 -28 -71 -37 -91 -37 -12 -1 -34 -7 -48 -15 -43 -24
-60 -19 -60 18 0 18 -4 37 -10 43 -13 13 -24 97 -16 126 14 54 93 107 120 81z
m116 -13 c0 -5 -2 -10 -4 -10 -3 0 -8 5 -11 10 -3 6 -1 10 4 10 6 0 11 -4 11
-10z m-843 -67 c17 -16 38 -45 47 -66 13 -33 13 -39 1 -44 -23 -8 -18 -33 8
-33 l22 0 -24 -19 c-33 -25 -25 -55 17 -59 19 -2 32 -9 32 -17 0 -8 -6 -12
-14 -9 -17 6 -40 -31 -30 -47 3 -6 17 -9 30 -6 13 2 24 1 24 -4 0 -23 -15 -39
-35 -39 -33 0 -38 -13 -21 -55 16 -37 12 -69 -8 -62 -10 3 -21 31 -60 152 -9
28 -19 41 -34 43 -30 5 -49 30 -29 38 9 3 21 29 28 60 7 29 21 63 32 75 l20
21 -28 22 c-27 22 -39 51 -29 68 8 13 19 9 51 -19z m-947 -31 c64 -43 84 -77
74 -127 -8 -44 -46 -75 -91 -75 -29 0 -36 5 -48 33 -13 32 -13 32 -19 7 -3
-14 -7 -36 -9 -50 l-3 -25 -12 28 c-22 53 -9 185 24 239 9 15 28 8 84 -30z
m-1071 -17 c23 -8 48 -12 55 -9 8 3 17 0 21 -6 9 -15 -13 -40 -36 -40 -16 0
-19 -8 -19 -45 0 -59 -32 -95 -84 -95 -41 0 -59 31 -32 58 14 15 17 15 29 -2
17 -23 37 -13 37 19 0 38 -28 58 -72 52 -65 -9 -88 -30 -88 -82 0 -36 5 -47
28 -63 35 -26 95 -50 152 -63 58 -13 113 -54 105 -79 -8 -24 17 -32 43 -14 24
16 30 10 30 -28 -1 -30 42 -138 55 -138 4 0 7 28 7 63 0 72 22 124 62 147 15
8 29 12 33 9 10 -10 10 -244 0 -244 -12 0 -43 81 -46 120 -1 27 -2 26 -9 -10
-10 -48 4 -148 31 -225 11 -30 22 -62 25 -70 4 -13 6 -13 14 0 6 8 10 28 10
43 0 58 64 148 129 181 72 37 164 56 274 56 88 0 114 3 128 16 27 25 51 11 47
-28 -2 -22 -10 -36 -26 -44 -36 -18 -37 -23 -9 -52 20 -21 29 -44 36 -94 5
-36 14 -76 21 -87 15 -29 3 -44 -32 -39 -24 4 -32 0 -43 -23 -12 -21 -99 -82
-158 -107 -4 -2 -7 13 -7 32 0 28 7 42 32 64 71 62 98 91 98 107 0 12 -6 9
-23 -11 -33 -38 -119 -46 -159 -14 -53 41 -31 112 39 126 37 7 76 -25 71 -58
-4 -31 -26 -33 -38 -4 -11 29 -28 34 -37 11 -7 -21 25 -55 52 -55 72 0 49 130
-29 168 -41 20 -145 0 -223 -44 -35 -19 -63 -31 -63 -25 0 14 50 48 107 73 26
12 42 23 36 25 -17 6 -122 -43 -151 -70 -29 -27 -52 -69 -52 -97 0 -24 -2 -24
51 0 80 36 159 18 159 -36 0 -34 -26 -41 -48 -14 -20 25 -50 24 -87 -4 -28
-20 -26 -106 4 -162 33 -63 131 -150 208 -186 55 -26 83 -33 153 -36 74 -3 90
-1 129 20 54 29 90 92 96 169 2 30 2 45 -1 34 -21 -72 -101 -71 -92 1 4 34 24
43 33 15 3 -12 10 -21 14 -21 18 0 30 55 37 158 6 104 6 110 -14 121 -21 11
-21 35 -3 129 l6 33 35 -67 c43 -84 76 -124 102 -124 29 0 16 -24 -15 -28 -14
-2 -35 2 -46 7 -19 11 -20 9 -14 -92 4 -76 2 -116 -10 -157 -8 -30 -18 -77
-22 -105 -10 -80 -16 -99 -26 -83 -6 9 -13 10 -22 3 -8 -5 -26 -18 -39 -28
-14 -10 -50 -22 -80 -27 -97 -15 -140 -31 -170 -60 -32 -33 -34 -39 -13 -66
14 -18 16 -18 29 -1 17 22 32 22 40 0 8 -19 -14 -40 -52 -50 -31 -8 -76 26
-80 60 -5 40 26 74 81 87 26 7 47 16 47 20 0 4 -27 13 -59 18 -85 15 -157 56
-232 131 -47 48 -72 82 -89 126 -28 71 -50 95 -86 95 -25 0 -26 2 -20 36 8 38
-1 94 -13 94 -5 0 -11 -20 -13 -44 -7 -59 -47 -142 -95 -196 -70 -79 -276
-180 -365 -180 -52 0 -48 16 6 22 24 3 68 17 98 30 69 32 201 138 235 189 67
101 21 222 -77 203 -36 -8 -40 8 -8 30 35 25 91 20 127 -10 17 -14 31 -33 32
-42 0 -14 2 -13 8 3 13 33 -11 85 -67 146 -67 72 -137 109 -206 109 -82 0 -98
-8 -94 -44 4 -40 -21 -42 -40 -2 -29 58 41 104 143 93 38 -4 44 -3 26 4 -28
11 -119 24 -173 24 -21 0 -37 4 -35 10 6 17 65 23 140 14 40 -4 83 -8 97 -8
24 0 24 1 -5 14 -16 7 -55 18 -86 25 -64 12 -128 60 -149 110 -18 43 1 103 40
132 17 12 30 30 30 39 0 10 6 20 13 22 26 11 116 6 156 -8z m-269 -34 c0 -10
-7 -24 -15 -31 -13 -10 -15 -9 -15 12 0 14 3 28 7 31 12 13 23 7 23 -12z
m2070 -84 c0 -96 57 -182 95 -144 22 22 35 13 35 -24 0 -39 -41 -57 -76 -34
-29 19 -34 19 -34 -1 0 -26 37 -73 139 -176 90 -92 98 -98 136 -98 47 0 89 20
117 56 27 33 44 12 22 -26 -27 -45 -64 -64 -129 -68 l-60 -4 -100 96 c-60 57
-108 95 -121 96 -26 0 -32 37 -41 254 -4 109 -2 147 6 142 6 -4 11 -34 11 -69z
m2340 -211 c0 -3 -4 -8 -10 -11 -5 -3 -10 -1 -10 4 0 6 5 11 10 11 6 0 10 -2
10 -4z m-1839 -319 c-8 -8 -11 -5 -11 9 0 27 14 41 18 19 2 -9 -1 -22 -7 -28z
m-226 -30 c36 -56 28 -100 -20 -109 -16 -2 -21 3 -23 27 -2 23 0 27 7 15 10
-13 11 -13 12 0 2 23 2 23 -4 58 -8 37 6 42 28 9z m145 -250 c0 -8 -9 -22 -20
-32 -11 -10 -20 -22 -20 -27 0 -9 43 -70 68 -96 6 -7 12 -20 12 -27 0 -8 9
-19 21 -25 20 -11 20 -12 3 -31 -9 -10 -25 -19 -35 -19 -11 0 -22 -12 -29 -34
-12 -37 -103 -121 -120 -111 -23 14 -8 65 36 118 31 37 33 66 3 38 -34 -31
-59 -33 -70 -5 -13 36 -11 39 9 21 25 -23 43 -8 52 44 9 51 -4 86 -34 92 -18
3 -16 6 12 17 22 8 30 16 24 22 -12 12 -59 -11 -87 -42 l-20 -23 25 13 c24 13
24 12 10 -6 -8 -10 -23 -28 -32 -39 -10 -11 -25 -29 -34 -40 -14 -19 -15 -18
-9 13 14 70 52 118 115 144 19 8 51 22 70 31 44 20 50 20 50 4z m-1760 -168
c10 -6 -3 -7 -35 -3 -27 3 -54 11 -60 16 -12 12 73 0 95 -13z m-382 -19 c30 0
69 -7 88 -16 32 -15 79 -66 69 -76 -2 -2 2 -28 10 -58 19 -73 6 -123 -38 -151
-27 -17 -42 -19 -102 -14 -38 3 -101 11 -140 18 -96 18 -62 29 87 28 115 -1
118 -1 134 24 34 52 -10 135 -79 149 -33 7 -57 -11 -57 -41 0 -19 29 -28 43
-14 18 18 27 13 27 -14 0 -42 -63 -61 -92 -27 -36 41 -28 100 20 139 l27 23
-42 0 c-35 0 -43 3 -43 18 0 25 11 35 24 22 5 -5 34 -10 64 -10z m2032 16 c0
-2 -7 -9 -15 -16 -12 -10 -15 -10 -15 4 0 9 7 16 15 16 8 0 15 -2 15 -4z m440
-31 c0 -9 -9 -15 -25 -15 -26 0 -34 15 -12 23 23 10 37 7 37 -8z m-2010 -8 c8
-3 32 -11 53 -17 40 -12 52 -34 15 -26 -13 3 -55 12 -95 21 -40 8 -88 15 -107
15 -19 0 -38 5 -42 11 -6 11 143 7 176 -4z m-180 -69 c0 -26 -15 -22 -39 8
-29 37 -26 46 9 26 16 -9 30 -25 30 -34z m1670 37 c0 -8 -6 -15 -14 -15 -43 0
-65 -189 -29 -239 32 -43 80 -63 143 -59 79 5 134 36 233 131 82 77 87 80 87
55 0 -39 -59 -101 -155 -163 -86 -55 -125 -106 -110 -141 6 -15 8 -16 13 -4 8
23 24 30 44 19 23 -12 13 -36 -23 -54 -35 -19 -60 -19 -84 -2 -23 18 -14 57
20 89 l24 23 -62 0 c-73 1 -119 22 -147 68 -16 25 -20 50 -20 122 0 102 13
160 38 174 25 15 42 13 42 -4z m508 -3 c2 -7 -6 -12 -17 -12 -21 0 -27 11 -14
24 9 9 26 2 31 -12z m64 -64 c-7 -7 -12 -8 -12 -2 0 6 3 14 7 17 3 4 9 5 12 2
2 -3 -1 -11 -7 -17z m-2858 -110 c5 -21 3 -28 -9 -28 -15 0 -22 40 -8 53 8 9
9 8 17 -25z m2751 -61 c0 -49 -4 -61 -29 -85 l-29 -27 8 25 c4 14 9 48 12 75
5 64 10 78 26 72 8 -2 12 -24 12 -60z m-2643 1 c3 -21 10 -24 75 -29 150 -14
271 -80 335 -184 41 -67 52 -112 58 -247 0 -3 6 -8 13 -10 11 -2 9 -10 -6 -33
-15 -25 -18 -26 -14 -7 6 24 -8 31 -16 7 -4 -8 -24 -27 -47 -44 -74 -54 -203
-51 -279 6 -43 33 -91 109 -91 144 0 86 82 134 159 94 47 -24 57 -83 19 -109
-29 -21 -52 -20 -73 1 -16 15 -15 17 9 30 29 15 29 15 20 37 -7 18 -41 21 -64
6 -22 -14 -18 -95 7 -128 44 -59 145 -88 212 -60 l35 14 -40 20 c-29 16 -40
28 -42 49 -5 42 13 53 42 26 50 -47 102 -4 92 77 -11 85 -67 162 -160 220 -95
59 -116 65 -209 59 -45 -3 -93 -9 -107 -13 l-25 -7 26 29 c15 16 32 39 38 52
6 12 16 22 21 22 5 0 10 -10 12 -22z m616 -24 c123 -66 186 -110 230 -159 74
-84 93 -210 48 -308 -47 -102 -175 -197 -266 -197 -36 0 -41 4 -39 28 0 4 14
8 30 9 56 5 146 68 175 124 37 73 -4 166 -68 154 -33 -5 -39 19 -10 41 34 26
81 15 131 -33 23 -20 26 -21 30 -7 2 10 -6 24 -16 33 -11 9 -29 32 -41 51 -25
43 -95 110 -142 138 -45 26 -102 37 -128 23 -24 -13 -32 -6 -25 20 7 24 64 26
118 3 55 -22 54 -10 -1 16 -31 14 -61 21 -86 18 l-38 -4 0 48 c0 27 3 48 6 48
3 0 45 -21 92 -46z m-475 -69 c58 -17 104 -48 112 -75 11 -35 -4 -79 -30 -86
-30 -7 -51 4 -36 19 33 33 -16 98 -91 123 -43 14 -59 15 -100 5 -82 -18 -93
-11 -21 14 50 18 107 18 166 0z m2800 -29 c15 -32 15 -35 -2 -50 -24 -21 -28
-20 -35 9 -7 27 2 75 13 75 4 0 15 -15 24 -34z m-810 -1 c5 -10 25 -15 62 -15
30 0 55 -4 55 -10 0 -6 -39 -9 -97 -8 -118 2 -150 -11 -194 -80 -35 -55 -49
-100 -42 -136 4 -21 2 -26 -15 -26 -11 0 -22 6 -25 13 -8 23 -18 -1 -28 -69
-14 -99 3 -178 46 -214 13 -11 20 -11 39 0 29 15 46 6 46 -25 0 -40 -71 -49
-109 -14 -31 29 -38 17 -13 -23 33 -52 72 -84 147 -120 66 -31 76 -33 180 -33
136 0 155 5 212 58 l46 42 -6 -35 c-13 -65 -91 -108 -200 -111 l-32 0 42 -19
c45 -20 63 -44 63 -84 0 -24 -32 -56 -56 -56 -23 0 -55 35 -49 53 9 21 35 23
35 2 0 -17 16 -20 26 -4 10 16 -14 53 -47 73 -16 10 -27 21 -25 25 3 4 -24 9
-60 10 -71 2 -120 17 -194 57 -28 15 -56 24 -66 20 -16 -5 -24 8 -53 91 -47
133 -45 197 16 387 5 16 2 18 -19 13 -34 -9 -45 17 -14 31 13 5 39 34 59 64
46 70 83 110 132 143 34 23 47 26 85 21 24 -4 48 -13 53 -21z m-1496 -77 c42
-46 38 -98 -9 -114 -29 -10 -48 -6 -70 13 -14 12 -16 25 -11 62 3 25 11 49 17
53 21 14 53 8 73 -14z m4539 -33 c39 -8 87 -21 107 -30 20 -8 52 -15 72 -15
22 0 35 -5 35 -13 0 -16 -131 -10 -142 7 -5 7 -62 11 -170 12 -194 2 -198 2
-198 12 0 4 12 15 28 24 35 22 169 24 268 3z m-5201 -28 c18 -25 10 -40 -15
-27 -28 15 -51 40 -45 50 8 13 44 -1 60 -23z m1655 -57 c0 -7 13 -8 35 -4 31
5 36 3 55 -27 26 -43 24 -134 -5 -194 l-20 -40 -75 -2 c-80 -3 -80 9 0 22 73
11 79 14 89 52 20 72 -24 153 -48 91 -7 -17 -5 -26 6 -35 22 -17 8 -45 -19
-41 -21 3 -23 9 -23 55 1 42 5 55 25 73 l25 21 -27 -4 c-34 -5 -53 6 -45 27 7
18 27 22 27 6z m411 -6 c23 -27 60 -37 195 -49 116 -10 136 -14 176 -40 26
-16 53 -44 62 -62 18 -39 19 -43 7 -62 -7 -11 -18 -6 -55 26 -24 22 -62 45
-84 51 -76 23 -156 10 -180 -29 -19 -29 -4 -45 19 -20 24 26 85 28 111 4 42
-38 -1 -103 -68 -103 -19 0 -34 -4 -34 -10 0 -5 5 -10 10 -10 21 0 50 -41 50
-70 0 -32 -15 -38 -48 -20 -9 5 -38 18 -65 29 -30 13 -54 31 -65 51 -14 24
-22 29 -42 25 -15 -3 -34 1 -45 9 -18 14 -19 16 -4 28 9 7 20 34 23 60 4 26
16 59 28 73 l21 27 -27 24 c-28 27 -29 28 -20 62 7 26 17 28 35 6z m534 -44
c-3 -5 -13 -10 -21 -10 -8 0 -12 5 -9 10 3 6 13 10 21 10 8 0 12 -4 9 -10z
m-19 -117 c18 -24 17 -43 -1 -43 -10 0 -15 -10 -15 -32 -1 -43 -20 -75 -53
-93 -26 -13 -28 -13 -36 8 -14 36 -37 50 -71 42 -26 -6 -30 -4 -30 15 0 46 92
46 119 -1 9 -16 19 -29 23 -29 11 0 29 66 22 83 -8 22 3 67 18 67 6 0 17 -8
24 -17z m211 1 c10 -27 -11 -33 -30 -8 -17 23 -17 24 3 24 11 0 23 -7 27 -16z
m1976 -41 c3 -5 1 -18 -4 -30 -6 -17 -19 -23 -56 -28 -26 -3 -64 -10 -82 -15
-40 -11 -54 -4 -28 14 20 15 23 36 5 36 -8 0 -5 7 6 15 21 16 151 22 159 8z
m941 -46 c86 -5 123 -11 136 -22 9 -8 21 -15 27 -15 19 0 123 -49 123 -58 0
-5 11 -15 25 -22 14 -8 52 -46 83 -84 31 -39 61 -74 66 -78 15 -10 -54 -63
-86 -65 -15 -2 -28 2 -28 7 0 13 -41 60 -52 60 -5 0 -24 14 -42 32 -31 30
-109 78 -186 115 -58 28 -191 17 -294 -25 -39 -16 -97 -19 -241 -12 -72 4 -85
2 -133 -23 -48 -25 -60 -27 -120 -22 -37 4 -94 8 -127 10 -33 1 -66 3 -74 4
-15 1 -7 49 12 67 22 21 148 45 231 43 89 -1 107 2 215 37 54 18 95 24 150 23
114 -1 171 12 171 38 0 11 4 13 13 6 6 -6 66 -13 131 -16z m-3010 -13 c11 -28
7 -43 -19 -69 -35 -34 -49 -32 -30 5 8 16 15 37 15 48 0 33 23 44 34 16z m158
-21 c17 -15 17 -18 2 -34 -14 -16 -15 -21 -4 -34 21 -25 -16 -64 -101 -108
-78 -40 -81 -44 -94 -129 -6 -39 -24 -49 -43 -25 -17 20 -25 89 -13 117 8 20
10 21 10 6 1 -18 4 -17 30 8 19 18 36 26 46 22 11 -4 33 10 66 40 55 53 60 64
25 64 -33 0 -45 21 -21 34 11 6 28 21 40 33 24 27 33 28 57 6z m-152 -60 c-1
-5 -14 -24 -30 -43 -34 -39 -41 -23 -9 21 19 27 40 38 39 22z m310 -42 c-12
-24 -30 -28 -30 -6 0 13 31 38 38 30 2 -2 -1 -13 -8 -24z m1722 -21 c-7 -45
-19 -50 -114 -50 -70 0 -90 3 -94 15 -11 29 16 45 75 46 31 0 65 4 76 9 37 16
60 8 57 -20z m-2121 -7 c-12 -20 -14 -14 -5 12 4 9 9 14 11 11 3 -2 0 -13 -6
-23z m309 -47 c0 -16 -18 -31 -27 -22 -8 8 5 36 17 36 5 0 10 -6 10 -14z m70
10 c0 -2 -14 -9 -31 -15 -27 -9 -30 -9 -19 4 11 13 50 22 50 11z m-440 -65 c0
-5 -7 -11 -14 -14 -10 -4 -13 -1 -9 9 6 15 23 19 23 5z m1184 -30 c-5 -3 -15
-19 -22 -34 -15 -36 -28 -28 -30 19 -1 32 0 35 15 23 13 -12 18 -11 27 4 6 10
12 13 15 6 2 -6 -1 -14 -5 -18z m-144 -25 c0 -12 5 -27 12 -34 17 -17 -7 -40
-51 -47 -43 -7 -157 -34 -177 -42 -18 -7 -18 21 -1 39 7 7 20 24 29 38 17 27
65 51 133 67 48 11 55 9 55 -21z m-1095 5 c-3 -6 -11 -11 -17 -11 -6 0 -6 6 2
15 14 17 26 13 15 -4z m345 -11 c-20 -13 -53 -13 -45 0 3 6 18 10 33 10 21 0
24 -2 12 -10z m1820 -9 c0 -10 -18 -39 -41 -65 l-41 -46 -89 0 c-102 0 -109 7
-58 64 29 34 60 45 159 60 59 8 70 6 70 -13z m-2260 -45 c0 -9 -30 -14 -35 -6
-4 6 3 10 14 10 12 0 21 -2 21 -4z m386 -59 c14 -14 -20 -37 -55 -37 -60 0
-79 -9 -83 -40 -4 -26 -2 -28 24 -28 16 1 31 -2 35 -5 14 -15 -17 -56 -51 -67
-30 -10 -36 -16 -36 -40 0 -29 -44 -83 -78 -95 -9 -3 -26 -20 -37 -38 -11 -17
-41 -42 -65 -54 -67 -33 -74 -31 -66 20 8 50 16 58 77 81 34 12 54 28 73 56
15 24 37 42 53 47 35 8 50 23 59 57 6 26 5 27 -22 20 -36 -8 -50 -21 -72 -65
-21 -43 -142 -111 -142 -80 0 10 9 26 21 37 14 13 18 25 14 42 -5 21 -3 24 16
19 27 -7 83 29 127 82 84 102 87 104 147 99 30 -3 58 -8 61 -11z m-1946 -22
c0 -15 -11 -36 -25 -49 l-26 -24 26 -38 c14 -20 33 -63 41 -93 9 -31 23 -64
31 -73 17 -20 10 -38 -16 -38 -11 0 -24 -12 -32 -31 -14 -36 -56 -89 -70 -89
-14 0 -10 72 6 104 23 44 20 58 -10 44 -19 -9 -28 -9 -37 0 -25 25 -31 11 -25
-63 3 -43 2 -75 -4 -75 -5 0 -9 3 -10 8 -1 12 -8 75 -14 124 -7 55 23 127 56
135 10 3 19 10 19 16 0 16 -41 57 -57 57 -7 0 -13 5 -13 10 0 6 5 10 10 10 19
0 10 18 -12 24 -23 6 -23 7 -4 21 11 8 38 15 60 15 23 0 50 7 60 15 29 22 46
18 46 -10z m2903 18 c3 -5 7 -21 8 -38 4 -27 1 -30 -26 -30 -26 0 -30 4 -31
30 -1 38 3 45 26 45 10 0 21 -3 23 -7z m-93 -59 c0 -53 -106 -124 -225 -149
-44 -9 -109 -28 -145 -41 -38 -14 -68 -20 -73 -15 -16 16 52 121 88 137 33 14
108 33 155 39 14 2 59 15 100 28 96 32 100 32 100 1z m809 -91 c-1 -15 -100
-93 -118 -93 -14 0 -17 6 -13 33 5 34 20 60 31 53 4 -3 13 -1 21 5 18 11 80
12 79 2z m-3086 -65 c41 -14 47 -27 17 -35 -22 -6 -26 -18 -10 -28 14 -9 13
-78 -2 -93 -17 -17 -57 -15 -64 3 -4 8 -3 23 1 33 5 11 9 13 12 5 7 -19 23
-16 23 4 0 22 -29 53 -50 53 -27 0 -40 -22 -40 -66 0 -53 35 -85 117 -109 81
-22 113 -36 113 -47 0 -6 -11 -7 -27 -3 -15 3 -52 11 -83 16 -90 16 -127 36
-150 84 -34 70 -3 165 55 165 27 1 28 2 12 14 -14 11 -15 15 -5 19 14 6 24 5
81 -15z m-328 -70 c-4 -46 -11 -100 -16 -122 -12 -43 -49 -86 -75 -86 -25 0
-54 30 -54 56 0 33 18 39 39 13 l18 -23 17 25 c9 14 20 45 25 70 19 91 36 149
44 149 5 0 6 -37 2 -82z m2657 64 c5 -5 -1 -21 -14 -37 l-22 -28 30 7 c16 4
45 9 65 11 32 3 38 0 42 -21 8 -42 -13 -48 -125 -36 -111 12 -119 10 -201 -42
-31 -20 -58 -36 -61 -36 -3 0 -20 -10 -38 -22 -41 -28 -234 -76 -248 -62 -15
15 7 80 35 102 13 10 63 29 112 42 125 32 182 51 189 61 3 5 12 9 20 9 14 0
72 36 84 52 13 17 115 17 132 0z m-1312 1 c0 -5 -13 -17 -29 -27 -15 -11 -33
-27 -39 -37 -10 -15 -9 -17 6 -12 13 5 11 -1 -9 -28 -14 -19 -38 -55 -53 -81
-22 -38 -25 -48 -13 -48 9 0 19 5 22 10 3 6 15 10 26 10 24 0 24 -15 -1 -40
-21 -21 -25 -54 -20 -155 l2 -50 -19 25 c-11 14 -27 53 -36 87 -40 148 -8 246
108 326 41 28 55 33 55 20z m126 -204 c5 -8 9 -8 14 1 5 9 9 9 14 1 4 -6 0
-14 -8 -17 -9 -3 -16 -12 -16 -20 0 -16 -62 -77 -102 -101 -27 -17 -38 -39
-38 -83 l0 -24 -15 21 c-9 13 -22 20 -30 17 -20 -8 -19 3 4 35 11 15 23 40 27
57 9 37 33 74 48 74 6 0 25 11 41 25 33 27 50 31 61 14z m1101 -30 c43 -6 83
-15 90 -20 6 -6 43 -10 83 -11 62 0 70 -3 64 -17 -4 -9 -6 -24 -6 -34 1 -13
-14 -25 -45 -39 -37 -16 -58 -19 -112 -14 -36 3 -107 9 -156 12 l-90 6 -100
-50 c-112 -56 -218 -84 -297 -80 -29 1 -81 -1 -115 -6 -54 -7 -64 -6 -69 9 -4
10 2 25 16 41 44 45 133 52 146 11 6 -20 7 -20 30 6 28 33 83 67 107 67 32 0
112 30 213 80 107 53 122 56 241 39z m-2898 -64 c-1 -29 -1 -29 -9 -5 -4 14
-8 34 -9 45 -1 16 1 17 9 5 5 -8 9 -28 9 -45z m-1 -131 c34 -10 26 -22 -20
-29 -61 -9 -202 -80 -232 -116 -32 -37 -33 -65 -4 -96 25 -26 23 -31 -18 -39
-35 -7 -84 26 -84 57 0 10 -4 19 -9 19 -13 0 -23 -32 -12 -39 6 -4 2 -34 -10
-76 -28 -101 -13 -183 45 -252 29 -35 60 -43 70 -18 7 20 32 19 40 -1 17 -43
-7 -73 -59 -74 -42 0 -102 52 -131 114 -29 62 -32 33 -5 -45 36 -105 142 -237
241 -301 100 -64 254 -87 329 -49 21 11 52 36 69 56 27 30 32 44 32 85 0 62
-35 138 -67 146 -35 9 -31 44 5 44 15 0 33 -5 40 -12 20 -20 13 4 -11 38 -104
149 -128 173 -161 161 -9 -4 -16 -18 -16 -32 0 -21 4 -25 18 -21 11 4 25 -1
34 -11 20 -24 41 -90 34 -108 -7 -20 -46 -19 -74 1 -19 13 -22 13 -22 1 0 -8
6 -20 13 -26 19 -15 39 -88 32 -111 -10 -32 -27 -24 -88 39 -46 47 -59 68 -65
103 -7 41 -9 43 -47 48 -22 3 -46 9 -52 13 -20 13 -15 35 9 39 15 2 30 20 50
61 18 36 41 65 63 80 19 12 35 26 35 30 0 4 -11 20 -25 35 -28 30 -33 73 -10
92 16 13 35 6 35 -14 0 -6 16 -28 36 -47 20 -18 68 -78 107 -132 40 -54 86
-117 103 -140 46 -64 77 -157 77 -235 1 -88 -15 -133 -63 -176 -50 -45 -122
-66 -228 -66 l-85 0 33 -23 c19 -12 42 -37 53 -54 18 -31 18 -33 0 -63 -10
-17 -27 -33 -39 -36 -59 -15 -111 17 -88 53 16 25 34 27 34 4 0 -16 6 -21 25
-21 40 0 37 51 -7 97 -17 17 -28 35 -25 40 4 6 -18 20 -48 32 -70 29 -179 112
-213 162 -26 38 -34 41 -74 24 -16 -6 -18 -1 -18 43 0 27 -9 78 -19 113 -42
136 -46 181 -27 260 25 104 53 157 116 220 64 65 173 122 270 143 78 17 79 17
108 10z m1768 -44 c-4 -48 -6 -51 -50 -75 l-46 -24 -6 23 c-3 13 -4 40 -2 62
3 33 6 39 24 36 12 -1 27 4 34 13 7 8 21 15 31 15 17 0 19 -6 15 -50z m1050 0
c127 -23 161 -24 229 -6 28 8 52 12 53 11 2 -2 1 -18 -3 -35 -5 -22 -23 -43
-63 -73 -51 -39 -60 -42 -116 -42 -34 0 -94 7 -133 14 -59 11 -86 12 -140 2
-38 -6 -119 -13 -181 -14 -87 -3 -116 -7 -129 -20 -15 -14 -13 -16 23 -22 21
-4 66 -13 99 -20 99 -23 174 -34 284 -44 91 -7 109 -6 154 11 28 11 62 27 76
37 14 9 46 23 70 30 36 10 46 10 56 -1 13 -13 55 -85 55 -93 0 -9 -50 -37 -72
-40 -13 -2 -59 -15 -102 -29 -43 -14 -86 -26 -95 -26 -9 0 -29 -7 -45 -15 -33
-17 -139 -20 -204 -4 -24 5 -121 21 -215 35 -95 14 -190 29 -211 35 -21 6
-109 9 -195 8 -130 -2 -156 0 -156 12 0 9 21 19 60 28 90 21 95 25 33 29 -32
2 -58 7 -58 12 0 6 3 9 8 8 13 -2 44 14 67 38 25 25 140 64 188 64 17 0 99 12
182 26 136 24 201 41 320 88 50 19 33 19 161 -4z m320 -17 c-10 -10 -19 5 -10
18 6 11 8 11 12 0 2 -7 1 -15 -2 -18z m-3028 -57 c-13 -42 -5 -66 22 -66 23 0
27 -22 5 -40 -20 -17 -30 -7 -45 45 -11 38 -10 50 0 70 19 36 30 30 18 -9z
m1412 -50 c0 -2 -23 -20 -50 -40 -66 -48 -110 -87 -122 -110 -15 -28 10 -10
51 36 18 21 39 38 46 38 7 0 18 7 25 15 7 8 19 15 26 15 9 0 -2 -20 -26 -52
-75 -94 -91 -142 -66 -200 9 -20 -25 -34 -51 -20 -17 10 -18 3 -12 -116 3 -70
11 -137 17 -149 18 -33 15 -53 -9 -53 -20 0 -21 -4 -15 -53 8 -58 -1 -98 -15
-75 -5 7 -9 28 -9 46 0 18 -10 79 -21 135 -21 102 -23 251 -3 302 7 17 3 16
-25 -8 -40 -33 -69 -41 -104 -28 -35 14 -35 31 1 31 38 0 66 22 111 89 48 70
142 158 196 182 40 19 55 23 55 15z m104 -81 l23 -29 8 32 c6 29 25 46 25 23
0 -5 17 -7 39 -4 38 5 38 5 44 -33 7 -44 2 -53 -50 -71 -32 -11 -40 -10 -49 1
-8 12 -12 11 -22 -4 -9 -15 -9 -26 1 -50 l13 -30 25 26 c44 48 91 60 111 30
12 -18 10 -24 -27 -65 -19 -21 -35 -43 -35 -49 0 -7 -11 -19 -25 -28 -14 -9
-25 -25 -25 -36 0 -13 -6 -18 -17 -16 -14 2 -19 15 -21 56 -3 57 -10 62 -37
32 -21 -24 -65 -27 -65 -5 0 8 6 15 14 15 21 0 39 28 41 63 1 18 6 40 10 50 4
10 3 36 -4 56 -6 21 -10 54 -10 72 1 19 3 25 6 14 2 -12 14 -34 27 -50z m2136
-30 c30 -13 91 -31 135 -40 44 -9 91 -21 105 -25 14 -5 47 -12 73 -16 68 -9
132 -30 130 -42 -1 -6 18 -9 47 -8 34 2 50 -1 50 -9 0 -7 10 -16 23 -21 31
-11 -86 -18 -122 -7 -14 4 -66 6 -116 3 -124 -7 -351 6 -389 22 -42 18 -189
16 -301 -5 -99 -18 -308 -83 -373 -116 -23 -12 -46 -21 -52 -21 -6 0 -27 -10
-48 -23 -32 -20 -123 -41 -227 -54 -53 -6 -217 -2 -310 7 -132 14 -141 15
-255 40 -157 33 -190 39 -247 39 l-52 1 6 33 c3 17 13 48 22 67 22 48 41 48
272 5 106 -20 205 -35 219 -33 14 1 30 -1 36 -5 7 -4 85 -11 175 -17 122 -8
185 -8 244 1 73 10 106 19 215 59 65 23 115 39 186 61 40 11 97 36 127 54 44
26 78 37 159 50 57 9 119 20 138 24 40 10 55 7 130 -24z m-530 11 c0 -14 -56
-33 -67 -22 -3 3 -3 12 0 21 8 20 67 21 67 1z m1345 -212 c24 -37 41 -54 50
-50 10 4 20 -6 30 -31 17 -41 14 -63 -10 -63 -15 0 -42 54 -37 73 1 4 -8 7
-19 7 -25 0 -128 57 -135 74 -2 6 -25 10 -57 9 -28 -1 -43 1 -32 4 11 3 25 10
32 15 7 5 20 7 30 5 14 -4 99 5 110 12 1 0 18 -24 38 -55z m-5265 33 c0 -8
-12 -27 -26 -43 -43 -49 -83 -110 -90 -137 -7 -31 -4 -32 37 -11 50 25 79 15
113 -41 37 -61 48 -154 22 -201 l-15 -29 -2 55 c-1 30 -1 59 0 64 1 5 -3 31
-9 56 -19 80 -79 85 -110 11 -7 -18 -11 -58 -8 -98 3 -57 11 -83 47 -153 24
-47 55 -108 70 -137 21 -43 31 -53 58 -58 80 -15 178 48 207 132 9 26 16 71
16 101 0 38 4 52 12 50 19 -7 27 -76 16 -133 -5 -27 -10 -57 -10 -65 -1 -26
-79 -128 -116 -152 -53 -34 -118 -61 -134 -56 -7 3 7 17 36 34 66 39 92 61 84
69 -3 4 -15 2 -26 -4 -12 -6 -39 -11 -61 -11 -44 0 -77 25 -123 92 -133 197
-145 219 -158 303 -11 72 -3 144 24 210 13 29 130 165 143 165 1 0 3 -6 3 -13z
m1758 -56 c12 -11 22 -22 22 -25 0 -3 11 -22 25 -42 32 -48 33 -103 3 -139
-24 -26 -69 -38 -193 -49 -53 -4 -58 -3 -41 9 10 8 44 19 75 25 31 6 68 13 84
16 80 16 42 143 -44 147 -34 2 -47 -16 -35 -49 5 -12 9 -12 25 -2 26 16 35 6
27 -28 -6 -24 -10 -26 -43 -21 -19 3 -41 14 -49 24 -21 28 -17 74 9 101 l22
24 -25 -7 c-14 -4 -30 -10 -36 -12 -6 -2 -17 3 -24 11 -14 18 -6 23 50 29 87
9 125 6 148 -12z m-1770 -21 c-13 -20 -28 -27 -28 -12 0 10 22 32 32 32 5 0 3
-9 -4 -20z m4517 -19 c61 -6 130 -9 155 -6 25 2 93 7 152 11 96 6 113 4 166
-15 33 -13 74 -35 92 -50 l33 -27 -124 -17 c-68 -10 -155 -18 -194 -18 -38 0
-101 -4 -140 -10 -38 -5 -144 -9 -235 -7 -313 6 -461 1 -530 -17 -36 -9 -81
-20 -100 -25 -93 -23 -118 -30 -150 -44 -52 -21 -188 -43 -345 -56 -221 -17
-250 -18 -420 -9 -88 4 -200 9 -250 10 -49 2 -107 6 -129 11 -23 5 -43 5 -50
-1 -7 -6 -18 -4 -30 5 -31 22 -56 18 -56 -10 0 -13 -3 -38 -6 -55 -6 -27 -4
-31 15 -31 12 0 21 -6 21 -15 0 -17 18 -19 54 -5 14 5 139 12 278 14 260 6
370 10 467 20 31 3 106 10 166 16 149 14 438 66 495 88 14 5 135 10 270 11
135 1 277 4 315 5 39 2 73 -1 76 -6 4 -7 172 -11 440 -12 l434 -1 12 -34 c16
-47 2 -77 -44 -92 -29 -10 -207 -14 -753 -15 -393 -1 -737 -4 -765 -7 -89 -8
-319 -36 -345 -42 -23 -5 -116 -12 -600 -46 -80 -5 -221 -13 -315 -18 -129 -6
-178 -12 -202 -24 -23 -12 -33 -14 -33 -5 0 6 -6 4 -13 -7 -11 -15 -22 -17
-58 -12 -140 20 -188 37 -106 37 26 0 47 5 47 10 0 6 -9 10 -21 10 -11 0 -17
5 -14 10 3 6 42 10 86 10 90 0 95 6 54 66 -33 48 -33 105 0 170 14 27 25 63
25 79 0 45 15 56 51 38 20 -10 73 -16 162 -19 123 -4 212 -10 212 -15 0 -4 57
-8 185 -13 74 -3 137 -6 140 -6 11 -4 135 3 258 13 107 9 234 39 296 68 32 16
61 28 65 27 3 -1 18 4 33 10 15 6 58 17 95 23 38 6 77 16 88 22 46 25 382 29
590 8z m-2085 -31 c0 -5 -7 -7 -15 -4 -8 4 -15 8 -15 10 0 2 7 4 15 4 8 0 15
-4 15 -10z m-201 -172 c1 -65 -36 -142 -96 -199 -43 -41 -83 -69 -97 -69 -3 0
14 18 37 39 55 51 90 121 95 191 4 49 1 60 -23 88 -31 37 -14 45 27 12 28 -21
37 -18 39 14 2 39 17 -25 18 -76z m-1875 -385 c-4 -16 -10 -35 -14 -43 -4 -8
-11 -34 -15 -58 -8 -50 12 -82 51 -82 29 0 39 -16 24 -35 -21 -25 -76 -19 -99
11 -12 15 -21 35 -21 45 0 30 -13 29 -74 -7 -55 -33 -116 -54 -116 -40 0 3 28
20 61 37 76 38 156 111 176 161 18 44 37 51 27 11z m1564 -139 c-9 -20 -9 -30
0 -45 16 -24 15 -29 -3 -29 -8 0 -17 10 -20 23 -7 26 10 77 25 77 6 0 5 -10
-2 -26z m-298 -176 c0 -9 -8 -19 -18 -22 -16 -5 -18 -14 -14 -59 3 -43 1 -55
-16 -70 -28 -26 -56 -18 -60 16 -3 28 21 40 32 15 3 -7 4 3 3 22 -2 30 -6 35
-28 38 -20 2 -32 -4 -48 -26 -23 -33 -26 -58 -11 -96 11 -30 30 -39 113 -56
31 -6 57 -16 57 -22 0 -14 -142 -3 -171 13 -72 38 -51 198 31 233 8 3 -1 4
-20 1 l-35 -5 25 20 c34 27 160 25 160 -2z m-1158 -550 c53 -12 52 -13 -83
-19 -112 -5 -144 -10 -177 -27 -28 -14 -39 -17 -36 -8 6 15 58 40 114 55 50
13 121 13 182 -1z m48 -42 c107 -15 82 -24 -69 -25 -134 0 -210 -18 -240 -58
-24 -29 -36 -25 -28 9 8 29 55 54 137 72 80 17 94 17 200 2z m1320 -1 c-7 -9
-15 -13 -17 -11 -7 7 7 26 19 26 6 0 6 -6 -2 -15z m-53 -1 c-3 -3 -12 -4 -19
-1 -8 3 -5 6 6 6 11 1 17 -2 13 -5z m498 -42 c131 -28 165 -32 281 -32 86 0
124 -4 124 -11 0 -19 -40 -79 -61 -89 -22 -12 -93 -3 -133 18 -17 8 -43 18
-59 23 -24 7 -30 5 -34 -11 -7 -26 -29 -27 -165 -11 l-118 15 0 57 c0 34 5 59
12 61 13 5 79 -4 153 -20z m-1533 -21 c-19 -18 -32 -40 -32 -54 0 -30 30 -45
42 -22 10 17 38 21 38 5 0 -18 -39 -50 -61 -50 -39 0 -59 19 -59 55 0 29 7 40
42 65 53 38 72 39 30 1z m3138 -236 c69 -8 154 -21 190 -30 156 -39 265 -47
550 -41 196 4 331 1 474 -10 109 -8 207 -12 217 -9 15 5 19 1 19 -20 0 -36
-26 -82 -50 -90 -11 -4 -105 -3 -208 1 -103 4 -266 8 -362 9 -171 2 -208 7
-320 40 -30 9 -70 20 -88 25 -18 4 -40 14 -49 21 -10 9 -36 13 -72 11 -50 -3
-250 21 -405 49 -67 12 -148 48 -139 62 3 6 29 7 62 3 31 -4 112 -13 181 -21z
m-2304 -60 c-22 -17 -36 -19 -36 -7 0 14 12 22 34 22 21 -1 21 -1 2 -15z m34
-25 c0 -5 -7 -10 -15 -10 -8 0 -21 -12 -29 -27 -8 -16 -15 -22 -16 -15 0 20
31 62 46 62 8 0 14 -4 14 -10z m-50 -100 c0 -5 -4 -10 -10 -10 -5 0 -10 5 -10
10 0 6 5 10 10 10 6 0 10 -4 10 -10z m-40 -209 c0 -5 -13 -11 -30 -13 -24 -4
-27 -2 -19 9 13 15 49 18 49 4z"/>
<path d="M498 6373 c6 -2 18 -2 25 0 6 3 1 5 -13 5 -14 0 -19 -2 -12 -5z"/>
<path d="M917 6343 c-14 -13 -7 -25 11 -17 9 4 40 10 67 14 l50 7 -61 2 c-33
0 -64 -2 -67 -6z"/>
<path d="M1003 6191 l-22 -18 26 -12 c33 -15 58 2 42 30 -12 23 -18 23 -46 0z"/>
<path d="M1787 5674 c-27 -14 -46 -28 -43 -31 3 -3 21 4 41 16 20 11 44 21 53
21 9 0 24 5 32 10 34 22 -37 8 -83 -16z"/>
<path d="M2030 3119 c-27 -12 -34 -17 -18 -14 36 7 78 23 78 30 0 8 -12 5 -60
-16z"/>
<path d="M1295 1970 c-21 -40 -19 -60 5 -60 24 0 26 -25 5 -46 -45 -45 21
-183 94 -199 59 -13 149 58 181 141 21 58 29 194 10 194 -5 0 -10 -6 -10 -13
0 -38 -89 -64 -118 -35 -9 9 -12 1 -12 -40 0 -54 -25 -92 -61 -92 -31 0 -54
53 -37 84 15 27 39 20 32 -9 -5 -19 -2 -25 11 -25 27 0 12 78 -21 108 -34 30
-60 28 -79 -8z"/>
<path d="M3450 5720 c0 -5 5 -10 10 -10 6 0 10 5 10 10 0 6 -4 10 -10 10 -5 0
-10 -4 -10 -10z"/>
<path d="M3494 5697 c-3 -9 -13 -17 -21 -17 -20 0 -11 -24 10 -28 10 -2 17 3
17 11 0 9 6 17 13 20 9 4 9 7 0 17 -10 11 -14 10 -19 -3z"/>
<path d="M2738 5003 c6 -2 18 -2 25 0 6 3 1 5 -13 5 -14 0 -19 -2 -12 -5z"/>
<path d="M2760 4931 c0 -5 5 -13 10 -16 6 -3 10 -2 10 4 0 5 -4 13 -10 16 -5
3 -10 2 -10 -4z"/>
<path d="M1346 5834 c-4 -9 -4 -31 0 -49 5 -27 9 -31 29 -27 21 4 24 1 22 -24
-2 -23 2 -29 18 -29 17 0 20 6 19 43 -1 36 -6 48 -35 72 -40 34 -45 35 -53 14z"/>
<path d="M236 5842 c-3 -5 17 -13 45 -18 58 -12 62 -9 14 12 -39 16 -52 17
-59 6z"/>
<path d="M965 5331 c-12 -5 10 -8 60 -9 52 0 73 3 60 8 -25 11 -94 11 -120 1z"/>
<path d="M2210 4298 c-18 -13 -40 -34 -48 -48 -10 -18 -10 -21 -1 -10 22 24
68 51 113 65 l41 13 -36 1 c-22 1 -49 -8 -69 -21z"/>
<path d="M786 4215 c-20 -20 -20 -29 -1 -45 19 -16 45 -6 45 18 0 31 -25 46
-44 27z"/>
<path d="M2430 3895 c0 -9 5 -15 11 -13 6 2 11 8 11 13 0 5 -5 11 -11 13 -6 2
-11 -4 -11 -13z"/>
<path d="M936 3171 c-4 -5 -2 -12 3 -15 5 -4 12 -2 15 3 4 5 2 12 -3 15 -5 4
-12 2 -15 -3z"/>
<path d="M3788 3123 c7 -3 16 -2 19 1 4 3 -2 6 -13 5 -11 0 -14 -3 -6 -6z"/>
<path d="M901 2376 c-12 -18 -21 -42 -21 -52 1 -12 6 -7 15 14 9 21 26 38 45
45 36 14 39 27 6 27 -17 0 -31 -10 -45 -34z"/>
<path d="M960 2236 c0 -18 17 -29 30 -21 8 5 7 11 -1 21 -15 18 -29 18 -29 0z"/>
<path d="M390 7221 c0 -9 30 -24 36 -18 2 1 -6 8 -16 15 -11 7 -20 8 -20 3z"/>
<path d="M460 7180 c0 -5 7 -10 16 -10 8 0 12 5 9 10 -3 6 -10 10 -16 10 -5 0
-9 -4 -9 -10z"/>
<path d="M505 7160 c3 -5 10 -10 16 -10 5 0 9 5 9 10 0 6 -7 10 -16 10 -8 0
-12 -4 -9 -10z"/>
<path d="M572 7124 c10 -10 20 -15 24 -12 3 4 -5 12 -18 18 -22 12 -22 12 -6
-6z"/>
<path d="M1061 7124 c0 -11 3 -14 6 -6 3 7 2 16 -1 19 -3 4 -6 -2 -5 -13z"/>
<path d="M1215 7119 c-10 -15 3 -25 16 -12 7 7 7 13 1 17 -6 3 -14 1 -17 -5z"/>
<path d="M1290 7100 c-8 -5 -12 -11 -9 -14 2 -3 11 -1 19 4 8 5 12 11 9 14 -2
3 -11 1 -19 -4z"/>
<path d="M1117 7093 c-15 -14 -6 -31 12 -26 12 3 17 11 14 19 -6 15 -16 18
-26 7z"/>
<path d="M1191 7067 c1 -18 3 -24 6 -14 2 9 9 17 14 17 15 0 10 17 -6 24 -12
4 -15 -2 -14 -27z"/>
<path d="M1350 7062 c1 -24 45 -48 56 -30 4 6 -2 15 -12 21 -23 14 -44 18 -44
9z"/>
<path d="M1280 7042 c0 -10 36 -9 46 1 4 4 -5 7 -19 7 -15 0 -27 -4 -27 -8z"/>
<path d="M1297 6994 c-9 -10 4 -34 19 -34 8 0 14 4 14 9 0 12 -26 32 -33 25z"/>
<path d="M1362 6968 c16 -24 64 -56 86 -57 6 -1 12 8 12 20 0 15 5 19 15 15 9
-3 15 0 15 10 0 11 -5 14 -17 9 -48 -18 -72 -17 -89 4 -24 28 -40 27 -22 -1z"/>
<path d="M1560 6969 c0 -5 5 -7 10 -4 6 3 10 8 10 11 0 2 -4 4 -10 4 -5 0 -10
-5 -10 -11z"/>
<path d="M945 6930 c3 -5 11 -10 16 -10 6 0 7 5 4 10 -3 6 -11 10 -16 10 -6 0
-7 -4 -4 -10z"/>
<path d="M1475 6910 c-8 -13 4 -32 16 -25 12 8 12 35 0 35 -6 0 -13 -4 -16
-10z"/>
<path d="M1520 6893 c1 -19 22 -53 34 -53 3 0 6 9 6 20 0 11 -7 20 -15 20 -9
0 -12 6 -9 15 4 8 1 15 -5 15 -6 0 -11 -8 -11 -17z"/>
<path d="M1604 6817 c-8 -21 2 -35 16 -21 5 5 6 15 0 24 -8 12 -10 12 -16 -3z"/>
<path d="M1756 6801 c-4 -5 -2 -12 3 -15 5 -4 12 -2 15 3 4 5 2 12 -3 15 -5 4
-12 2 -15 -3z"/>
<path d="M1696 6773 c-6 -14 -5 -15 5 -6 7 7 10 15 7 18 -3 3 -9 -2 -12 -12z"/>
<path d="M2077 6763 c-4 -3 -7 -11 -7 -17 0 -6 5 -5 12 2 6 6 9 14 7 17 -3 3
-9 2 -12 -2z"/>
<path d="M1775 6720 c4 -6 10 -8 15 -5 5 3 13 -3 19 -12 6 -10 11 -13 11 -7 0
5 -5 15 -12 22 -15 15 -42 16 -33 2z"/>
<path d="M2081 6664 c0 -11 3 -14 6 -6 3 7 2 16 -1 19 -3 4 -6 -2 -5 -13z"/>
<path d="M1470 6660 c0 -5 5 -10 11 -10 5 0 7 5 4 10 -3 6 -8 10 -11 10 -2 0
-4 -4 -4 -10z"/>
<path d="M2040 6646 c0 -13 -6 -27 -12 -29 -8 -3 -6 -6 5 -6 12 -1 17 7 17 29
0 17 -2 30 -5 30 -3 0 -5 -11 -5 -24z"/>
<path d="M1574 6605 c11 -8 22 -12 25 -9 6 6 -19 24 -34 24 -5 -1 -1 -7 9 -15z"/>
<path d="M1664 6555 c11 -8 22 -12 25 -9 6 6 -19 24 -34 24 -5 -1 -1 -7 9 -15z"/>
<path d="M1710 6540 c0 -5 5 -10 11 -10 5 0 7 5 4 10 -3 6 -8 10 -11 10 -2 0
-4 -4 -4 -10z"/>
<path d="M2070 6350 c0 -5 5 -10 11 -10 5 0 7 5 4 10 -3 6 -8 10 -11 10 -2 0
-4 -4 -4 -10z"/>
<path d="M2117 6319 c7 -7 15 -10 18 -7 3 3 -2 9 -12 12 -14 6 -15 5 -6 -5z"/>
<path d="M2202 6074 c-33 -23 -27 -36 8 -16 16 9 30 20 30 25 0 11 -14 8 -38
-9z"/>
<path d="M1 3830 c0 -138 1 -143 14 -105 18 49 18 156 0 210 -12 37 -13 29
-14 -105z"/>
<path d="M5680 3571 c0 -5 -13 -11 -28 -14 -16 -3 -37 -18 -46 -32 -17 -26
-17 -27 16 -61 18 -18 42 -34 53 -34 11 -1 31 -7 45 -15 14 -8 33 -14 43 -15
16 0 72 -24 176 -73 21 -11 27 -8 62 32 21 24 37 47 34 51 -3 4 -22 11 -42 15
-20 4 -50 18 -66 31 -17 14 -43 28 -58 31 -16 3 -29 9 -29 13 0 4 -12 11 -27
15 -15 3 -39 15 -54 25 -34 25 -79 42 -79 31z"/>
<path d="M6530 3508 c1 -15 31 -100 42 -117 18 -30 31 -26 23 7 -9 38 -47 112
-57 112 -4 0 -8 -1 -8 -2z"/>
<path d="M6630 3181 c0 -26 36 -91 51 -91 6 0 9 19 7 42 -2 34 -7 44 -23 47
-11 2 -23 8 -27 15 -5 6 -8 1 -8 -13z"/>
<path d="M6721 2958 c1 -13 4 -34 8 -48 10 -35 24 -8 16 30 -8 37 -25 50 -24
18z"/>
<path d="M6684 2793 c11 -59 17 -74 27 -68 12 8 12 62 -1 86 -18 33 -33 22
-26 -18z"/>
<path d="M0 2525 c0 -47 2 -85 5 -85 10 0 35 60 35 85 0 25 -25 85 -35 85 -3
0 -5 -38 -5 -85z"/>
<path d="M95 2437 c-18 -34 -50 -57 -80 -57 -12 0 -15 -18 -15 -87 l0 -87 36
35 c58 56 102 165 85 211 -6 17 -9 16 -26 -15z"/>
<path d="M6360 1789 c-36 -4 -110 -7 -165 -8 -104 -1 -380 -26 -395 -36 -5 -3
-51 -12 -102 -21 -107 -18 -128 -33 -128 -95 l0 -39 63 6 c34 3 113 12 176 20
62 7 164 16 225 19 61 3 193 13 294 22 177 16 274 12 370 -13 20 -6 22 -3 22
38 0 24 -6 51 -12 60 -29 38 -205 61 -348 47z"/>
<path d="M5 1650 c3 -5 11 -10 16 -10 6 0 7 5 4 10 -3 6 -11 10 -16 10 -6 0
-7 -4 -4 -10z"/>
<path d="M0 1565 c0 -30 33 -70 49 -60 17 10 13 50 -7 68 -27 24 -42 21 -42
-8z"/>
<path d="M4199 1586 c-3 -3 -70 -10 -150 -15 -79 -6 -200 -15 -269 -20 -69 -6
-210 -15 -315 -21 -104 -6 -260 -15 -345 -20 -85 -5 -200 -12 -255 -15 -55 -3
-138 -10 -185 -16 -81 -10 -86 -9 -99 10 -8 13 -24 21 -41 21 -46 0 -84 -79
-48 -101 7 -5 39 -9 70 -9 54 0 59 -2 73 -30 18 -35 15 -34 165 -16 63 8 194
17 290 20 96 4 207 8 245 11 39 2 158 9 265 15 107 7 236 16 285 22 52 6 424
12 885 14 l795 4 -1 25 c0 14 -1 48 -2 76 l-2 51 -67 -6 c-89 -8 -1231 -10
-1263 -1 -14 3 -28 4 -31 1z"/>
<path d="M0 1281 c0 -14 9 -18 65 -26 58 -8 51 6 -11 23 -50 14 -54 15 -54 3z"/>
<path d="M2330 1271 c0 -38 42 -55 68 -29 19 19 14 30 -8 18 -16 -9 -22 -8
-26 5 -7 16 -34 21 -34 6z"/>
<path d="M122 1245 c10 -10 49 -14 43 -4 -4 5 -16 9 -27 9 -12 0 -19 -2 -16
-5z"/>
<path d="M0 1140 c0 -67 3 -85 20 -102 27 -29 27 -96 0 -131 -18 -22 -20 -40
-20 -161 0 -75 3 -136 6 -136 19 0 147 96 178 134 45 56 56 84 56 151 0 42 -5
60 -22 80 -21 23 -26 24 -61 14 -48 -13 -55 -7 -26 20 35 33 82 37 119 11 l30
-21 0 23 c0 38 -26 100 -46 111 -11 6 -31 22 -45 36 -28 28 -98 51 -154 51
l-35 0 0 -80z"/>
<path d="M5797 840 c-21 -4 -48 -12 -60 -18 -12 -5 -52 -18 -90 -29 l-67 -18
4 -36 c3 -30 18 -71 31 -87 1 -1 51 10 111 24 101 26 122 27 294 25 102 -1
203 -3 225 -5 22 -2 101 -7 175 -10 74 -4 179 -9 234 -12 l99 -6 -5 51 c-3 28
-8 54 -11 57 -9 10 -380 42 -612 54 -115 6 -228 12 -250 14 -22 2 -57 0 -78
-4z"/>
<path d="M585 374 c-44 -22 -53 -34 -60 -79 l-6 -40 14 31 c34 72 116 99 212
69 74 -24 82 -13 10 14 -66 25 -129 27 -170 5z"/>
<path d="M2409 376 c-3 -3 -31 -8 -64 -10 -32 -3 -64 -11 -71 -18 -33 -35 -23
-90 13 -68 15 10 34 8 99 -8 80 -21 341 -48 353 -37 10 11 30 88 25 97 -3 4
-24 8 -47 8 -46 0 -250 25 -282 35 -11 3 -23 4 -26 1z"/>
<path d="M1295 330 c10 -11 25 -20 33 -20 9 0 6 7 -11 20 -14 11 -29 20 -33
20 -4 0 1 -9 11 -20z"/>
<path d="M605 315 c-50 -49 -27 -135 35 -135 32 0 55 23 46 45 -7 19 -42 19
-50 0 -9 -24 -26 -17 -26 10 0 46 86 64 114 23 23 -32 20 -65 -9 -93 -29 -30
-92 -34 -130 -9 -33 21 -33 4 0 -44 16 -23 25 -51 25 -74 l0 -38 136 0 135 0
-6 47 c-8 56 -29 76 -67 69 -33 -7 -39 17 -9 34 38 20 81 12 111 -20 34 -36
36 -37 43 -5 5 28 -12 52 -94 134 -79 79 -204 107 -254 56z"/>
<path d="M0 161 c0 -6 11 -11 25 -11 41 0 135 -40 151 -65 11 -16 14 -34 9
-55 l-7 -30 66 0 c43 0 66 4 66 12 0 22 -80 87 -145 118 -69 33 -165 51 -165
31z"/>
<path d="M0 61 l0 -61 59 0 c65 0 79 12 59 55 -9 21 -25 30 -105 62 -10 4 -13
-11 -13 -56z"/>
<path d="M1516 77 c-5 -15 -22 -38 -38 -52 l-30 -25 36 0 c29 0 37 4 42 24 3
13 4 37 2 52 l-4 29 -8 -28z"/>
<path d="M1154 33 c-57 -28 -50 -33 49 -33 53 0 97 4 97 9 0 33 -98 49 -146
24z"/>
</g>
</svg>
